<?xml version="1.0" encoding="UTF-8"?>
<!DOCTYPE svg PUBLIC "-//W3C//DTD SVG 1.1//EN" "http://www.w3.org/Graphics/SVG/1.1/DTD/svg11.dtd">
<!-- Creator: CorelDRAW X7 -->
<svg xmlns="http://www.w3.org/2000/svg" xml:space="preserve" width="47px" height="47px" version="1.1" style="shape-rendering:geometricPrecision; text-rendering:geometricPrecision; image-rendering:optimizeQuality; fill-rule:evenodd; clip-rule:evenodd"
viewBox="0 0 47 47"
 xmlns:xlink="http://www.w3.org/1999/xlink">
 <defs>
  <style type="text/css">
   <![CDATA[
    .fil1 {fill:#FEFEFE}
    .fil0 {fill:none}
   ]]>
  </style>
 </defs>
 <g id="Layer_x0020_1">
  <metadata id="CorelCorpID_0Corel-Layer"/>
  <path class="fil0" d="M14 0l33 0 0 33c0,8 -6,14 -14,14l-33 0 0 -33c0,-8 6,-14 14,-14z"/>
  <g id="_1044034928">
  </g>
  <g id="_1044031568">
  </g>
  <g id="_1044040368">
  </g>
  <g id="_1044040144">
  </g>
  <g id="_1044043120">
  </g>
  <g id="_1044009360">
  </g>
  <g id="_1044008528">
  </g>
  <g id="_1044036272">
  </g>
  <g id="_1044037072">
  </g>
  <g id="_1044037296">
  </g>
  <g id="_1044011888">
  </g>
  <g id="_1044013136">
  </g>
  <g id="_1044013296">
  </g>
  <g id="_1044002544">
  </g>
  <g id="_1044012368">
  </g>
  <g id="_1044007472">
  </g>
  <g id="_1044007344">
  </g>
  <g id="_1044012144">
  </g>
  <g id="_1044007408">
  </g>
  <g id="_1044007056">
  </g>
  <g id="_1044011984">
  </g>
  <g id="_1044022448">
  </g>
  <g id="_1044004720">
  </g>
  <g id="_1044005456">
  </g>
  <g id="_1044007120">
  </g>
  <g id="_1044007856">
  </g>
  <g id="_1044008784">
  </g>
  <g id="_1044006896">
  </g>
  <g id="_1044009456">
  </g>
  <g id="_1044005872">
  </g>
  <path class="fil1" d="M21 9l0 11 -4 0 0 -3c-3,1 -5,4 -5,8 0,4 4,8 8,9l-3 4c-6,-2 -9,-7 -9,-13 0,-5 2,-9 5,-12l-3 0 0 -4 11 0 0 0z"/>
  <path class="fil1" d="M26 38l0 -12 4 0 0 4c3,-2 5,-5 5,-8 0,-5 -4,-9 -8,-9l3 -4c6,2 9,7 9,13 0,4 -2,9 -5,11l3 0 0 5 -11 0 0 0z"/>
  <g id="_1044006192">
  </g>
  <g id="_1044002384">
  </g>
  <g id="_1044006704">
  </g>
  <g id="_1044036816">
  </g>
  <g id="_1044011472">
  </g>
  <g id="_1044001008">
  </g>
  <g id="_1044030864">
  </g>
  <g id="_1044003568">
  </g>
  <g id="_1044015920">
  </g>
  <g id="_1044003984">
  </g>
  <g id="_1044036496">
  </g>
  <g id="_1044035632">
  </g>
  <g id="_1044037168">
  </g>
  <g id="_1044033424">
  </g>
  <g id="_1044031280">
  </g>
 </g>
</svg>
