<?xml version="1.0" encoding="UTF-8"?>
<!DOCTYPE svg PUBLIC "-//W3C//DTD SVG 1.1//EN" "http://www.w3.org/Graphics/SVG/1.1/DTD/svg11.dtd">
<!-- Creator: CorelDRAW X7 -->
<svg xmlns="http://www.w3.org/2000/svg" xml:space="preserve" width="71px" height="71px" version="1.1" style="shape-rendering:geometricPrecision; text-rendering:geometricPrecision; image-rendering:optimizeQuality; fill-rule:evenodd; clip-rule:evenodd"
viewBox="0 0 71 71"
 xmlns:xlink="http://www.w3.org/1999/xlink">
 <defs>
  <style type="text/css">
   <![CDATA[
    .fil1 {fill:white}
    .fil0 {fill:url(#id0)}
   ]]>
  </style>
  <linearGradient id="id0" gradientUnits="userSpaceOnUse" x1="20.8693" y1="51.4182" x2="53.6523" y2="18.0553">
   <stop offset="0" style="stop-opacity:1; stop-color:#070135"/>
   <stop offset="0.701961" style="stop-opacity:1; stop-color:#341742"/>
   <stop offset="1" style="stop-opacity:1; stop-color:#612D50"/>
  </linearGradient>
 </defs>
 <g id="Layer_x0020_1">
  <metadata id="CorelCorpID_0Corel-Layer"/>
  <g id="layer1">
   <path class="fil0" d="M21 11l32 0c4,0 8,3 8,8l0 32c0,4 -4,7 -8,7l-32 0c-4,0 -7,-3 -7,-7l0 -32c0,-5 3,-8 7,-8z"/>
   <g id="text3836">
    <g>
     <path id="path3841" class="fil1" d="M38 31c1,0 2,0 2,0 1,-1 1,-2 1,-3 0,-1 0,-1 -1,-2 0,0 -1,-1 -2,-1l-5 0 0 6 5 0 0 0zm0 13c1,0 3,0 3,-1 1,0 1,-1 1,-3 0,-1 0,-2 -1,-2 0,-1 -2,-1 -3,-1l-5 0 0 7 5 0 0 0zm7 -10c2,0 3,1 4,2 1,2 1,3 1,5 0,3 -1,5 -3,6 -2,2 -5,2 -9,2l-12 0 0 -29 11 0c4,0 7,1 9,2 2,1 3,3 3,6 0,1 0,2 -1,4 -1,1 -2,1 -3,2z"/>
    </g>
   </g>
  </g>
 </g>
</svg>
