
<!-- Creator: CorelDRAW X7 -->
<svg xmlns="http://www.w3.org/2000/svg" xml:space="preserve" width="71px" height="71px" version="1.1" style="shape-rendering:geometricPrecision; text-rendering:geometricPrecision; image-rendering:optimizeQuality; fill-rule:evenodd; clip-rule:evenodd"
viewBox="0 0 71 71"
 xmlns:xlink="http://www.w3.org/1999/xlink">
 <defs>
  <style type="text/css">
   <![CDATA[
    .fil3 {fill:black}
    .fil0 {fill:#E44D26}
    .fil2 {fill:#EBEBEB}
    .fil1 {fill:#F16529}
    .fil4 {fill:white}
   ]]>
  </style>
 </defs>
 <g id="Layer_x0020_1">
  <metadata id="CorelCorpID_0Corel-Layer"/>
  <g id="g3054">
   <polygon id="polygon3028" class="fil0" points="50,21 47,54 34,58 21,54 18,21 "/>
   <polygon id="polygon3030" class="fil1" points="34,55 45,52 47,24 34,24 "/>
   <polygon id="polygon3032" class="fil2" points="28,32 34,32 34,28 34,28 24,28 24,29 25,40 34,40 34,36 28,36 "/>
   <polygon id="polygon3034" class="fil2" points="29,42 27,42 25,42 25,49 34,51 34,51 34,47 34,47 29,46 "/>
   <polygon id="path3036" class="fil3" points="21,12 23,12 23,14 25,14 25,12 27,12 27,18 25,18 25,16 23,16 23,18 21,18 21,12 "/>
   <polygon id="path3038" class="fil3" points="29,14 28,14 28,12 33,12 33,14 31,14 31,18 29,18 29,14 "/>
   <polygon id="path3040" class="fil3" points="34,12 36,12 38,14 39,12 41,12 41,18 39,18 39,15 38,17 38,17 36,15 36,18 34,18 "/>
   <polygon id="path3042" class="fil3" points="42,12 44,12 44,16 47,16 47,18 42,18 "/>
   <polygon id="polygon3044" class="fil4" points="34,40 39,40 38,46 34,47 34,51 42,49 42,48 43,37 43,36 42,36 34,36 "/>
   <polygon id="polygon3046" class="fil4" points="34,32 34,32 44,32 44,32 44,32 44,31 44,29 44,28 34,28 34,30 "/>
  </g>
 </g>
</svg>
