<?xml version="1.0" encoding="UTF-8"?>
<!DOCTYPE svg PUBLIC "-//W3C//DTD SVG 1.1//EN" "http://www.w3.org/Graphics/SVG/1.1/DTD/svg11.dtd">
<!-- Creator: CorelDRAW X7 -->
<svg xmlns="http://www.w3.org/2000/svg" xml:space="preserve" width="71px" height="71px" version="1.1" style="shape-rendering:geometricPrecision; text-rendering:geometricPrecision; image-rendering:optimizeQuality; fill-rule:evenodd; clip-rule:evenodd"
viewBox="0 0 71 71"
 xmlns:xlink="http://www.w3.org/1999/xlink">
 <defs>
  <style type="text/css">
   <![CDATA[
    .fil5 {fill:#020202}
    .fil4 {fill:#151515}
    .fil2 {fill:#EBEBEB}
    .fil0 {fill:#EFC725}
    .fil1 {fill:#FBDE34}
    .fil3 {fill:white}
   ]]>
  </style>
 </defs>
 <g id="Layer_x0020_1">
  <metadata id="CorelCorpID_0Corel-Layer"/>
  <g id="_931217600">
   <polygon class="fil0" points="22,55 19,22 52,22 49,55 35,59 "/>
   <polygon class="fil1" points="35,56 46,53 49,24 35,24 "/>
   <polygon class="fil2" points="35,47 35,47 31,46 31,43 28,43 26,43 27,49 35,52 35,52 "/>
   <polygon class="fil2" points="36,41 36,37 31,37 32,30 36,30 36,26 28,26 28,29 27,40 26,41 28,41 "/>
   <polygon class="fil3" points="36,30 36,30 40,30 41,35 43,35 45,35 44,27 36,26 36,26 "/>
   <polygon class="fil3" points="44,30 44,26 36,26 36,29 36,30 36,30 "/>
   <polygon class="fil3" points="35,37 35,41 40,41 40,46 35,47 35,52 44,49 44,49 45,38 45,37 44,37 "/>
   <g>
    <polygon class="fil4" points="41,14 39,14 41,17 41,19 36,19 36,17 38,17 36,14 36,13 41,13 "/>
    <polygon class="fil5" points="34,13 34,19 29,19 29,17 32,17 32,13 34,13 "/>
   </g>
  </g>
 </g>
</svg>
