<?xml version="1.0" encoding="UTF-8"?>
<!DOCTYPE svg PUBLIC "-//W3C//DTD SVG 1.1//EN" "http://www.w3.org/Graphics/SVG/1.1/DTD/svg11.dtd">
<!-- Creator: CorelDRAW X7 -->
<svg xmlns="http://www.w3.org/2000/svg" xml:space="preserve" width="71px" height="71px" version="1.1" style="shape-rendering:geometricPrecision; text-rendering:geometricPrecision; image-rendering:optimizeQuality; fill-rule:evenodd; clip-rule:evenodd"
viewBox="0 0 71 71"
 xmlns:xlink="http://www.w3.org/1999/xlink">
 <defs>
  <style type="text/css">
   <![CDATA[
    .fil1 {fill:#121B28}
    .fil0 {fill:#78CFF5}
   ]]>
  </style>
 </defs>
 <g id="Layer_x0020_1">
  <metadata id="CorelCorpID_0Corel-Layer"/>
  <g id="_793264736">
   <path id="path4228" class="fil0" d="M9 38c-2,-1 -3,-2 -4,-3 -1,-1 -1,-2 -1,-3 0,-2 0,-2 1,-3l0 -1 0 1c0,0 0,1 0,1 0,1 0,2 1,3 1,2 3,3 5,3 1,0 2,0 3,-1l1 0 0 0c-1,2 -4,3 -6,3l0 0zm1 -4c0,0 -1,0 -1,-1 -1,0 -1,-1 -2,-2 0,0 0,0 0,-1 0,-1 0,-1 0,-2 0,0 1,0 1,-1l0 0 0 1c0,0 0,0 0,1 0,1 0,1 0,1 1,3 4,4 6,3 0,0 1,-1 1,-1 0,0 0,0 0,1 -1,0 -1,1 -2,1 -1,0 -2,0 -3,0l0 0zm1 -3c0,-1 -1,-1 -1,-2 0,0 0,-1 0,-2 0,0 0,0 0,0 0,1 0,2 1,2 1,1 1,1 2,1 1,0 1,0 2,0 0,0 0,0 -1,0 0,1 -2,1 -3,1l0 0z"/>
   <path id="path4058" class="fil1" d="M16 40l0 0 1 -1c0,-1 0,-1 0,-1l0 0 0 0 1 0 0 -1c0,0 0,0 0,0l1 0 0 -3c1,-2 1,-3 1,-3l0 0 1 -1 1 0 0 1c0,0 0,1 0,3l-1 3 0 1 0 0 -1 1 0 0 0 1 -1 0 -1 0 -2 0 0 0 0 0zm30 -4c-2,0 -2,0 -2,0 -1,-1 -1,-1 -1,-2l0 0 0 -1 0 -1 0 -1 1 0 0 -1 0 -1 1 0 0 0 0 -1c1,0 1,0 1,0l1 0 1 0 1 0 1 0 0 0 1 0 0 1 0 0 1 1 -1 1 0 1 0 0 0 1 -3 0 -2 0 0 0 -1 0 0 0c0,0 0,1 1,1l0 0 0 0 0 0 2 0 3 0 0 1c0,0 0,0 -1,1l0 0 0 0 0 1 -2 0c-1,0 -2,-1 -2,-1l0 0zm3 -5l0 -1 0 0 0 0 0 0 -1 0 0 0 -1 0 0 0c-1,0 -1,1 -1,1l0 0 1 0 2 0 0 0 0 0zm-23 5c0,0 0,0 0,0l-1 0 0 0 -1 -1 0 0c0,0 0,0 0,-1l-1 0 0 -1 0 -1 0 -1 1 0 0 -1 0 -1 0 -1 1 0 0 -1 1 -1 1 0c0,0 1,0 1,0l0 -1 2 1 1 0 0 0 1 0 0 0 1 1 0 0 0 0 1 1 0 1 0 0 0 1 -1 1c0,1 0,1 0,2 0,1 0,1 0,1l0 0 0 0c0,0 1,0 1,0l0 0 -1 1c0,1 0,1 0,1l0 0 -3 0c-2,0 -4,0 -4,0l0 0zm4 -2c0,-1 1,-2 1,-2l0 -2 0 0 0 -1 0 -1 0 0 -1 0 0 0 -1 0 -1 0 0 0 0 0 -1 1 0 0 0 1 -1 0 0 1 0 1 0 0c0,0 0,1 0,1l0 0 0 1 0 0 1 0 0 0 2 0 1 0 0 0 0 0zm7 2c-1,0 -1,0 -1,0l0 0 -1 0 0 -1 0 0 0 0 0 -1 0 -1 0 -3 1 -2 0 0 0 0 1 0 1 0 0 0 0 0 -1 2 0 3 0 0 0 1 0 0 0 0 1 0 0 0 1 0 0 0 0 0 1 0 0 -3c1,-1 1,-3 1,-3l0 0 1 0 1 0 0 0c0,0 0,2 -1,4l-1 4 0 0 0 0 -2 0c-1,0 -2,0 -2,0l0 0zm15 0l0 0 1 -4 0 -4 1 0 0 0 2 0 3 0 1 0 0 0 0 0 0 1 0 0c0,0 0,0 0,1l1 0 -3 0 -3 0 0 0 0 0 0 3c-1,2 -1,3 -1,3 0,0 0,0 0,0l0 0 -1 0 -1 0 0 0 0 0zm7 0l0 0 0 -1 0 -1 0 -2 -1 -1 0 0c0,-1 1,-1 1,-1l2 0 0 1c0,0 0,0 0,0l0 1 0 0c0,0 1,-1 2,-3 1,-1 2,-2 2,-2l0 -1 1 0 2 0 0 1c0,0 -2,1 -3,4l-3 3 0 1c-1,1 -1,1 -1,1l0 0 -1 0 -1 0 0 0 0 0zm-39 -7c0,0 0,0 0,-1l1 0 1 0 1 0 0 0c0,0 0,0 0,1l0 1 -2 0 -1 0 0 -1 0 0z"/>
  </g>
 </g>
</svg>
