<?xml version="1.0" encoding="UTF-8"?>
<!DOCTYPE svg PUBLIC "-//W3C//DTD SVG 1.1//EN" "http://www.w3.org/Graphics/SVG/1.1/DTD/svg11.dtd">
<!-- Creator: CorelDRAW X7 -->
<svg xmlns="http://www.w3.org/2000/svg" xml:space="preserve" width="47px" height="47px" version="1.1" style="shape-rendering:geometricPrecision; text-rendering:geometricPrecision; image-rendering:optimizeQuality; fill-rule:evenodd; clip-rule:evenodd"
viewBox="0 0 47 47"
 xmlns:xlink="http://www.w3.org/1999/xlink">
 <defs>
  <style type="text/css">
   <![CDATA[
    .fil1 {fill:#FEFEFE}
    .fil0 {fill:none}
   ]]>
  </style>
 </defs>
 <g id="Layer_x0020_1">
  <metadata id="CorelCorpID_0Corel-Layer"/>
  <path class="fil0" d="M14 0l33 0 0 33c0,8 -6,14 -14,14l-33 0 0 -33c0,-8 6,-14 14,-14z"/>
  <g id="_974955760">
  </g>
  <g id="_974968240">
  </g>
  <g id="_974943344">
  </g>
  <g id="_974941456">
  </g>
  <g id="_974968816">
  </g>
  <g id="_974969936">
  </g>
  <g id="_974947600">
  </g>
  <g id="_974968656">
  </g>
  <g id="_974953776">
  </g>
  <g id="_974958992">
  </g>
  <g id="_974969040">
  </g>
  <g id="_974954480">
  </g>
  <g id="_973431856">
  </g>
  <g id="_973402832">
  </g>
  <g id="_973431792">
  </g>
  <g id="_973423344">
  </g>
  <g id="_973418576">
  </g>
  <g id="_973416688">
  </g>
  <g id="_973420720">
  </g>
  <g id="_973422800">
  </g>
  <g id="_973423152">
  </g>
  <g id="_973405168">
  </g>
  <g id="_973432208">
  </g>
  <g id="_973415952">
  </g>
  <g id="_973406448">
  </g>
  <g id="_973400432">
  </g>
  <g id="_973431152">
  </g>
  <g id="_973405072">
  </g>
  <g id="_973413904">
  </g>
  <g id="_973404016">
  </g>
  <g id="_973408080">
  </g>
  <g id="_973424272">
  </g>
  <g id="_973426448">
  </g>
  <g id="_973414064">
  </g>
  <g id="_973407440">
  </g>
  <g id="_973423216">
  </g>
  <g id="_973426672">
  </g>
  <g id="_973413616">
  </g>
  <g id="_973427664">
  </g>
  <g id="_973408592">
  </g>
  <g id="_973410480">
  </g>
  <g id="_973431920">
  </g>
  <g id="_973419792">
  </g>
  <g id="_973418736">
  </g>
  <g id="_973409680">
  </g>
  <path id="path27" class="fil1" d="M35 25c-1,1 -1,2 -1,3l0 5c0,1 -1,3 -2,3 -1,1 -2,2 -4,2l-1 0 0 -3c1,0 2,0 2,0 0,-1 1,-2 1,-3l0 -3c0,-2 0,-3 0,-3 1,-1 2,-2 3,-2 -1,-1 -2,-2 -3,-3 0,-1 0,-1 0,-3l0 -3c0,-1 -1,-2 -1,-2 0,-1 -1,-1 -2,-1l0 -2c1,0 2,0 3,0 0,0 1,0 2,1 1,0 1,1 1,2 1,1 1,1 1,2l0 4c0,1 0,2 1,3 0,0 1,0 2,1l0 2c-1,0 -2,0 -2,0l0 0z"/>
  <path id="path29" class="fil1" d="M19 10l0 0c0,0 0,0 -1,0 0,0 -1,0 -2,1 -1,0 -1,1 -1,2 0,1 0,1 0,2l0 4c0,1 -1,2 -2,3 0,0 -1,0 -2,1l0 2c1,0 2,0 2,0 1,1 2,2 2,3l0 5c0,1 0,3 1,3 1,1 2,2 4,2l1 0 0 -3c-1,0 -2,0 -2,0 0,-1 -1,-2 -1,-3l0 -3c0,-2 0,-3 0,-3 -1,-1 -2,-2 -3,-2 1,-1 2,-2 3,-3 0,-1 0,-1 0,-3l0 -3c0,-1 1,-2 1,-2 0,-1 1,-1 1,-1l1 0c0,-1 0,-1 0,-2l-2 0 0 0 0 0z"/>
 </g>
</svg>
