<?xml version="1.0" encoding="UTF-8"?>
<!DOCTYPE svg PUBLIC "-//W3C//DTD SVG 1.1//EN" "http://www.w3.org/Graphics/SVG/1.1/DTD/svg11.dtd">
<!-- Creator: CorelDRAW X7 -->
<svg xmlns="http://www.w3.org/2000/svg" xml:space="preserve" width="71px" height="71px" version="1.1" style="shape-rendering:geometricPrecision; text-rendering:geometricPrecision; image-rendering:optimizeQuality; fill-rule:evenodd; clip-rule:evenodd"
viewBox="0 0 71 71"
 xmlns:xlink="http://www.w3.org/1999/xlink">
 <defs>
  <style type="text/css">
   <![CDATA[
    .fil0 {fill:#CB3837}
    .fil1 {fill:white}
   ]]>
  </style>
 </defs>
 <g id="Layer_x0020_1">
  <metadata id="CorelCorpID_0Corel-Layer"/>
  <g>
   <path class="fil0" d="M9 26l0 18 15 0 0 3 12 0 0 -3 27 0 0 -18 -54 0zm0 0l0 0 0 0z"/>
  </g>
  <g>
   <path class="fil1" d="M12 29l0 12 6 0 0 -9 3 0 0 9 3 0 0 -12 3 0 0 15 6 0 0 -12 3 0 0 6 -3 0 0 3 6 0 0 -12 3 0 0 12 6 0 0 -9 3 0 0 9 3 0 0 -9 3 0 0 9 3 0 0 -12 -48 0zm0 0l0 0 0 0z"/>
  </g>
 </g>
</svg>
