<?xml version="1.0" encoding="UTF-8"?>
<!DOCTYPE svg PUBLIC "-//W3C//DTD SVG 1.1//EN" "http://www.w3.org/Graphics/SVG/1.1/DTD/svg11.dtd">
<!-- Creator: CorelDRAW X7 -->
<svg xmlns="http://www.w3.org/2000/svg" xml:space="preserve" width="71px" height="71px" version="1.1" style="shape-rendering:geometricPrecision; text-rendering:geometricPrecision; image-rendering:optimizeQuality; fill-rule:evenodd; clip-rule:evenodd"
viewBox="0 0 71 71"
 xmlns:xlink="http://www.w3.org/1999/xlink">
 <defs>
  <style type="text/css">
   <![CDATA[
    .fil2 {fill:url(#id0)}
    .fil1 {fill:url(#id1)}
    .fil0 {fill:url(#id2)}
    .fil3 {fill:url(#id3)}
   ]]>
  </style>
  <linearGradient id="id0" gradientUnits="userSpaceOnUse" x1="25.9588" y1="28.9112" x2="32.9416" y2="43.6046">
   <stop offset="0" style="stop-opacity:1; stop-color:#A0CBFF"/>
   <stop offset="0.388235" style="stop-opacity:1; stop-color:#A0CBFE"/>
   <stop offset="0.580392" style="stop-opacity:1; stop-color:#8EC2FC"/>
   <stop offset="0.780392" style="stop-opacity:1; stop-color:#83BCFB"/>
   <stop offset="1" style="stop-opacity:1; stop-color:#7FBAFB"/>
  </linearGradient>
  <linearGradient id="id1" gradientUnits="userSpaceOnUse" x1="29.6153" y1="19.2741" x2="40.2026" y2="54.457">
   <stop offset="0" style="stop-opacity:1; stop-color:#090058"/>
   <stop offset="1" style="stop-opacity:1; stop-color:#070033"/>
  </linearGradient>
  <linearGradient id="id2" gradientUnits="userSpaceOnUse" xlink:href="#id0" x1="25.3671" y1="16.7868" x2="44.4496" y2="56.9444">
  </linearGradient>
  <linearGradient id="id3" gradientUnits="userSpaceOnUse" xlink:href="#id0" x1="38.8689" y1="32.7417" x2="44.2176" y2="43.9455">
  </linearGradient>
 </defs>
 <g id="Layer_x0020_1">
  <metadata id="CorelCorpID_0Corel-Layer"/>
  <g id="_1008443744">
   <g id="Layer_2_1_">
    <g>
     <polygon class="fil0" points="13,59 57,59 57,15 13,15 "/>
    </g>
   </g>
   <g id="Layer_2">
    <g>
     <polygon class="fil1" points="16,55 54,55 54,19 16,19 "/>
    </g>
   </g>
   <g id="Layer_4">
    <g>
     <path class="fil2" d="M23 27c0,0 3,0 6,0 2,0 4,1 5,2 1,1 1,2 1,4 0,2 0,3 -1,4 -1,2 -3,2 -5,2 -1,0 -2,0 -2,0l0 6 -4 0 0 -18 0 0zm4 9c1,0 1,0 1,0 2,0 4,-1 4,-3 0,-1 -1,-3 -3,-3 -1,0 -2,0 -2,0l0 6z"/>
     <g>
      <path class="fil3" d="M37 41c1,1 2,1 4,1 1,0 1,0 1,-1 0,0 0,-1 -2,-2 -2,-1 -3,-2 -3,-3 0,-3 2,-5 5,-5 2,0 3,1 4,1l0 3c-1,0 -3,-1 -4,-1 -1,0 -1,1 -1,1 0,1 0,1 2,2 2,1 3,2 3,4 0,2 -2,4 -5,4 -2,0 -3,0 -4,-1l0 -3 0 0z"/>
     </g>
    </g>
   </g>
  </g>
 </g>
</svg>
