<?xml version="1.0" encoding="UTF-8"?>
<!DOCTYPE svg PUBLIC "-//W3C//DTD SVG 1.1//EN" "http://www.w3.org/Graphics/SVG/1.1/DTD/svg11.dtd">
<!-- Creator: CorelDRAW X7 -->
<svg xmlns="http://www.w3.org/2000/svg" xml:space="preserve" width="71px" height="71px" version="1.1" style="shape-rendering:geometricPrecision; text-rendering:geometricPrecision; image-rendering:optimizeQuality; fill-rule:evenodd; clip-rule:evenodd"
viewBox="0 0 71 71"
 xmlns:xlink="http://www.w3.org/1999/xlink">
 <defs>
  <style type="text/css">
   <![CDATA[
    .str0 {stroke:#00D8FF;stroke-width:1.6756}
    .fil2 {fill:none}
    .fil1 {fill:#00D8FF}
    .fil0 {fill:#222222}
   ]]>
  </style>
 </defs>
 <g id="Layer_x0020_1">
  <metadata id="CorelCorpID_0Corel-Layer"/>
  <rect class="fil0" x="14" y="15" width="41.8947" height="41.8947"/>
  <circle class="fil1" cx="35" cy="36" r="4"/>
  <path class="fil2 str0" d="M35 29c5,0 9,0 13,2 4,1 6,3 6,5 0,2 -3,4 -7,6 -3,1 -7,1 -12,1 -4,0 -9,0 -12,-2 -4,-1 -7,-3 -7,-5 0,-2 3,-4 7,-5 3,-1 7,-2 12,-2z"/>
  <path class="fil2 str0" d="M29 32c2,-4 5,-7 8,-9 3,-3 6,-4 8,-3 1,1 2,4 1,8 -1,4 -2,8 -5,12 -2,4 -5,7 -7,9 -3,3 -7,4 -8,3 -2,-1 -2,-4 -2,-8 1,-3 3,-7 5,-12z"/>
  <path class="fil2 str0" d="M29 40c-2,-5 -4,-9 -5,-12 0,-4 0,-7 2,-8 1,-1 5,0 8,3 3,2 5,6 7,9 3,4 4,8 5,12 1,4 0,7 -1,8 -2,1 -5,0 -8,-3 -3,-2 -6,-5 -8,-9z"/>
 </g>
</svg>
