<?xml version="1.0" encoding="UTF-8"?>
<!DOCTYPE svg PUBLIC "-//W3C//DTD SVG 1.1//EN" "http://www.w3.org/Graphics/SVG/1.1/DTD/svg11.dtd">
<!-- Creator: CorelDRAW X7 -->
<svg xmlns="http://www.w3.org/2000/svg" xml:space="preserve" width="71px" height="71px" version="1.1" style="shape-rendering:geometricPrecision; text-rendering:geometricPrecision; image-rendering:optimizeQuality; fill-rule:evenodd; clip-rule:evenodd"
viewBox="0 0 71 71"
 xmlns:xlink="http://www.w3.org/1999/xlink">
 <defs>
  <style type="text/css">
   <![CDATA[
    .fil0 {fill:#CF649A}
   ]]>
  </style>
 </defs>
 <g id="Layer_x0020_1">
  <metadata id="CorelCorpID_0Corel-Layer"/>
  <path class="fil0" d="M60 38c-3,0 -4,1 -6,1 -1,-1 -1,-2 -1,-2 0,-1 -1,-2 0,-3 0,-1 0,-2 0,-3 0,0 0,0 -1,0 -1,0 -2,0 -2,0 -1,1 -1,1 -1,2 0,1 -2,5 -4,8 0,-1 -1,-2 -1,-3 0,0 0,-1 0,-2 0,-1 1,-3 1,-3 0,0 0,0 -1,0 -2,0 -3,0 -3,0 0,1 0,1 0,2 -1,1 -4,8 -4,9 -1,1 -1,2 -1,2 -1,1 0,0 0,1 -1,0 -1,0 -1,0l0 0c0,0 0,1 0,1 0,0 0,-1 0,-2 0,-2 1,-6 1,-6 0,0 1,-1 0,-1 -1,-1 -2,0 -2,0 0,0 0,0 0,0 0,0 1,-4 -2,-4 -1,0 -4,2 -5,4 -1,0 -3,1 -4,2 -1,0 -2,1 -2,1l0 0c-4,-4 -10,-6 -10,-11 0,-2 1,-7 12,-13 10,-4 17,-3 19,0 2,4 -4,12 -14,13 -4,0 -6,-1 -6,-2 -1,0 -1,0 -1,0 -1,0 0,0 0,1 0,0 1,2 3,2 2,1 6,1 12,-1 6,-2 10,-8 9,-14 -1,-5 -10,-7 -19,-4 -5,2 -11,5 -15,8 -4,5 -5,9 -5,10 1,6 9,10 12,12 0,0 0,1 0,1 -2,0 -8,4 -9,7 -2,4 0,6 1,7 5,1 9,-1 11,-5 2,-3 2,-7 1,-9l0 0 1 -1c1,0 2,-1 2,-1 0,1 0,2 0,4 -1,2 0,5 1,6 1,0 1,0 2,0 1,0 2,-1 2,-2 1,-2 2,-4 2,-4 0,0 -1,5 2,5 0,0 1,-1 2,-1l0 0c0,0 0,0 0,0 0,-1 0,-1 0,-1l0 0c0,0 1,-2 2,-4 2,-3 3,-7 3,-7 0,0 1,1 1,2 0,1 1,2 1,3 0,1 0,1 0,1l0 0c0,1 -1,1 -1,1 -1,2 -3,4 -3,4 0,1 0,1 0,1 1,1 1,1 2,1 1,-1 2,-1 2,-1 1,0 1,-1 2,-1 1,-1 2,-2 2,-4 0,-1 0,-2 -1,-3 0,0 0,0 0,0 2,-3 4,-6 4,-6 0,0 0,1 0,3 1,0 1,1 2,2 -2,2 -3,3 -4,4 0,2 0,3 1,4 1,0 1,-1 2,-1 0,0 1,0 2,-1 1,-1 2,-2 2,-4 0,0 0,-1 0,-2 1,-1 3,-1 6,-1 5,1 6,4 6,6 0,1 -1,2 -2,2 0,0 0,0 0,1 0,0 0,0 0,0 1,0 3,-1 3,-4 0,-3 -3,-7 -8,-7l0 0zm-42 14c-2,2 -4,3 -5,2 -1,0 -1,-3 1,-5 2,-2 3,-3 4,-4 1,0 1,0 2,0 0,0 0,0 0,0 0,0 0,0 0,0 1,3 0,5 -2,7l0 0zm13 -9c-1,2 -2,6 -3,6 0,-1 -1,-4 0,-7 1,-1 2,-3 2,-3 1,-1 2,-2 3,-1 0,0 -2,4 -2,5l0 0zm11 5c0,1 -1,1 -1,1 0,0 0,-1 0,-1 0,0 2,-1 2,-2 0,0 1,-1 1,-1l0 0c0,2 -1,3 -2,3l0 0zm8 -1c0,-1 0,-1 1,-2 0,-1 0,-2 1,-3 1,1 1,1 1,1 0,2 -2,3 -3,4z"/>
 </g>
</svg>
