<?xml version="1.0" encoding="UTF-8"?>
<!DOCTYPE svg PUBLIC "-//W3C//DTD SVG 1.1//EN" "http://www.w3.org/Graphics/SVG/1.1/DTD/svg11.dtd">
<!-- Creator: CorelDRAW X7 -->
<svg xmlns="http://www.w3.org/2000/svg" xml:space="preserve" width="1594px" height="591px" version="1.1" style="shape-rendering:geometricPrecision; text-rendering:geometricPrecision; image-rendering:optimizeQuality; fill-rule:evenodd; clip-rule:evenodd"
viewBox="0 0 1594 590"
 xmlns:xlink="http://www.w3.org/1999/xlink">
 <defs>
  <style type="text/css">
   <![CDATA[
    .str0 {stroke:#FEFEFE;stroke-width:6.50824}
    .fil0 {fill:#FEFEFE}
   ]]>
  </style>
 </defs>
 <g id="Layer_x0020_1">
  <metadata id="CorelCorpID_0Corel-Layer"/>
  <circle class="fil0 str0" cx="81" cy="184" r="9"/>
  <circle class="fil0 str0" cx="163" cy="289" r="21"/>
  <circle class="fil0 str0" cx="167" cy="195" r="7"/>
  <circle class="fil0 str0" cx="350" cy="421" r="8"/>
  <circle class="fil0 str0" cx="603" cy="333" r="19"/>
  <circle class="fil0 str0" cx="583" cy="248" r="5"/>
  <circle class="fil0 str0" cx="463" cy="191" r="13"/>
  <circle class="fil0 str0" cx="471" cy="340" r="13"/>
  <circle class="fil0 str0" cx="719" cy="494" r="9"/>
  <circle class="fil0 str0" cx="755" cy="378" r="8"/>
  <circle class="fil0 str0" cx="720" cy="252" r="17"/>
  <circle class="fil0 str0" cx="430" cy="63" r="12"/>
  <circle class="fil0 str0" cx="279" cy="51" r="7"/>
  <circle class="fil0 str0" cx="260" cy="134" r="7"/>
  <circle class="fil0 str0" cx="384" cy="180" r="17"/>
  <circle class="fil0 str0" cx="90" cy="358" r="10"/>
  <circle class="fil0 str0" cx="56" cy="453" r="22"/>
  <circle class="fil0 str0" cx="868" cy="166" r="8"/>
  <circle class="fil0 str0" cx="769" cy="106" r="8"/>
  <circle class="fil0 str0" cx="806" cy="220" r="5"/>
  <circle class="fil0 str0" cx="842" cy="347" r="12"/>
  <circle class="fil0 str0" cx="651" cy="423" r="7"/>
  <circle class="fil0 str0" cx="372" cy="321" r="9"/>
  <circle class="fil0 str0" cx="88" cy="34" r="16"/>
  <circle class="fil0 str0" cx="141" cy="127" r="19"/>
  <circle class="fil0 str0" cx="1158" cy="504" r="9"/>
  <circle class="fil0 str0" cx="1076" cy="449" r="10"/>
  <circle class="fil0 str0" cx="802" cy="566" r="9"/>
  <circle class="fil0 str0" cx="422" cy="542" r="10"/>
  <circle class="fil0 str0" cx="416" cy="433" r="7"/>
  <circle class="fil0 str0" cx="509" cy="394" r="14"/>
  <circle class="fil0 str0" cx="670" cy="341" r="5"/>
  <circle class="fil0 str0" cx="559" cy="160" r="9"/>
  <circle class="fil0 str0" cx="404" cy="96" r="18"/>
  <circle class="fil0 str0" cx="315" cy="137" r="18"/>
  <circle class="fil0 str0" cx="357" cy="235" r="10"/>
  <circle class="fil0 str0" cx="208" cy="355" r="17"/>
  <circle class="fil0 str0" cx="138" cy="408" r="12"/>
  <circle class="fil0 str0" cx="316" cy="501" r="10"/>
  <circle class="fil0 str0" cx="93" cy="554" r="8"/>
  <circle class="fil0 str0" cx="30" cy="294" r="13"/>
  <circle class="fil0 str0" cx="115" cy="235" r="8"/>
  <circle class="fil0 str0" cx="227" cy="219" r="9"/>
  <circle class="fil0 str0" cx="461" cy="257" r="18"/>
  <circle class="fil0 str0" cx="491" cy="125" r="12"/>
  <circle class="fil0 str0" cx="645" cy="272" r="12"/>
  <circle class="fil0 str0" cx="531" cy="281" r="9"/>
  <circle class="fil0 str0" cx="656" cy="526" r="7"/>
  <circle class="fil0 str0" cx="692" cy="450" r="5"/>
  <circle class="fil0 str0" cx="755" cy="419" r="4"/>
  <circle class="fil0 str0" cx="745" cy="324" r="8"/>
  <circle class="fil0 str0" cx="814" cy="293" r="10"/>
  <circle class="fil0 str0" cx="860" cy="427" r="4"/>
  <circle class="fil0 str0" cx="967" cy="452" r="8"/>
  <circle class="fil0 str0" cx="927" cy="566" r="5"/>
  <circle class="fil0 str0" cx="1025" cy="571" r="3"/>
  <circle class="fil0 str0" cx="1019" cy="518" r="6"/>
  <circle class="fil0 str0" cx="488" cy="533" r="9"/>
  <circle class="fil0 str0" cx="260" cy="399" r="2"/>
  <circle class="fil0 str0" cx="292" cy="363" r="5"/>
  <circle class="fil0 str0" cx="436" cy="384" r="5"/>
  <circle class="fil0 str0" cx="393" cy="489" r="9"/>
  <circle class="fil0 str0" cx="265" cy="560" r="12"/>
  <circle class="fil0 str0" cx="126" cy="483" r="10"/>
  <circle class="fil0 str0" cx="42" cy="158" r="4"/>
  <circle class="fil0 str0" cx="67" cy="107" r="13"/>
  <circle class="fil0 str0" cx="218" cy="481" r="15"/>
  <circle class="fil0 str0" cx="603" cy="333" r="19"/>
  <circle class="fil0 str0" cx="583" cy="248" r="5"/>
  <circle class="fil0 str0" cx="463" cy="191" r="13"/>
  <circle class="fil0 str0" cx="471" cy="340" r="13"/>
  <circle class="fil0 str0" cx="720" cy="252" r="17"/>
  <circle class="fil0 str0" cx="868" cy="166" r="8"/>
  <circle class="fil0 str0" cx="806" cy="220" r="5"/>
  <circle class="fil0 str0" cx="842" cy="347" r="12"/>
  <circle class="fil0 str0" cx="670" cy="341" r="5"/>
  <circle class="fil0 str0" cx="559" cy="160" r="9"/>
  <circle class="fil0 str0" cx="461" cy="257" r="18"/>
  <circle class="fil0 str0" cx="491" cy="125" r="12"/>
  <circle class="fil0 str0" cx="645" cy="272" r="12"/>
  <circle class="fil0 str0" cx="531" cy="281" r="9"/>
  <circle class="fil0 str0" cx="745" cy="324" r="8"/>
  <circle class="fil0 str0" cx="814" cy="293" r="10"/>
 </g>
</svg>
