<?xml version="1.0" encoding="UTF-8"?>
<!DOCTYPE svg PUBLIC "-//W3C//DTD SVG 1.1//EN" "http://www.w3.org/Graphics/SVG/1.1/DTD/svg11.dtd">
<!-- Creator: CorelDRAW X7 -->
<svg xmlns="http://www.w3.org/2000/svg" xml:space="preserve" width="1181px" height="591px" version="1.1" style="shape-rendering:geometricPrecision; text-rendering:geometricPrecision; image-rendering:optimizeQuality; fill-rule:evenodd; clip-rule:evenodd"
viewBox="0 0 1181 591"
 xmlns:xlink="http://www.w3.org/1999/xlink">
 <defs>
  <style type="text/css">
   <![CDATA[
    .str0 {stroke:#FEFEFE;stroke-width:2.08328}
    .fil0 {fill:none}
   ]]>
  </style>
 </defs>
 <g id="Layer_x0020_1">
  <metadata id="CorelCorpID_0Corel-Layer"/>
  <circle class="fil0 str0" cx="95" cy="183" r="9"/>
  <circle class="fil0 str0" cx="173" cy="283" r="20"/>
  <circle class="fil0 str0" cx="177" cy="194" r="7"/>
  <circle class="fil0 str0" cx="351" cy="409" r="8"/>
  <circle class="fil0 str0" cx="592" cy="325" r="18"/>
  <circle class="fil0 str0" cx="573" cy="244" r="5"/>
  <circle class="fil0 str0" cx="459" cy="190" r="12"/>
  <circle class="fil0 str0" cx="467" cy="332" r="12"/>
  <circle class="fil0 str0" cx="703" cy="479" r="9"/>
  <circle class="fil0 str0" cx="737" cy="368" r="8"/>
  <circle class="fil0 str0" cx="704" cy="248" r="16"/>
  <circle class="fil0 str0" cx="427" cy="68" r="11"/>
  <circle class="fil0 str0" cx="283" cy="56" r="7"/>
  <circle class="fil0 str0" cx="265" cy="136" r="7"/>
  <circle class="fil0 str0" cx="384" cy="179" r="16"/>
  <circle class="fil0 str0" cx="103" cy="349" r="10"/>
  <circle class="fil0 str0" cx="71" cy="440" r="21"/>
  <circle class="fil0 str0" cx="845" cy="166" r="8"/>
  <circle class="fil0 str0" cx="751" cy="109" r="8"/>
  <circle class="fil0 str0" cx="786" cy="218" r="5"/>
  <circle class="fil0 str0" cx="820" cy="339" r="11"/>
  <circle class="fil0 str0" cx="638" cy="411" r="7"/>
  <circle class="fil0 str0" cx="372" cy="314" r="9"/>
  <circle class="fil0 str0" cx="101" cy="40" r="15"/>
  <circle class="fil0 str0" cx="152" cy="129" r="18"/>
  <circle class="fil0 str0" cx="1122" cy="488" r="9"/>
  <circle class="fil0 str0" cx="1043" cy="436" r="10"/>
  <circle class="fil0 str0" cx="782" cy="547" r="9"/>
  <circle class="fil0 str0" cx="420" cy="525" r="10"/>
  <circle class="fil0 str0" cx="414" cy="421" r="7"/>
  <circle class="fil0 str0" cx="503" cy="383" r="13"/>
  <circle class="fil0 str0" cx="656" cy="333" r="5"/>
  <circle class="fil0 str0" cx="550" cy="160" r="9"/>
  <circle class="fil0 str0" cx="403" cy="99" r="17"/>
  <circle class="fil0 str0" cx="318" cy="138" r="17"/>
  <circle class="fil0 str0" cx="358" cy="232" r="10"/>
  <circle class="fil0 str0" cx="216" cy="346" r="16"/>
  <circle class="fil0 str0" cx="149" cy="397" r="11"/>
  <circle class="fil0 str0" cx="319" cy="485" r="10"/>
  <circle class="fil0 str0" cx="106" cy="536" r="8"/>
  <circle class="fil0 str0" cx="46" cy="288" r="12"/>
  <circle class="fil0 str0" cx="127" cy="232" r="8"/>
  <circle class="fil0 str0" cx="234" cy="217" r="9"/>
  <circle class="fil0 str0" cx="457" cy="253" r="17"/>
  <circle class="fil0 str0" cx="486" cy="127" r="11"/>
  <circle class="fil0 str0" cx="632" cy="267" r="11"/>
  <circle class="fil0 str0" cx="524" cy="276" r="9"/>
  <circle class="fil0 str0" cx="643" cy="509" r="7"/>
  <circle class="fil0 str0" cx="677" cy="437" r="5"/>
  <circle class="fil0 str0" cx="737" cy="407" r="4"/>
  <circle class="fil0 str0" cx="728" cy="317" r="8"/>
  <circle class="fil0 str0" cx="794" cy="287" r="10"/>
  <circle class="fil0 str0" cx="837" cy="415" r="4"/>
  <circle class="fil0 str0" cx="939" cy="439" r="8"/>
  <circle class="fil0 str0" cx="901" cy="547" r="5"/>
  <circle class="fil0 str0" cx="995" cy="577" r="3"/>
  <circle class="fil0 str0" cx="989" cy="502" r="6"/>
  <circle class="fil0 str0" cx="483" cy="516" r="9"/>
  <circle class="fil0 str0" cx="265" cy="388" r="2"/>
  <circle class="fil0 str0" cx="296" cy="354" r="5"/>
  <circle class="fil0 str0" cx="433" cy="374" r="5"/>
  <circle class="fil0 str0" cx="392" cy="474" r="9"/>
  <circle class="fil0 str0" cx="270" cy="542" r="11"/>
  <circle class="fil0 str0" cx="138" cy="468" r="10"/>
  <circle class="fil0 str0" cx="57" cy="158" r="4"/>
  <circle class="fil0 str0" cx="81" cy="110" r="12"/>
  <circle class="fil0 str0" cx="225" cy="466" r="14"/>
  <circle class="fil0 str0" cx="592" cy="325" r="18"/>
  <circle class="fil0 str0" cx="573" cy="244" r="5"/>
  <circle class="fil0 str0" cx="459" cy="190" r="12"/>
  <circle class="fil0 str0" cx="467" cy="332" r="12"/>
  <circle class="fil0 str0" cx="704" cy="248" r="16"/>
  <circle class="fil0 str0" cx="845" cy="166" r="8"/>
  <circle class="fil0 str0" cx="786" cy="218" r="5"/>
  <circle class="fil0 str0" cx="820" cy="339" r="11"/>
  <circle class="fil0 str0" cx="656" cy="333" r="5"/>
  <circle class="fil0 str0" cx="550" cy="160" r="9"/>
  <circle class="fil0 str0" cx="457" cy="253" r="17"/>
  <circle class="fil0 str0" cx="486" cy="127" r="11"/>
  <circle class="fil0 str0" cx="632" cy="267" r="11"/>
  <circle class="fil0 str0" cx="524" cy="276" r="9"/>
  <circle class="fil0 str0" cx="728" cy="317" r="8"/>
  <circle class="fil0 str0" cx="794" cy="287" r="10"/>
 </g>
</svg>
