<?xml version="1.0" encoding="UTF-8"?>
<!DOCTYPE svg PUBLIC "-//W3C//DTD SVG 1.1//EN" "http://www.w3.org/Graphics/SVG/1.1/DTD/svg11.dtd">
<!-- Creator: CorelDRAW X7 -->
<svg xmlns="http://www.w3.org/2000/svg" xml:space="preserve" width="1181px" height="591px" version="1.1" style="shape-rendering:geometricPrecision; text-rendering:geometricPrecision; image-rendering:optimizeQuality; fill-rule:evenodd; clip-rule:evenodd"
viewBox="0 0 1181 591"
 xmlns:xlink="http://www.w3.org/1999/xlink">
 <defs>
  <style type="text/css">
   <![CDATA[
    .str2 {stroke:#FEFEFE;stroke-width:2.08328}
    .str1 {stroke:#FEFEFE;stroke-width:2.08328}
    .str0 {stroke:#FEFEFE;stroke-width:2.08328}
    .fil1 {fill:none;fill-rule:nonzero}
    .fil0 {fill:#FEFEFE;fill-rule:nonzero}
   ]]>
  </style>
 </defs>
 <g id="Layer_x0020_1">
  <metadata id="CorelCorpID_0Corel-Layer"/>
  <path id="path69124" class="fil0 str0" d="M571 451c8,0 14,7 14,15 0,8 -6,15 -14,15 -8,0 -15,-7 -15,-15 0,-8 7,-15 15,-15zm0 40c13,0 24,-11 24,-25 0,-14 -11,-25 -24,-25 -14,0 -25,11 -25,25 0,14 11,25 25,25z" />
  <path id="path69358" class="fil0 str0" d="M174 343c-7,0 -12,-5 -12,-12 0,-7 5,-13 12,-13 7,0 13,6 13,13 0,7 -6,12 -13,12zm0 -33c-11,0 -21,9 -21,21 0,11 10,21 21,21 12,0 21,-10 21,-21 0,-12 -9,-21 -21,-21z" />
  <g>
   <path id="path69444" class="fil0" d="M702 384c-2,5 0,10 4,12 5,2 10,0 12,-4 2,-4 0,-10 -4,-12 -4,-2 -9,0 -12,4l0 0zm0 0l0 0 0 0z" />
   <path id="1" class="fil1 str0" d="M702 384c-2,5 0,10 4,12 5,2 10,0 12,-4 2,-4 0,-10 -4,-12 -4,-2 -9,0 -12,4m0 0l0 0 0 0z"/>
  </g>
  <path id="path71544" class="fil0 str0" d="M366 417c0,22 -18,40 -40,40 -21,0 -39,-18 -39,-40 0,-22 18,-39 39,-39 22,0 40,17 40,39zm-92 0c0,29 24,53 52,53 29,0 53,-24 53,-53 0,-28 -24,-52 -53,-52 -28,0 -52,24 -52,52z"/>
  <path id="path71546" class="fil0 str0" d="M337 417c0,6 -4,11 -11,11 -6,0 -11,-5 -11,-11 0,-6 5,-11 11,-11 7,0 11,5 11,11zm-34 0c0,13 10,24 23,24 13,0 24,-11 24,-24 0,-13 -11,-23 -24,-23 -13,0 -23,10 -23,23z" />
  <path id="path71564" class="fil0 str0" d="M455 178c-22,0 -39,-18 -39,-40 0,-22 17,-40 39,-40 22,0 40,18 40,40 0,22 -18,40 -40,40zm0 -92c-29,0 -52,23 -52,52 0,29 23,52 52,52 29,0 52,-23 52,-52 0,-29 -23,-52 -52,-52z" />
  <path id="path71566" class="fil0 str0" d="M455 115c-13,0 -23,10 -23,23 0,13 10,24 23,24 13,0 24,-11 24,-24 0,-13 -11,-23 -24,-23z" />
  <path id="path71568" class="fil0 str0" d="M791 555c-13,0 -24,-11 -24,-25 0,-14 11,-25 24,-25 14,0 25,11 25,25 0,14 -11,25 -25,25zm0 -57c-18,0 -32,14 -32,32 0,18 14,33 32,33 18,0 33,-15 33,-33 0,-18 -15,-32 -33,-32z" />
  <g>
   <path id="path71572" class="fil0" d="M166 162c6,0 11,5 11,11 0,6 -5,10 -11,10 -6,0 -10,-4 -10,-10 0,-6 4,-11 10,-11zm0 25c8,0 14,-7 14,-14 0,-8 -6,-14 -14,-14 -7,0 -14,6 -14,14 0,7 7,14 14,14z" />
   <path id="1" class="fil0" d="M177 173l-1 0 0 0 0 -1 0 0 0 -1 0 0 0 -1 0 0 0 -1 -1 0 0 -1 0 0 0 0 0 -1 -1 0 0 -1 0 0 -1 0 0 -1 0 0 -1 0 0 0 -1 -1 0 0 0 0 -1 0 0 -1 -1 0 0 0 -1 0 0 0 -1 0 0 0 -1 0 0 -1 1 0 0 0 1 0 0 0 1 0 1 0 0 0 1 1 0 0 0 0 1 0 0 1 1 0 0 0 1 1 0 0 0 0 1 1 0 0 0 1 1 0 0 1 0 0 0 1 1 0 0 1 0 0 0 1 0 0 0 1 0 0 0 1 0 0zm-11 11l0 -1 0 0 1 0 0 0 1 0 0 0 1 -1 0 0 1 0 0 0 1 0 0 0 0 -1 1 0 0 0 1 -1 0 0 0 0 1 -1 0 0 0 0 1 -1 0 0 0 0 0 -1 0 0 1 -1 0 0 0 -1 0 0 0 -1 0 0 0 -1 0 0 1 0 0 0 0 1 0 0 0 1 0 1 0 0 0 1 -1 0 0 1 0 0 0 0 -1 1 0 0 0 1 -1 0 0 1 0 0 -1 0 0 1 -1 0 0 0 -1 0 0 1 0 0 -1 0 0 0 -1 0 -1 1 0 0 -1 0 0 0 -1 0 0 0zm-11 -11l1 0 0 0 0 0 0 1 0 0 1 1 0 0 0 1 0 0 0 1 0 0 1 1 0 0 0 0 0 1 1 0 0 0 0 1 1 0 0 0 0 1 1 0 0 0 1 1 0 0 0 0 1 0 0 0 1 0 0 1 1 0 0 0 1 0 0 0 0 1 0 0 -1 0 0 0 -1 0 0 -1 -1 0 -1 0 0 0 -1 0 0 -1 0 0 -1 0 0 0 -1 -1 0 0 -1 0 0 -1 0 0 -1 -1 0 0 0 -1 0 0 -1 0 0 -1 0 0 0 -1 0 0 -1 -1 0 -1 0 0 0 -1 0 0 0 0zm11 -11l0 1 0 0 0 0 -1 0 0 0 -1 0 0 0 -1 0 0 0 -1 1 0 0 0 0 -1 0 0 1 -1 0 0 0 0 0 -1 1 0 0 0 0 -1 1 0 0 0 1 0 0 -1 0 0 1 0 0 0 1 0 0 0 1 -1 0 0 1 0 0 0 1 -1 0 0 -1 0 0 0 -1 0 0 1 -1 0 0 0 -1 0 0 0 -1 1 0 0 -1 0 0 0 -1 1 0 0 -1 0 0 1 0 0 -1 1 0 0 0 1 -1 0 0 0 0 1 0 0 -1 1 0 1 0 0 0 1 0 0 0 1 0 0 0 0 0zm14 11l1 0 0 0 0 1 -1 0 0 1 0 1 0 0 0 1 0 1 -1 0 0 1 0 1 -1 0 0 1 0 0 -1 1 0 0 -1 1 0 0 -1 1 0 0 -1 1 0 0 -1 0 -1 1 0 0 -1 0 0 0 -1 1 -1 0 -1 0 0 0 -1 0 -1 0 0 -1 1 0 1 0 0 0 1 0 1 0 0 -1 1 0 0 0 1 0 1 -1 0 0 1 0 0 -1 1 0 0 0 1 -1 0 0 0 -1 1 0 0 -1 1 0 0 -1 0 0 0 -1 1 -1 0 0 0 -1 0 -1 0 0 0 -1 0 -1 1 0 0 0zm-14 -13l0 -1 0 0 1 0 1 0 0 0 1 0 1 0 1 0 0 0 1 1 0 0 1 0 1 1 0 0 1 0 0 1 1 0 0 1 1 0 0 1 1 0 0 1 0 0 1 1 0 1 0 0 1 1 0 1 0 0 0 1 0 1 0 0 1 1 0 1 -1 0 -1 -1 0 -1 0 0 0 -1 0 -1 0 0 0 -1 -1 0 0 -1 0 -1 0 0 -1 -1 0 0 -1 -1 0 0 0 -1 -1 0 0 0 -1 -1 0 0 -1 -1 0 0 -1 0 -1 0 0 -1 -1 0 0 0 -1 0 -1 0 0 0 -1 0 -1 0 0 0zm-13 13l-1 0 0 0 0 -1 0 -1 0 0 0 -1 0 -1 1 0 0 -1 0 -1 0 0 1 -1 0 -1 0 0 1 -1 0 0 1 -1 0 0 1 -1 0 0 1 -1 0 0 1 0 0 -1 1 0 1 0 0 -1 1 0 1 0 0 0 1 0 1 0 1 0 0 0 0 1 0 0 -1 0 -1 0 0 0 -1 0 -1 0 0 0 -1 1 0 0 -1 0 -1 0 0 1 -1 0 0 1 -1 0 0 0 -1 1 0 0 0 1 -1 0 0 1 0 0 -1 1 0 1 0 0 0 1 -1 0 0 1 0 1 0 0 0 1 0 1 0 0zm13 13l0 1 0 0 0 0 -1 0 -1 0 -1 0 0 0 -1 -1 -1 0 0 0 -1 0 -1 -1 0 0 -1 0 0 -1 -1 0 0 -1 -1 0 0 -1 -1 0 0 -1 -1 0 0 -1 0 0 -1 -1 0 -1 0 0 0 -1 -1 -1 0 0 0 -1 0 -1 0 0 0 -1 1 0 0 0 0 1 0 1 0 0 0 1 1 1 0 0 0 1 0 1 1 0 0 1 0 0 1 1 0 0 0 1 1 0 0 1 1 0 0 0 1 1 0 0 1 0 1 1 0 0 1 0 0 0 1 1 1 0 0 0 1 0 1 0 0 0 0 0z"/>
  </g>
  <path id="path71574" class="fil0 str1" d="M39 221c3,0 6,3 6,6 0,3 -3,6 -6,6 -3,0 -6,-3 -6,-6 0,-3 3,-6 6,-6zm0 18c7,0 12,-5 12,-12 0,-7 -5,-12 -12,-12 -7,0 -12,5 -12,12 0,7 5,12 12,12z" />
  <path id="path71576" class="fil0 str0" d="M657 241c-13,0 -24,-11 -24,-24 0,-14 11,-25 24,-25 14,0 25,11 25,25 0,13 -11,24 -25,24zm0 -57c-18,0 -32,15 -32,33 0,18 14,32 32,32 19,0 33,-14 33,-32 0,-18 -14,-33 -33,-33z" />
  <path id="path71578" class="fil0 str0" d="M657 224c-3,0 -6,-4 -6,-7 0,-4 3,-7 6,-7 4,0 7,3 7,7 0,3 -3,7 -7,7zm0 -22c-8,0 -14,7 -14,15 0,8 6,14 14,14 9,0 15,-6 15,-14 0,-8 -6,-15 -15,-15z" />
  <g>
   <path id="path71580" class="fil0" d="M485 372c-15,0 -27,-12 -27,-27 0,-15 12,-28 27,-28 16,0 28,13 28,28 0,15 -12,27 -28,27zm0 -63c-20,0 -36,16 -36,36 0,20 16,36 36,36 20,0 37,-16 37,-36 0,-20 -17,-36 -37,-36z" />
   <path id="1" class="fil0" d="M457 345l2 0 0 0 0 1 0 2 0 1 0 1 1 1 0 2 0 1 1 1 0 1 1 1 1 2 0 1 1 1 1 1 1 1 1 1 0 0 1 1 1 1 1 1 2 1 1 0 1 1 1 0 1 1 1 0 2 1 1 0 1 0 2 0 1 0 1 0 0 2 -1 0 -2 0 -1 0 -1 0 -2 0 -1 -1 -2 0 -1 -1 -1 0 -1 -1 -2 -1 -1 0 -1 -1 -1 -1 -1 -1 -1 -1 -1 -1 -1 -1 -1 -1 0 -1 -1 -1 -1 -2 0 -1 -1 -1 -1 -1 0 -2 0 -1 -1 -1 0 -2 0 -1 0 -2 0 -1 0 0zm28 -29l0 2 0 0 -1 0 -1 0 -2 1 -1 0 -1 0 -2 1 -1 0 -1 0 -1 1 -1 1 -1 0 -2 1 -1 1 -1 0 -1 1 0 1 -1 1 -1 1 -1 1 -1 1 0 1 -1 1 -1 1 0 2 -1 1 0 1 0 1 -1 1 0 2 0 1 0 1 0 2 -2 0 0 -2 0 -1 0 -2 0 -1 1 -1 0 -2 0 -1 1 -1 1 -2 0 -1 1 -1 1 -1 0 -1 1 -1 1 -1 1 -1 1 -1 1 -1 1 -1 1 -1 1 -1 2 0 1 -1 1 -1 1 0 2 0 1 -1 2 0 1 0 1 -1 2 0 1 0 0 0zm29 29l-2 0 0 0 0 -2 0 -1 -1 -1 0 -2 0 -1 0 -1 -1 -1 0 -1 -1 -2 0 -1 -1 -1 -1 -1 0 -1 -1 -1 -1 -1 -1 -1 -1 -1 -1 -1 -1 0 -1 -1 -1 -1 -1 0 -1 -1 -1 -1 -2 0 -1 0 -1 -1 -1 0 -2 0 -1 -1 -1 0 -2 0 0 -2 2 0 1 0 2 1 1 0 1 0 2 1 1 0 1 0 2 1 1 1 1 0 1 1 1 1 1 1 2 1 1 1 0 1 1 1 1 1 1 1 1 1 0 1 1 1 1 2 0 1 1 1 0 2 0 1 1 1 0 2 0 1 0 2 0 0zm-29 28l0 -2 0 0 2 0 1 0 1 0 2 0 1 0 1 -1 1 0 2 -1 1 0 1 -1 1 0 1 -1 1 -1 1 -1 1 -1 1 0 1 -1 1 -1 1 -1 0 -1 1 -1 1 -2 0 -1 1 -1 0 -1 1 -1 0 -2 0 -1 0 -1 1 -1 0 -2 0 -1 2 0 0 1 0 2 0 1 -1 2 0 1 0 1 -1 2 0 1 -1 1 -1 1 0 2 -1 1 -1 1 -1 1 -1 1 0 1 -1 1 -2 1 -1 1 -1 1 -1 0 -1 1 -1 1 -2 0 -1 1 -1 0 -2 1 -1 0 -1 0 -2 0 -1 0 -2 0 0 0zm-35 -28l-2 0 0 0 0 -2 0 -2 0 -2 1 -2 0 -1 1 -2 0 -2 1 -2 1 -1 1 -2 0 -1 1 -2 1 -1 2 -2 1 -1 1 -2 1 -1 2 -1 1 -1 1 -1 2 -1 2 -1 1 -1 2 -1 1 0 2 -1 2 0 2 -1 2 0 1 0 2 0 2 0 0 2 -2 0 -1 0 -2 0 -2 0 -2 1 -1 0 -2 1 -1 0 -2 1 -1 1 -2 1 -1 1 -2 1 -1 1 -1 1 -2 1 -1 1 -1 1 -1 2 -1 1 -1 2 -1 1 0 2 -1 1 -1 2 0 1 -1 2 0 2 0 1 -1 2 0 2 0 2 0 0zm35 35l0 2 0 0 -2 0 -2 0 -1 0 -2 -1 -2 0 -2 -1 -2 0 -1 -1 -2 -1 -1 0 -2 -1 -2 -1 -1 -1 -1 -1 -2 -2 -1 -1 -1 -1 -1 -1 -2 -2 -1 -1 -1 -2 0 -1 -1 -2 -1 -2 -1 -1 0 -2 -1 -2 0 -2 -1 -1 0 -2 0 -2 0 -2 2 0 0 2 0 1 1 2 0 2 0 2 1 1 0 2 1 2 1 1 0 2 1 1 1 2 1 1 1 1 1 1 1 2 2 1 1 1 1 1 2 1 1 1 2 1 1 1 2 0 1 1 2 0 1 1 2 0 2 1 2 0 1 0 2 0 0 0zm35 -35l3 0 0 0 0 2 -1 2 0 2 0 1 -1 2 0 2 -1 2 0 1 -1 2 -1 2 -1 1 -1 2 -1 1 -1 2 -1 1 -1 1 -2 1 -1 2 -1 1 -2 1 -1 1 -2 1 -2 0 -1 1 -2 1 -2 0 -1 1 -2 0 -2 1 -2 0 -2 0 -2 0 0 -2 2 0 2 0 2 0 1 -1 2 0 2 -1 1 0 2 -1 2 0 1 -1 2 -1 1 -1 1 -1 2 -1 1 -1 1 -1 1 -2 1 -1 1 -1 1 -1 1 -2 1 -1 1 -2 1 -1 0 -2 1 -2 0 -1 1 -2 0 -2 0 -2 0 -1 0 -2 0 0zm-35 -35l0 -2 0 0 2 0 2 0 2 0 2 0 2 1 1 0 2 1 2 0 1 1 2 1 2 1 1 1 2 1 1 1 1 1 2 1 1 2 1 1 1 2 1 1 1 2 1 1 1 2 1 1 0 2 1 2 0 2 1 1 0 2 0 2 1 2 0 2 -3 0 0 -2 0 -2 0 -2 0 -1 -1 -2 0 -2 -1 -1 0 -2 -1 -1 -1 -2 -1 -1 -1 -2 -1 -1 -1 -2 -1 -1 -1 -1 -1 -1 -1 -1 -2 -1 -1 -1 -1 -1 -2 -1 -1 -1 -2 -1 -2 0 -1 -1 -2 0 -2 -1 -1 0 -2 0 -2 0 -2 0 0 0z"/>
  </g>
  <g>
   <path id="path71582" class="fil0" d="M485 352c-4,0 -7,-3 -7,-7 0,-4 3,-8 7,-8 5,0 8,4 8,8 0,4 -3,7 -8,7zm0 -23c-9,0 -16,7 -16,16 0,9 7,16 16,16 9,0 17,-7 17,-16 0,-9 -8,-16 -17,-16z"/>
   <path id="1" class="fil0" d="M477 345l2 0 0 0 0 0 0 1 0 0 0 0 0 0 0 1 0 0 0 0 0 1 0 0 1 0 0 1 0 0 0 0 0 0 1 1 0 0 0 0 0 0 1 0 0 0 0 1 0 0 1 0 0 0 0 0 1 0 0 0 0 0 1 0 0 0 0 0 0 3 0 0 -1 -1 0 0 0 0 -1 0 0 0 -1 0 0 0 0 0 -1 -1 0 0 -1 0 0 0 0 0 -1 -1 0 0 0 0 0 -1 -1 0 0 0 0 -1 0 0 -1 0 0 -1 0 0 0 -1 0 0 0 0 0 -1 0 0 0 -1 0 0 0 0zm8 -9l0 2 0 0 0 0 0 0 -1 0 0 0 0 0 -1 1 0 0 0 0 -1 0 0 0 0 0 0 0 -1 1 0 0 0 0 0 0 -1 0 0 1 0 0 0 0 0 0 -1 1 0 0 0 0 0 1 0 0 0 0 0 1 0 0 0 0 0 0 0 1 -2 0 0 -1 0 0 0 0 0 -1 0 0 0 -1 0 0 0 -1 0 0 1 0 0 -1 0 0 0 0 1 -1 0 0 0 0 0 -1 1 0 0 0 0 0 1 -1 0 0 1 0 0 0 0 0 1 0 0 -1 1 0 0 0 0 0 1 0 0 0 0 0zm9 9l-2 0 0 0 0 -1 0 0 0 0 0 0 0 -1 0 0 -1 0 0 -1 0 0 0 0 0 -1 0 0 0 0 -1 0 0 -1 0 0 0 0 -1 0 0 0 0 -1 0 0 -1 0 0 0 0 0 0 0 -1 0 0 -1 0 0 -1 0 0 0 0 0 -1 0 0 -2 1 0 0 0 1 0 0 0 0 0 1 1 0 0 1 0 0 0 0 0 1 0 0 1 0 0 1 0 0 0 0 1 1 0 0 0 0 1 0 0 1 0 0 1 0 0 0 0 0 1 1 0 0 1 0 0 0 1 0 0 0 0 0 1 0 0zm-9 9l0 -3 0 0 1 0 0 0 0 0 1 0 0 0 0 0 1 0 0 0 0 0 0 0 1 -1 0 0 0 0 0 0 1 0 0 0 0 -1 0 0 1 0 0 0 0 -1 0 0 0 0 0 -1 0 0 1 0 0 -1 0 0 0 0 0 0 0 -1 0 0 2 0 0 0 0 1 0 0 0 1 0 0 0 0 -1 1 0 0 0 1 0 0 0 0 -1 1 0 0 0 0 0 1 -1 0 0 0 0 1 -1 0 0 0 0 0 -1 0 0 1 0 0 -1 0 0 0 -1 0 0 0 0 0 -1 0 0 1 -1 0 0 0zm-15 -9l-2 0 0 0 0 -1 0 -1 0 -1 0 -1 0 0 1 -1 0 -1 0 -1 1 -1 0 0 0 -1 1 -1 0 -1 1 0 0 -1 1 0 1 -1 0 -1 1 0 1 -1 0 0 1 0 1 -1 1 0 0 0 1 -1 1 0 1 0 1 0 1 0 0 0 1 -1 0 3 -1 0 0 0 -1 0 -1 0 -1 0 0 0 -1 0 -1 1 0 0 -1 0 -1 1 0 0 -1 1 0 0 -1 1 -1 0 0 1 -1 0 0 1 0 0 -1 1 0 1 0 0 -1 1 0 1 0 0 -1 1 0 1 0 1 0 0 0 1 0 1 0 0zm15 15l0 2 0 0 -1 0 0 0 -1 0 -1 0 -1 0 -1 -1 -1 0 0 0 -1 -1 -1 0 -1 0 0 -1 -1 0 -1 -1 0 0 -1 -1 -1 0 0 -1 -1 -1 0 0 -1 -1 0 -1 0 -1 -1 0 0 -1 0 -1 -1 -1 0 -1 0 -1 0 0 0 -1 0 -1 2 0 0 1 0 0 0 1 0 1 0 1 1 0 0 1 0 1 1 0 0 1 0 1 1 0 0 1 0 1 1 0 0 1 1 0 1 1 0 0 1 1 0 0 1 0 1 1 0 0 1 0 1 0 0 1 1 0 1 0 1 0 0 0 1 0 0 0zm16 -15l2 0 0 0 0 1 0 1 -1 0 0 1 0 1 0 1 0 1 -1 1 0 0 0 1 -1 1 0 1 -1 0 0 1 -1 1 0 0 -1 1 -1 0 0 1 -1 0 -1 1 0 0 -1 0 -1 1 -1 0 -1 0 0 1 -1 0 -1 0 -1 0 -1 0 -1 0 0 -2 1 0 1 0 1 0 0 0 1 0 1 -1 1 0 0 0 1 0 1 -1 0 0 1 0 0 -1 1 0 1 -1 0 0 1 -1 0 0 1 -1 0 -1 0 0 1 -1 0 -1 0 0 1 -1 0 -1 0 0 0 -1 0 -1 0 -1 1 0 0 -1 0 0zm-16 -15l0 -3 0 0 1 1 1 0 1 0 1 0 1 0 0 0 1 1 1 0 1 0 1 1 0 0 1 0 1 1 0 0 1 1 1 1 0 0 1 1 0 0 1 1 0 1 1 1 0 0 0 1 1 1 0 1 0 1 0 0 0 1 1 1 0 1 0 1 -2 0 0 -1 -1 -1 0 0 0 -1 0 -1 0 -1 0 0 -1 -1 0 -1 0 0 -1 -1 0 -1 0 0 -1 -1 0 0 -1 -1 0 0 -1 -1 -1 0 0 -1 -1 0 0 -1 -1 0 -1 0 0 -1 -1 0 -1 0 -1 0 0 0 -1 0 -1 0 -1 0 0 0z"/>
  </g>
  <path id="path71592" class="fil0 str0" d="M107 515c-14,0 -25,-11 -25,-25 0,-14 11,-25 25,-25 14,0 25,11 25,25 0,14 -11,25 -25,25zm0 -58c-18,0 -33,15 -33,33 0,18 15,33 33,33 18,0 33,-15 33,-33 0,-18 -15,-33 -33,-33z"/>
  <g>
  </g>
  <g>
  </g>
  <g>
  </g>
  <g>
  </g>
  <g>
  </g>
  <g>
  </g>
  <g>
  </g>
  <g>
  </g>
  <g>
  </g>
  <g>
  </g>
  <g>
  </g>
  <g>
  </g>
  <g>
  </g>
  <g>
  </g>
  <g>
  </g>
  <g>
  </g>
  <g>
  </g>
  <g>
  </g>
  <g>
  </g>
  <g>
  </g>
  <g>
  </g>
  <g>
  </g>
  <g>
  </g>
  <g>
  </g>
  <g>
  </g>
  <g>
  </g>
  <g>
  </g>
  <g>
  </g>
  <g>
  </g>
  <g>
  </g>
  <g>
  </g>
  <g>
  </g>
  <g>
  </g>
  <g>
  </g>
  <g>
  </g>
  <g>
  </g>
  <g>
  </g>
  <g>
  </g>
  <g>
  </g>
  <g>
  </g>
  <g>
  </g>
  <g>
  </g>
  <g>
  </g>
  <g>
  </g>
  <g>
  </g>
  <g>
  </g>
  <g>
  </g>
  <g>
  </g>
  <g>
  </g>
  <g>
  </g>
  <g>
  </g>
  <g>
  </g>
  <g>
  </g>
  <g>
  </g>
  <g>
  </g>
  <g>
  </g>
  <g>
  </g>
  <g>
  </g>
  <g>
  </g>
  <g>
  </g>
  <g>
  </g>
  <g>
  </g>
  <g>
  </g>
  <g>
  </g>
  <g>
  </g>
  <g>
  </g>
  <g>
  </g>
  <g>
  </g>
  <g>
  </g>
  <g>
  </g>
  <g>
  </g>
  <g>
  </g>
  <g>
  </g>
  <g>
  </g>
  <g>
  </g>
  <g>
  </g>
  <g>
  </g>
  <g>
  </g>
  <g>
  </g>
  <g>
  </g>
  <g>
  </g>
  <g>
  </g>
  <g>
  </g>
  <g>
  </g>
  <g>
  </g>
  <g>
  </g>
  <g>
  </g>
  <g>
  </g>
  <g>
  </g>
  <g>
  </g>
  <g>
  </g>
  <g>
  </g>
  <g>
  </g>
  <g>
  </g>
  <g>
  </g>
  <g>
  </g>
  <g>
  </g>
  <g>
  </g>
  <g>
  </g>
  <g>
  </g>
  <g>
  </g>
  <g>
  </g>
  <g>
  </g>
  <g>
  </g>
  <g>
  </g>
  <g>
  </g>
  <g>
  </g>
  <g>
  </g>
  <g>
  </g>
  <g>
  </g>
  <g>
  </g>
  <g>
  </g>
  <g>
  </g>
  <g>
  </g>
  <g>
  </g>
  <g>
  </g>
  <g>
  </g>
  <g>
  </g>
  <g>
  </g>
  <g>
  </g>
  <g>
  </g>
  <g>
  </g>
  <g>
  </g>
  <g>
  </g>
  <g>
  </g>
  <g>
  </g>
  <g>
  </g>
  <g>
  </g>
  <g>
  </g>
  <g>
  </g>
  <g>
  </g>
  <g>
  </g>
  <g>
  </g>
  <g>
  </g>
  <g>
  </g>
  <g>
  </g>
  <g>
  </g>
  <g>
  </g>
  <g>
  </g>
  <g>
  </g>
  <g>
  </g>
  <g>
  </g>
  <g>
  </g>
  <g>
  </g>
  <g>
  </g>
  <g>
  </g>
  <g>
  </g>
  <g>
  </g>
  <g>
  </g>
  <g>
  </g>
  <g>
  </g>
  <g>
  </g>
  <g>
  </g>
  <g>
  </g>
  <g>
  </g>
  <g>
  </g>
  <g>
  </g>
  <g>
  </g>
  <g>
  </g>
  <g>
  </g>
  <g>
  </g>
  <g>
  </g>
  <g>
  </g>
  <g>
  </g>
  <g>
  </g>
  <g>
  </g>
  <g>
  </g>
  <g>
  </g>
  <g>
  </g>
  <g>
  </g>
  <g>
  </g>
  <g>
   <path id="path71544_0" class="fil0" d="M877 306c0,9 -7,17 -16,17 -10,0 -17,-8 -17,-17 0,-10 7,-17 17,-17 9,0 16,7 16,17zm-39 0c0,12 10,22 23,22 12,0 22,-10 22,-22 0,-13 -10,-23 -22,-23 -13,0 -23,10 -23,23z" inkscape:connector-curvature="0"/>
   <path id="1" class="fil0" d="M861 324l0 -2 0 0 0 -1 1 0 1 0 1 0 0 0 1 0 1 0 1 -1 0 0 1 0 1 -1 0 0 1 -1 1 0 0 -1 1 0 0 -1 1 0 0 -1 1 0 0 -1 0 -1 1 0 0 -1 0 -1 1 -1 0 0 0 -1 0 -1 0 -1 0 -1 0 0 2 0 0 1 0 1 0 0 0 1 0 1 0 1 -1 1 0 1 0 0 -1 1 0 1 -1 1 0 0 -1 1 0 1 -1 0 0 1 -1 1 -1 0 0 1 -1 0 -1 0 -1 1 -1 0 0 1 -1 0 -1 0 -1 0 -1 0 -1 1 -1 0 0 0 0 0zm-18 -18l2 0 0 0 0 0 0 1 0 1 0 1 0 1 0 0 1 1 0 1 0 1 1 0 0 1 0 1 1 0 0 1 1 0 0 1 1 0 0 1 1 0 1 1 0 0 1 1 1 0 0 0 1 1 1 0 1 0 0 0 1 0 1 0 1 0 1 1 0 2 -1 0 -1 0 -1 -1 -1 0 -1 0 -1 0 -1 0 0 -1 -1 0 -1 -1 -1 0 -1 0 0 -1 -1 0 -1 -1 0 -1 -1 0 0 -1 -1 -1 0 0 -1 -1 0 -1 -1 -1 0 0 0 -1 -1 -1 0 -1 0 -1 0 -1 0 0 0 -1 0 -1 0 0zm18 -18l0 2 0 0 -1 0 -1 0 -1 0 -1 0 0 0 -1 1 -1 0 -1 0 0 0 -1 1 -1 0 0 1 -1 0 -1 0 0 1 -1 0 0 1 -1 1 0 0 -1 1 0 0 0 1 -1 1 0 1 0 0 -1 1 0 1 0 0 0 1 0 1 0 1 0 1 -2 0 0 -1 0 -1 0 -1 0 -1 0 -1 0 -1 1 0 0 -1 0 -1 1 -1 0 -1 1 0 0 -1 1 -1 0 0 1 -1 0 -1 1 0 1 -1 0 0 1 -1 1 0 1 0 1 -1 0 0 1 0 1 -1 1 0 1 0 1 0 1 0 1 0 0 0zm17 18l-2 0 0 0 0 -1 0 -1 0 -1 0 -1 0 0 0 -1 -1 -1 0 0 0 -1 -1 -1 0 -1 0 0 -1 -1 0 0 -1 -1 0 -1 -1 0 0 -1 -1 0 -1 0 0 -1 -1 0 -1 -1 0 0 -1 0 -1 0 -1 -1 0 0 -1 0 -1 0 -1 0 0 0 0 -2 0 0 1 0 1 0 1 0 1 0 1 1 1 0 0 0 1 1 1 0 1 0 1 1 0 0 1 1 1 0 0 1 1 1 0 0 1 1 0 1 1 0 0 1 1 1 0 1 0 1 1 0 0 1 0 1 0 1 0 1 0 1 0 1 0 0zm-17 21l0 2 0 0 -2 0 -1 0 -1 0 -1 -1 -1 0 -1 0 -1 0 -2 -1 -1 0 -1 -1 -1 0 0 -1 -1 -1 -1 0 -1 -1 -1 -1 -1 -1 0 -1 -1 0 -1 -1 0 -1 -1 -1 0 -1 -1 -1 0 -1 -1 -1 0 -2 0 -1 0 -1 -1 -1 0 -1 0 -1 2 0 0 1 0 1 1 1 0 1 0 1 0 1 1 1 0 1 0 1 1 1 0 1 1 1 1 0 0 1 1 1 1 1 0 0 1 1 1 1 1 0 1 1 0 0 1 1 1 0 1 1 1 0 1 0 1 0 1 1 1 0 1 0 2 0 0 0zm21 -21l2 0 0 0 0 1 0 1 -1 1 0 1 0 1 0 2 -1 1 0 1 -1 1 0 1 -1 1 0 1 -1 1 -1 0 0 1 -1 1 -1 1 -1 1 -1 0 0 1 -1 1 -1 0 -1 1 -1 0 -1 1 -2 0 -1 0 -1 0 -1 1 -1 0 -1 0 -1 0 0 -2 1 0 1 0 1 0 1 -1 1 0 1 0 1 0 1 -1 1 0 1 -1 0 0 1 -1 1 0 1 -1 1 -1 0 0 1 -1 1 -1 0 -1 1 0 1 -1 0 -1 1 -1 0 -1 0 -1 1 -1 0 -1 0 -1 0 -1 1 -1 0 -1 0 -1 0 0zm-21 -21l0 -3 0 0 1 0 1 1 1 0 1 0 1 0 1 0 2 1 1 0 1 1 1 0 1 1 1 0 0 1 1 1 1 0 1 1 1 1 0 1 1 1 1 1 0 1 1 1 0 1 1 1 0 1 1 1 0 1 0 1 0 1 1 1 0 1 0 2 -2 0 0 -1 0 -1 -1 -2 0 -1 0 -1 0 -1 -1 -1 0 -1 0 -1 -1 0 0 -1 -1 -1 -1 -1 0 -1 -1 -1 -1 0 0 -1 -1 -1 -1 0 -1 -1 -1 0 0 -1 -1 0 -1 -1 -1 0 -1 -1 -1 0 -1 0 -1 0 -1 0 -1 0 -1 0 0 0zm-22 21l-2 0 0 0 0 -2 0 -1 1 -1 0 -1 0 -1 0 -1 1 -1 0 -1 1 -1 0 -1 1 -1 0 -1 1 -1 1 -1 0 -1 1 -1 1 -1 1 0 1 -1 1 -1 0 0 1 -1 1 0 1 -1 2 0 1 -1 1 0 1 0 1 0 1 0 1 -1 2 0 0 3 -2 0 -1 0 -1 0 -1 0 -1 0 -1 0 -1 1 -1 0 -1 1 -1 0 0 1 -1 0 -1 1 -1 0 -1 1 0 1 -1 0 -1 1 0 1 -1 1 -1 1 0 1 -1 0 0 1 0 1 -1 1 0 1 0 1 0 1 -1 2 0 1 0 1 0 0z"/>
  </g>
  <g>
   <path id="path71546_1" class="fil0" d="M865 306c0,2 -2,4 -4,4 -3,0 -5,-2 -5,-4 0,-3 2,-5 5,-5 2,0 4,2 4,5zm-14 0c0,5 4,10 10,10 5,0 10,-5 10,-10 0,-6 -5,-10 -10,-10 -6,0 -10,4 -10,10z" inkscape:connector-curvature="0"/>
   <path id="1" class="fil0" d="M861 311l0 -2 0 0 0 0 0 0 0 0 0 0 0 0 1 0 0 0 0 0 0 0 0 0 0 0 1 0 0 0 0 -1 0 0 0 0 0 0 0 0 0 0 1 0 0 0 0 -1 0 0 0 0 0 0 0 0 0 0 0 -1 0 0 0 0 0 0 0 0 2 0 0 0 0 0 0 1 0 0 0 0 0 0 0 1 0 0 0 0 0 0 -1 1 0 0 0 0 0 0 0 1 0 0 -1 0 0 0 0 0 0 0 -1 1 0 0 0 0 0 0 -1 0 0 0 0 0 0 0 -1 0 0 0 0 0 0 0 0 0zm-6 -5l2 0 0 0 0 0 0 0 0 0 0 0 0 1 0 0 0 0 0 0 0 0 0 0 0 1 0 0 1 0 0 0 0 0 0 0 0 0 0 0 0 1 0 0 1 0 0 0 0 0 0 0 0 0 0 0 1 0 0 0 0 0 0 0 0 0 1 0 0 2 -1 0 0 0 0 0 -1 0 0 0 0 0 0 0 -1 0 0 0 0 0 0 0 -1 -1 0 0 0 0 0 0 -1 0 0 0 0 -1 0 0 0 0 0 0 -1 -1 0 0 0 0 0 0 0 -1 0 0 0 0 0 0 0 -1 0 0 0 0 0 0zm6 -6l0 2 0 0 -1 0 0 0 0 0 0 0 0 0 -1 0 0 0 0 0 0 0 0 0 0 1 -1 0 0 0 0 0 0 0 0 0 0 0 0 0 0 0 -1 1 0 0 0 0 0 0 0 0 0 0 0 1 0 0 0 0 0 0 0 0 0 0 0 1 -2 0 0 -1 0 0 0 0 0 0 0 -1 0 0 0 0 0 -1 0 0 0 0 1 0 0 -1 0 0 0 0 0 0 0 0 1 -1 0 0 0 0 0 0 1 0 0 0 0 0 0 -1 1 0 0 0 0 0 0 0 1 0 0 0 0 0 1 0 0 0zm5 6l-2 0 0 0 0 -1 0 0 0 0 0 0 0 0 0 0 0 -1 0 0 0 0 0 0 0 0 0 0 -1 -1 0 0 0 0 0 0 0 0 0 0 0 0 0 0 -1 0 0 -1 0 0 0 0 0 0 0 0 -1 0 0 0 0 0 0 0 0 0 0 0 0 -2 0 0 0 0 0 0 1 0 0 0 0 0 0 0 1 0 0 1 0 0 0 0 1 0 0 0 0 0 0 0 1 1 0 0 0 0 0 0 0 0 0 1 1 0 0 0 0 0 0 1 0 0 0 0 0 1 0 0 0 0 0 0 0 1 0 0zm-5 9l0 2 0 0 -1 0 -1 0 0 0 -1 0 0 -1 -1 0 0 0 -1 0 0 0 -1 -1 0 0 -1 0 0 0 -1 -1 0 0 0 -1 -1 0 0 0 0 -1 -1 0 0 -1 0 0 0 -1 -1 0 0 -1 0 0 0 -1 0 0 0 -1 0 0 -1 -1 0 0 3 0 0 0 0 1 0 0 0 0 0 1 0 0 0 1 0 0 0 1 1 0 0 0 0 1 0 0 1 0 0 1 0 0 0 0 1 1 0 0 1 0 0 0 0 1 1 0 0 0 0 0 1 0 0 0 1 0 0 1 1 0 0 0 1 0 0 0zm8 -9l3 0 0 0 0 0 0 1 -1 0 0 1 0 0 0 1 0 0 0 1 -1 0 0 1 0 0 0 1 -1 0 0 1 0 0 -1 0 0 1 0 0 -1 1 0 0 -1 0 0 0 -1 1 0 0 -1 0 0 0 -1 0 0 1 -1 0 0 0 -1 0 0 0 0 -2 0 0 0 0 1 0 0 -1 1 0 0 0 1 0 0 0 0 0 1 0 0 -1 1 0 0 0 0 0 1 -1 0 0 0 0 0 -1 1 0 0 0 0 -1 0 0 1 0 0 -1 0 0 0 -1 0 0 0 -1 0 0 0 0 0 -1 0 0 0 0zm-8 -9l0 -2 0 0 0 0 1 0 0 0 1 0 0 0 1 0 0 0 1 0 0 1 1 0 0 0 1 1 0 0 1 0 0 0 0 1 1 0 0 1 0 0 1 0 0 1 0 0 0 1 1 0 0 1 0 0 0 1 0 0 0 1 1 1 0 0 0 1 -3 0 0 -1 0 0 0 -1 0 0 0 -1 0 0 0 0 0 -1 0 0 -1 -1 0 0 0 0 0 -1 -1 0 0 0 0 -1 0 0 -1 0 0 -1 0 0 -1 0 0 0 -1 0 0 -1 0 0 -1 0 0 0 -1 0 0 0 -1 0 0 0 0 0 0 0zm-9 9l-3 0 0 0 0 -1 1 0 0 -1 0 -1 0 0 0 -1 0 0 0 -1 1 0 0 -1 0 0 0 -1 1 0 0 0 0 -1 1 0 0 -1 0 0 1 0 0 0 1 -1 0 0 1 0 0 -1 1 0 0 0 1 0 0 0 1 0 0 0 1 0 1 0 0 2 -1 0 0 0 -1 0 0 0 -1 0 0 0 -1 0 0 0 0 1 -1 0 0 0 0 0 -1 0 0 1 -1 0 0 0 0 1 0 0 -1 0 0 1 0 0 0 0 -1 1 0 0 0 1 0 0 0 0 0 1 0 0 0 1 0 0 0 1 0 0z"/>
  </g>
  <g>
   <path id="path69444_2" class="fil0" d="M904 369c1,4 6,7 11,5 4,-1 7,-6 5,-11 -1,-4 -6,-7 -11,-5 -4,1 -7,6 -5,11l0 0zm0 0l0 0 0 0z" inkscape:connector-curvature="0"/>
   <path id="1" class="fil0" d="M915 373l0 2 0 0 0 0 -1 0 0 1 -1 0 0 0 -1 0 0 0 -1 0 0 0 -1 0 0 0 0 -1 -1 0 0 0 -1 0 0 0 -1 0 0 -1 0 0 -1 0 0 0 -1 -1 0 0 0 0 -1 -1 0 0 0 -1 0 0 -1 0 0 -1 0 0 0 -1 2 0 0 0 0 0 0 1 0 0 1 0 0 1 0 0 0 0 1 0 0 1 0 0 0 0 1 0 0 1 0 0 1 0 0 0 0 0 1 0 0 0 0 1 1 0 0 0 1 0 0 0 0 0 1 0 0 0 0 0 1 -1 0 0 1 0 0 0zm0 2l0 0 1 0 -1 0zm4 -12l2 0 0 0 0 0 0 1 1 0 0 1 0 0 0 1 0 0 0 1 0 0 0 1 0 0 -1 1 0 0 0 0 0 1 0 0 0 1 -1 0 0 0 0 1 0 0 -1 1 0 0 0 0 -1 1 0 0 -1 0 0 0 0 1 -1 0 0 0 -1 0 0 -2 0 0 0 0 1 0 0 0 0 -1 1 0 0 0 0 0 0 -1 1 0 0 0 0 0 0 -1 1 0 0 0 0 -1 0 0 0 0 0 -1 0 0 1 0 0 -1 0 0 0 0 0 -1 0 0 0 -1 0 0 0 0 -1 -1 0 0 0 -1 0 0zm0 0l0 0 0 0 0 0zm-9 -4l-1 -2 0 0 0 0 1 0 0 -1 1 0 0 0 1 0 0 0 1 0 0 0 1 0 0 0 1 1 0 0 0 0 1 0 0 0 1 0 0 1 0 0 1 0 0 0 1 1 0 0 0 0 1 1 0 0 0 1 0 0 1 0 0 1 0 0 0 1 -2 0 0 0 0 0 0 -1 0 0 -1 0 0 -1 0 0 0 0 -1 0 0 -1 0 0 0 0 -1 0 0 -1 0 0 -1 0 0 0 0 0 -1 0 0 0 0 0 -1 -1 0 0 0 0 -1 0 0 0 -1 0 0 0 0 0 -1 1 0 0 0 0 0 0zm0 0l0 0 0 0 0 0zm-5 10l-2 0 0 0 0 -1 -1 0 0 -1 0 0 0 -1 0 0 0 -1 0 0 0 -1 0 0 1 0 0 -1 0 0 0 -1 0 0 0 -1 1 0 0 0 0 -1 1 0 0 -1 0 0 0 0 1 -1 0 0 1 0 0 0 0 -1 1 0 0 0 1 0 1 2 -1 0 0 0 -1 0 0 0 0 1 -1 0 0 0 0 0 0 1 -1 0 0 0 0 0 0 1 -1 0 0 0 0 1 0 0 0 0 0 1 0 0 0 0 -1 1 0 0 0 1 0 0 0 0 0 1 0 0 0 0 1 1 0 0 0 1zm-1 0l0 0 0 0 0 0zm0 0l0 0 0 0 0 0z"/>
  </g>
  <g>
   <path id="path71568_3" class="fil0" d="M293 57c-9,9 -23,9 -32,0 -8,-9 -8,-23 0,-32 9,-8 23,-8 32,0 9,9 9,23 0,32zm-37 -37c-11,12 -11,31 0,42 12,12 31,12 42,0 12,-11 12,-30 0,-42 -11,-11 -30,-11 -42,0z" inkscape:connector-curvature="0"/>
   <path id="1" class="fil0" d="M261 58l1 -2 0 0 1 1 1 1 1 1 0 0 1 1 1 0 1 1 1 0 1 1 1 0 1 0 1 0 1 1 1 0 1 0 1 0 1 0 1 0 1 0 1 -1 1 0 1 0 1 0 1 -1 1 0 1 -1 1 0 1 -1 1 0 1 -1 1 -1 1 -1 1 2 -1 1 -1 0 -1 1 -1 1 -1 0 -1 1 -1 0 -1 1 -1 0 -1 1 -1 0 -1 0 -1 0 -1 1 -2 0 -1 0 -1 0 -1 0 -1 -1 -1 0 -1 0 -1 0 -1 -1 -2 0 -1 -1 -1 0 -1 -1 -1 0 -1 -1 -1 -1 0 0 -1 -1 0 0zm0 -33l1 1 0 0 -1 1 0 1 -1 0 -1 1 0 1 -1 1 0 1 -1 1 0 1 0 1 -1 1 0 1 0 1 0 1 0 1 0 1 0 1 0 1 0 1 0 1 0 1 1 1 0 1 0 1 1 1 0 1 1 1 0 1 1 1 1 1 0 1 1 0 -1 2 -1 -1 -1 -1 -1 -1 0 -1 -1 -1 0 -1 -1 -1 0 -1 -1 -1 0 -1 0 -1 -1 -1 0 -1 0 -2 0 -1 0 -1 0 -1 0 -1 0 -1 0 -1 1 -1 0 -1 0 -2 1 -1 0 -1 1 -1 0 -1 1 -1 0 -1 1 -1 1 -1 1 0 0 0zm33 0l-1 1 0 0 -1 -1 -1 -1 -1 0 -1 -1 -1 0 -1 -1 -1 0 -1 -1 -1 0 -1 0 -1 -1 -1 0 -1 0 -1 0 -1 0 -1 0 -1 0 -1 0 -1 0 -1 0 -1 0 -1 1 -1 0 -1 0 -1 1 -1 0 -1 1 -1 0 0 1 -1 0 -1 1 -1 1 -1 -1 1 -1 0 -1 1 -1 1 0 1 -1 1 -1 1 0 1 -1 2 0 1 0 1 -1 1 0 1 0 1 0 1 0 1 0 1 0 2 0 1 0 1 0 1 0 1 1 1 0 1 0 1 1 1 0 1 1 1 1 1 0 1 1 1 1 1 1 0 0zm0 33l-1 -2 0 0 0 0 1 -1 1 -1 0 -1 1 -1 0 -1 1 -1 0 -1 1 -1 0 -1 0 -1 0 -1 1 -1 0 -1 0 -1 0 -1 0 -1 0 -1 0 -1 -1 -1 0 -1 0 -1 0 -1 -1 -1 0 -1 -1 -1 0 -1 -1 -1 0 -1 -1 0 -1 -1 0 -1 1 -1 1 1 0 0 1 1 1 1 0 1 1 1 1 1 0 1 0 1 1 2 0 1 0 1 0 1 1 1 0 1 0 1 0 1 0 1 -1 2 0 1 0 1 0 1 -1 1 0 1 0 1 -1 1 -1 1 0 1 -1 1 -1 1 0 1 -1 1 0 0zm-37 3l-1 2 0 0 -1 -1 -1 -2 -1 -1 -1 -1 -1 -1 -1 -2 0 -1 -1 -1 -1 -2 0 -1 0 -2 -1 -1 0 -1 0 -2 0 -1 0 -2 0 -1 0 -2 0 -1 0 -2 1 -1 0 -1 0 -2 1 -1 1 -2 0 -1 1 -1 1 -2 1 -1 1 -1 1 -1 1 -1 1 1 -1 1 -1 1 -1 1 -1 1 0 2 -1 1 -1 1 0 1 -1 2 0 1 -1 1 0 2 0 1 0 1 0 2 0 1 0 2 0 1 0 1 0 2 0 1 1 1 0 2 1 1 0 1 1 2 1 1 0 1 1 1 1 1 1 1 1 1 0 0zm41 0l1 2 0 0 -1 1 -1 1 -2 1 -1 1 -1 0 -2 1 -1 1 -1 0 -2 1 -1 0 -1 1 -2 0 -1 0 -2 1 -1 0 -2 0 -1 0 -2 0 -1 -1 -2 0 -1 0 -1 -1 -2 0 -1 -1 -2 0 -1 -1 -1 -1 -2 0 -1 -1 -1 -1 -1 -1 -1 -1 1 -2 1 1 1 1 1 1 2 1 1 1 1 1 1 0 2 1 1 0 1 1 1 0 2 0 1 1 2 0 1 0 1 0 2 0 1 0 1 0 2 -1 1 0 1 0 2 -1 1 0 1 -1 2 0 1 -1 1 -1 1 -1 1 -1 1 -1 2 -1 0 0zm0 -40l1 -1 0 0 1 1 1 1 1 1 1 1 1 2 0 1 1 1 1 2 0 1 1 2 0 1 0 1 0 2 1 1 0 2 0 1 0 2 0 1 -1 2 0 1 0 1 0 2 -1 1 0 2 -1 1 -1 1 0 2 -1 1 -1 1 -1 1 -1 2 -1 1 -1 -2 1 -1 0 -1 1 -1 1 -1 1 -1 1 -1 0 -2 1 -1 0 -1 1 -2 0 -1 0 -1 1 -2 0 -1 0 -1 0 -2 0 -1 0 -2 0 -1 -1 -1 0 -2 0 -1 -1 -1 0 -2 -1 -1 0 -1 -1 -1 -1 -2 -1 -1 -1 -1 0 -1 -1 -1 0 0zm-41 0l-1 -1 0 0 1 -1 1 -1 1 -1 1 -1 2 -1 1 -1 1 0 2 -1 1 -1 2 0 1 0 1 -1 2 0 1 0 2 0 1 0 2 0 1 0 2 0 1 0 2 1 1 0 1 0 2 1 1 1 1 0 2 1 1 1 1 1 2 1 1 1 1 1 -1 1 -2 -1 -1 -1 -1 -1 -1 -1 -1 0 -1 -1 -2 -1 -1 0 -1 -1 -2 0 -1 -1 -1 0 -2 0 -1 0 -1 0 -2 0 -1 0 -1 0 -2 0 -1 0 -2 0 -1 1 -1 0 -1 1 -2 0 -1 1 -1 1 -1 0 -2 1 -1 1 -1 1 -1 1 0 0z"/>
  </g>
  <g>
   <path id="path71576_4" class="fil0" d="M998 479c-9,10 -25,10 -35,0 -9,-9 -9,-25 0,-35 10,-9 26,-9 35,0 10,10 10,26 0,35zm-40 -40c-13,13 -13,33 0,46 13,13 33,13 46,0 13,-13 13,-33 0,-46 -13,-13 -34,-13 -46,0z" inkscape:connector-curvature="0"/>
   <path id="1" class="fil0" d="M963 480l1 -1 0 0 1 1 1 0 1 1 1 1 1 0 1 1 1 0 1 1 1 0 1 1 1 0 1 0 1 0 2 1 1 0 1 0 1 0 1 0 1 -1 1 0 1 0 2 0 1 -1 1 0 1 -1 1 0 1 -1 1 0 1 -1 1 -1 1 0 1 -1 1 1 -1 1 -1 1 -1 1 -1 1 -1 0 -1 1 -1 0 -1 1 -2 0 -1 1 -1 0 -1 0 -1 0 -2 1 -1 0 -1 0 -1 0 -2 0 -1 -1 -1 0 -1 0 -2 0 -1 -1 -1 0 -1 -1 -1 0 -1 -1 -1 0 -1 -1 -1 -1 -1 -1 -1 -1 0 0zm0 -36l1 1 0 0 -1 1 -1 1 0 1 -1 1 -1 1 0 1 -1 1 0 1 -1 1 0 1 0 1 -1 1 0 1 0 2 0 1 0 1 0 1 0 1 0 1 0 1 1 2 0 1 0 1 1 1 0 1 1 1 0 1 1 1 1 1 0 1 1 1 1 1 -1 1 -1 -1 -1 -1 -1 -1 -1 -1 0 -1 -1 -1 -1 -1 0 -1 -1 -2 0 -1 0 -1 -1 -1 0 -1 0 -2 0 -1 0 -1 0 -1 0 -2 0 -1 0 -1 1 -1 0 -1 0 -2 1 -1 0 -1 1 -1 1 -1 0 -1 1 -1 1 -1 1 -1 1 -1 0 0zm36 0l-1 1 0 0 -1 -1 -1 -1 -1 0 -1 -1 -1 -1 -1 0 -1 -1 -1 0 -1 -1 -1 0 -2 0 -1 0 -1 -1 -1 0 -1 0 -1 0 -1 0 -1 0 -2 0 -1 1 -1 0 -1 0 -1 0 -1 1 -1 0 -1 1 -1 0 -1 1 -1 1 -1 0 -1 1 -1 1 -1 -1 1 -1 1 -1 1 -1 1 -1 1 0 1 -1 1 -1 1 0 1 -1 1 0 2 0 1 -1 1 0 1 0 2 0 1 0 1 0 1 0 2 0 1 1 1 0 1 0 1 0 2 1 1 0 1 1 1 1 1 0 1 1 1 1 1 1 1 1 0 0zm0 36l-1 -1 0 0 0 -1 1 -1 1 -1 1 -1 0 -1 1 -1 0 -1 1 -1 0 -1 1 -1 0 -1 0 -2 0 -1 1 -1 0 -1 0 -1 0 -1 0 -1 -1 -2 0 -1 0 -1 0 -1 -1 -1 0 -1 -1 -1 0 -1 -1 -1 0 -1 -1 -1 -1 -1 -1 -1 0 -1 1 -1 1 1 1 1 1 1 0 1 1 1 1 1 0 1 1 1 0 1 1 2 0 1 0 1 0 1 1 1 0 2 0 1 0 1 0 1 -1 2 0 1 0 1 0 1 -1 1 0 2 -1 1 0 1 -1 1 -1 1 0 1 -1 1 -1 1 -1 1 0 0zm-41 4l-1 2 0 0 -1 -2 -1 -1 -1 -1 -1 -2 -1 -1 -1 -1 -1 -2 0 -1 -1 -2 0 -2 -1 -1 0 -2 0 -1 -1 -2 0 -1 0 -2 0 -2 0 -1 1 -2 0 -2 0 -1 1 -2 0 -1 1 -2 0 -1 1 -2 1 -1 1 -2 1 -1 1 -1 1 -2 1 -1 1 2 -1 1 -1 1 -1 1 -1 2 0 1 -1 1 -1 2 0 1 -1 1 0 2 -1 1 0 2 0 1 -1 2 0 1 0 2 0 1 0 2 1 1 0 2 0 1 1 2 0 1 1 2 0 1 1 2 1 1 0 1 1 2 1 1 1 1 1 1 0 0zm45 0l2 2 0 0 -2 1 -1 1 -1 1 -2 1 -1 1 -2 1 -1 0 -1 1 -2 1 -2 0 -1 1 -2 0 -1 0 -2 0 -2 1 -1 0 -2 0 -1 -1 -2 0 -2 0 -1 0 -2 -1 -1 0 -2 -1 -1 -1 -2 0 -1 -1 -2 -1 -1 -1 -1 -1 -2 -1 -1 -1 1 -2 2 1 1 1 1 1 1 1 2 1 1 1 2 1 1 0 1 1 2 0 1 1 2 0 1 0 2 0 1 0 2 0 1 0 2 0 1 0 2 0 1 0 2 -1 1 0 2 -1 1 0 2 -1 1 -1 1 -1 2 -1 1 -1 1 -1 1 -1 0 0zm0 -44l2 -2 0 0 1 1 1 2 1 1 1 1 1 2 1 1 0 2 1 1 1 2 0 1 1 2 0 1 0 2 0 2 0 1 1 2 -1 2 0 1 0 2 0 1 0 2 -1 1 0 2 -1 2 -1 1 0 2 -1 1 -1 1 -1 2 -1 1 -1 1 -1 2 -2 -2 1 -1 1 -1 1 -1 1 -2 1 -1 1 -1 1 -2 0 -1 1 -2 0 -1 1 -2 0 -1 0 -2 0 -1 0 -2 0 -1 0 -2 0 -1 0 -2 0 -1 0 -2 -1 -1 0 -2 -1 -1 0 -1 -1 -2 -1 -1 -1 -1 -1 -2 -1 -1 -1 -1 -1 -1 0 0zm-45 0l-1 -2 0 0 1 -1 2 -1 1 -1 1 -1 2 -1 1 -1 2 -1 1 0 2 -1 1 0 2 -1 1 0 2 0 2 -1 1 0 2 0 1 0 2 0 2 1 1 0 2 0 1 1 2 0 2 1 1 0 2 1 1 1 1 1 2 1 1 1 1 1 2 1 -2 2 -1 -2 -1 -1 -1 -1 -2 0 -1 -1 -1 -1 -2 -1 -1 0 -2 -1 -1 0 -2 -1 -1 0 -2 0 -1 -1 -2 0 -1 0 -2 0 -1 0 -2 1 -1 0 -2 0 -1 1 -2 0 -1 1 -1 0 -2 1 -1 1 -2 0 -1 1 -1 1 -1 1 -2 2 0 0z"/>
  </g>
  <g>
   <path id="path71578_5" class="fil0" d="M986 467c-3,2 -7,2 -10,0 -3,-3 -3,-7 0,-10 3,-3 7,-3 10,0 2,3 2,7 0,10zm-16 -15c-5,5 -5,15 0,20 6,6 15,6 21,0 6,-5 6,-15 0,-21 -6,-5 -15,-5 -21,1z" inkscape:connector-curvature="0"/>
   <path id="1" class="fil0" d="M975 468l2 -2 0 0 0 0 0 0 0 1 1 0 0 0 0 0 0 0 1 0 0 0 0 1 0 0 1 0 0 0 0 0 1 0 0 0 0 0 0 0 1 0 0 0 0 0 1 0 0 -1 0 0 0 0 1 0 0 0 0 0 0 0 1 -1 0 0 0 0 1 2 0 0 0 0 0 0 -1 1 0 0 0 0 -1 0 0 0 -1 0 0 1 0 0 -1 0 0 0 0 0 -1 0 0 0 -1 0 0 0 0 0 -1 0 0 0 0 0 -1 -1 0 0 -1 0 0 0 0 0 -1 0 0 -1 0 0 0 0 -1 0 0 0zm0 -12l2 2 0 0 -1 0 0 0 0 0 0 1 0 0 0 0 0 0 -1 1 0 0 0 0 0 0 0 1 0 0 0 0 0 1 0 0 0 0 0 0 0 1 0 0 0 0 0 1 0 0 0 0 1 0 0 1 0 0 0 0 0 0 0 1 0 0 1 0 -2 2 0 -1 0 0 -1 0 0 -1 0 0 0 0 0 -1 -1 0 0 0 0 -1 0 0 0 -1 0 0 0 0 0 -1 0 0 0 0 0 -1 0 0 0 -1 0 0 0 0 0 -1 0 0 1 0 0 -1 0 0 0 0 0 -1 1 0 0 0 0 -1 0 0zm11 0l-1 2 0 0 0 0 0 -1 -1 0 0 0 0 0 0 0 -1 0 0 -1 0 0 -1 0 0 0 0 0 0 0 -1 0 0 0 0 0 0 0 -1 0 0 0 0 0 -1 0 0 0 0 0 0 0 -1 1 0 0 0 0 0 0 -1 0 0 0 0 1 0 0 -2 -2 1 0 0 0 0 -1 0 0 1 0 0 0 0 0 1 0 0 -1 1 0 0 0 0 0 1 0 0 0 0 0 1 0 0 0 1 0 0 0 0 0 1 0 0 0 0 0 1 1 0 0 1 0 0 0 0 0 1 1 0 0 0 0 0 0 0 0zm0 12l-1 -2 0 0 0 0 0 0 1 -1 0 0 0 0 0 0 0 -1 0 0 0 0 0 0 1 -1 0 0 0 0 0 -1 0 0 0 0 0 0 0 -1 0 0 0 0 0 0 -1 -1 0 0 0 0 0 -1 0 0 0 0 0 0 0 -1 -1 0 0 0 0 0 1 -2 1 1 0 0 0 0 0 1 1 0 0 0 0 1 0 0 0 0 0 1 1 0 0 0 0 1 0 0 0 1 0 0 0 0 0 1 0 0 0 0 0 1 -1 0 0 1 0 0 0 0 0 1 0 0 -1 0 0 1 0 0 0 0 -1 1 0 0zm-15 4l-1 1 0 0 -1 -1 0 0 -1 -1 0 0 -1 -1 0 -1 0 0 -1 -1 0 -1 0 -1 0 0 -1 -1 0 -1 0 -1 0 0 0 -1 0 -1 0 -1 0 0 0 -1 1 -1 0 -1 0 0 0 -1 1 -1 0 0 0 -1 1 -1 0 0 1 -1 0 -1 1 0 1 1 0 1 -1 0 0 1 -1 0 0 1 0 1 -1 0 0 1 0 0 0 1 0 1 -1 0 0 1 0 1 0 0 0 1 0 1 0 0 0 1 0 1 1 0 0 1 0 0 0 1 0 1 1 0 0 1 0 0 1 1 0 1 1 0 0 1 0 0zm19 0l2 1 0 0 -1 1 0 0 -1 1 0 0 -1 0 -1 1 -1 0 0 0 -1 1 -1 0 0 0 -1 0 -1 0 -1 1 0 0 -1 0 -1 0 -1 0 0 -1 -1 0 -1 0 -1 0 0 0 -1 -1 -1 0 0 0 -1 -1 -1 0 0 0 -1 -1 -1 0 0 -1 1 -1 1 0 0 0 1 1 0 0 1 1 0 0 1 0 1 1 0 0 1 0 1 0 0 0 1 0 1 1 0 0 1 0 0 0 1 0 1 -1 0 0 1 0 1 0 0 0 1 0 1 -1 0 0 1 0 0 -1 1 0 0 -1 1 0 0 0 0 0zm1 -20l1 -1 0 0 1 0 0 1 1 1 0 0 0 1 1 1 0 0 0 1 1 1 0 0 0 1 0 1 0 1 1 0 0 1 0 1 0 1 0 0 -1 1 0 1 0 1 0 0 0 1 -1 1 0 1 0 0 -1 1 0 1 0 0 -1 1 0 0 -1 1 -2 -1 1 -1 0 0 1 -1 0 -1 1 0 0 -1 0 0 1 -1 0 -1 0 0 0 -1 0 0 0 -1 0 -1 0 0 1 -1 -1 -1 0 0 0 -1 0 -1 0 0 0 -1 0 -1 0 0 -1 -1 0 0 0 -1 -1 -1 0 0 -1 -1 0 0 0 -1 0 0zm-20 0l-1 -1 0 0 0 -1 1 0 1 -1 0 0 1 -1 1 0 0 0 1 -1 1 0 0 0 1 0 1 -1 1 0 0 0 1 0 1 0 1 0 0 0 1 0 1 0 1 1 0 0 1 0 1 0 0 1 1 0 1 0 1 1 0 0 1 1 0 0 1 1 -1 1 -1 0 -1 -1 0 0 -1 -1 0 0 -1 0 0 -1 -1 0 -1 0 0 0 -1 0 -1 -1 0 0 -1 0 -1 0 0 0 -1 0 0 0 -1 0 -1 0 0 1 -1 0 -1 0 0 0 -1 1 -1 0 0 0 -1 0 0 1 -1 0 0 1 -1 0 0 0z"/>
  </g>
  <g>
  </g>
  <g>
  </g>
  <g>
  </g>
  <g>
  </g>
  <g>
  </g>
  <g>
  </g>
  <g>
  </g>
  <g>
  </g>
  <g>
  </g>
  <g>
  </g>
  <g>
  </g>
  <g>
  </g>
  <g>
  </g>
  <g>
  </g>
  <g>
  </g>
  <g>
  </g>
  <g>
  </g>
  <g>
  </g>
  <g>
  </g>
  <g>
  </g>
  <g>
  </g>
  <g>
  </g>
  <g>
  </g>
  <g>
  </g>
  <g>
  </g>
  <g>
  </g>
  <g>
  </g>
  <g>
  </g>
  <g>
  </g>
  <g>
  </g>
  <g>
  </g>
  <g>
  </g>
  <g>
  </g>
  <g>
  </g>
  <g>
  </g>
  <g>
  </g>
  <g>
  </g>
  <g>
  </g>
  <g>
  </g>
  <g>
  </g>
  <g>
  </g>
  <g>
  </g>
  <g>
  </g>
  <g>
  </g>
  <g>
  </g>
  <g>
  </g>
  <g>
  </g>
  <g>
  </g>
  <g>
  </g>
  <g>
  </g>
  <g>
  </g>
  <g>
  </g>
  <g>
  </g>
  <g>
  </g>
  <g>
  </g>
  <g>
  </g>
  <g>
  </g>
  <g>
  </g>
  <g>
  </g>
  <g>
  </g>
  <g>
  </g>
  <g>
  </g>
  <g>
  </g>
  <g>
  </g>
  <g>
  </g>
  <g>
  </g>
  <g>
  </g>
  <g>
  </g>
  <g>
  </g>
  <g>
  </g>
  <g>
  </g>
  <g>
  </g>
  <g>
  </g>
  <g>
  </g>
  <g>
  </g>
  <g>
  </g>
  <g>
  </g>
  <g>
  </g>
  <g>
  </g>
  <g>
  </g>
  <g>
  </g>
  <g>
  </g>
  <g>
  </g>
  <g>
  </g>
  <g>
  </g>
  <g>
  </g>
  <g>
  </g>
  <g>
  </g>
  <g>
  </g>
  <g>
  </g>
  <g>
  </g>
  <g>
  </g>
  <g>
  </g>
  <g>
  </g>
  <g>
  </g>
  <g>
  </g>
  <g>
  </g>
  <g>
  </g>
  <g>
  </g>
  <g>
  </g>
  <g>
  </g>
  <g>
  </g>
  <g>
  </g>
  <g>
  </g>
  <g>
  </g>
  <g>
  </g>
  <g>
  </g>
  <g>
  </g>
  <g>
  </g>
  <g>
  </g>
  <g>
  </g>
  <g>
  </g>
  <g>
  </g>
  <g>
  </g>
  <g>
  </g>
  <g>
  </g>
  <g>
  </g>
  <g>
  </g>
  <g>
  </g>
  <g>
  </g>
  <g>
  </g>
  <g>
  </g>
  <g>
  </g>
  <g>
  </g>
  <g>
  </g>
  <g>
  </g>
  <g>
  </g>
  <g>
  </g>
  <g>
  </g>
  <g>
  </g>
  <g>
  </g>
  <g>
  </g>
  <g>
  </g>
  <g>
  </g>
  <g>
  </g>
  <g>
  </g>
  <g>
  </g>
  <g>
  </g>
  <g>
  </g>
  <g>
  </g>
  <g>
  </g>
  <g>
  </g>
  <g>
  </g>
  <g>
  </g>
  <g>
  </g>
  <g>
  </g>
  <g>
  </g>
  <g>
  </g>
  <g>
  </g>
  <g>
  </g>
  <g>
  </g>
  <g>
  </g>
  <g>
  </g>
  <g>
  </g>
  <g>
  </g>
  <g>
  </g>
  <g>
  </g>
  <g>
  </g>
  <g>
  </g>
  <g>
  </g>
  <g>
  </g>
  <g>
  </g>
  <g>
  </g>
  <g>
  </g>
  <g>
  </g>
  <g>
  </g>
  <g>
  </g>
  <g>
  </g>
  <g>
  </g>
  <g>
  </g>
  <g>
  </g>
  <g>
   <path id="path71544_6" class="fil0" d="M315 242c6,7 6,18 0,24 -7,7 -18,7 -24,0 -7,-6 -7,-17 0,-24 6,-6 17,-6 24,0zm-28 28c9,9 23,9 31,0 9,-9 9,-23 0,-31 -8,-9 -22,-9 -31,0 -9,8 -9,22 0,31z" inkscape:connector-curvature="0"/>
   <path id="1" class="fil0" d="M315 267l-1 -1 0 0 1 -1 0 -1 1 0 0 -1 0 -1 1 0 0 -1 0 -1 1 0 0 -1 0 -1 0 -1 0 0 1 -1 0 -1 0 -1 0 0 0 -1 -1 -1 0 -1 0 0 0 -1 0 -1 -1 -1 0 0 0 -1 -1 -1 0 0 0 -1 -1 -1 0 0 -1 -1 1 -1 1 0 1 1 0 1 1 1 0 0 1 1 0 1 0 1 1 0 0 1 0 1 0 1 1 1 0 1 0 1 0 0 0 1 0 1 0 1 -1 1 0 1 0 1 0 0 -1 1 0 1 0 1 -1 1 0 0 -1 1 0 1 -1 0 -1 1 0 0zm-25 0l2 -1 0 0 0 0 1 1 0 0 1 1 1 0 0 0 1 1 1 0 1 0 0 1 1 0 1 0 1 0 0 0 1 0 1 0 1 0 0 0 1 0 1 0 1 0 0 0 1 -1 1 0 0 0 1 -1 1 0 1 0 0 -1 1 0 0 -1 1 0 1 1 0 1 -1 0 -1 1 0 0 -1 1 -1 0 -1 1 0 0 -1 0 -1 1 -1 0 -1 0 -1 0 0 0 -1 0 -1 0 -1 0 -1 0 -1 0 -1 0 0 0 -1 0 -1 -1 -1 0 -1 0 -1 -1 0 0 -1 -1 -1 0 -1 -1 0 0 -1 -1 0 0zm0 -25l2 1 0 0 -1 1 -1 0 0 1 0 1 -1 0 0 1 -1 1 0 0 0 1 0 1 -1 1 0 0 0 1 0 1 0 1 0 0 0 1 0 1 0 1 0 0 0 1 1 1 0 1 0 0 0 1 1 1 0 0 1 1 0 1 0 0 1 1 1 1 -2 1 -1 -1 0 0 -1 -1 0 -1 -1 0 0 -1 0 -1 -1 -1 0 -1 0 0 -1 -1 0 -1 0 -1 0 -1 0 -1 0 -1 0 0 0 -1 0 -1 0 -1 0 -1 1 -1 0 -1 0 0 1 -1 0 -1 0 -1 1 0 0 -1 1 -1 0 -1 1 0 0 0zm25 0l-1 1 0 0 -1 0 0 -1 -1 0 0 -1 -1 0 -1 -1 -1 0 0 0 -1 -1 -1 0 0 0 -1 0 -1 0 -1 0 0 0 -1 0 -1 0 -1 0 0 0 -1 0 -1 0 -1 0 0 0 -1 1 -1 0 -1 0 0 1 -1 0 -1 1 0 0 -1 1 0 0 -2 -1 1 -1 0 0 1 -1 1 -1 1 0 0 0 1 -1 1 0 1 -1 1 0 1 0 0 0 1 0 1 0 1 0 1 -1 1 1 1 0 0 0 1 0 1 0 1 0 1 0 1 1 0 0 1 1 1 0 1 0 0 1 1 1 1 0 0 1 0 0zm3 27l1 2 0 0 -1 1 -1 0 0 1 -1 1 -1 0 -1 1 -1 1 -1 0 -2 0 -1 1 -1 0 -1 0 -1 0 -1 1 -1 0 -1 0 -1 0 -1 0 -2 -1 -1 0 -1 0 -1 0 -1 -1 -1 0 -1 0 -1 -1 -1 -1 -1 0 -1 -1 -1 -1 -1 0 -1 -1 2 -2 1 1 0 1 1 0 1 1 1 1 1 0 1 1 1 0 1 0 1 1 1 0 1 0 1 0 1 0 1 1 1 0 1 0 1 -1 1 0 1 0 1 0 1 0 1 -1 1 0 1 0 1 -1 1 0 0 -1 1 -1 1 0 1 -1 1 -1 0 0zm0 -30l1 -1 0 0 1 1 1 1 1 1 0 1 1 1 0 1 1 1 0 1 1 1 0 1 0 1 1 1 0 1 0 1 0 1 0 1 0 2 0 1 0 1 0 1 -1 1 0 1 0 1 -1 1 0 1 -1 1 0 1 -1 1 0 1 -1 1 -1 1 -1 1 -1 -2 1 0 0 -1 1 -1 0 -1 1 -1 1 -1 0 -1 0 -1 1 -1 0 -1 0 -1 1 -1 0 -1 0 -1 0 -1 0 -1 0 -1 0 -1 0 -1 0 -1 -1 -1 0 -1 0 -1 -1 -1 0 0 0 -1 -1 -1 -1 -1 0 -1 -1 -1 0 -1 -1 -1 0 0zm-30 0l-2 -1 0 0 1 -1 1 -1 1 0 1 -1 1 -1 1 0 1 -1 1 0 1 -1 1 0 1 0 1 0 1 -1 2 0 1 0 1 0 1 0 1 0 1 0 1 1 1 0 1 0 1 0 2 1 1 0 1 1 1 0 1 1 1 1 0 0 1 1 1 1 -1 1 -1 0 -1 -1 -1 -1 -1 0 0 -1 -1 0 -1 -1 -1 0 -1 -1 -1 0 -1 0 -1 0 -1 -1 -1 0 -1 0 -1 0 -1 0 -1 0 -1 0 -1 1 -1 0 -1 0 -1 0 -1 1 -1 0 -1 1 -1 0 -1 1 -1 0 -1 1 0 1 -1 0 0 0zm0 30l-2 2 0 0 0 -1 -1 -1 -1 -1 -1 -1 0 -1 -1 -1 0 -1 -1 -1 0 -1 -1 -1 0 -1 0 -1 0 -1 0 -1 0 -1 0 -2 0 -1 0 -1 0 -1 0 -1 0 -1 0 -1 1 -1 0 -1 1 -1 0 -1 1 -1 0 -1 1 -1 1 -1 1 -1 0 -1 2 1 -1 1 -1 1 0 1 -1 1 0 1 -1 1 0 1 -1 0 0 1 -1 1 0 1 0 1 0 1 0 1 0 1 0 1 0 1 0 1 0 1 0 1 0 1 0 1 1 1 0 1 1 1 0 1 1 1 0 1 1 1 0 1 1 1 1 0 0 0z"/>
  </g>
  <g>
   <path id="path71546_7" class="fil0" d="M306 251c2,2 2,5 0,7 -2,2 -5,2 -7,0 -1,-2 -1,-5 0,-7 2,-2 5,-2 7,0zm-10 10c4,4 10,4 14,0 4,-3 4,-10 0,-14 -4,-4 -10,-4 -14,0 -4,4 -4,11 0,14z" inkscape:connector-curvature="0"/>
   <path id="1" class="fil0" d="M307 258l-2 -1 0 0 1 0 0 0 0 0 0 -1 0 0 0 0 0 0 0 0 0 0 0 -1 0 0 0 0 0 0 0 0 0 0 0 -1 0 0 0 0 0 0 0 0 0 0 0 -1 0 0 0 0 0 0 0 0 0 0 0 -1 0 0 0 0 0 0 -1 0 2 -2 0 1 0 0 0 0 1 0 0 1 0 0 0 0 0 0 0 1 0 0 0 0 0 0 0 1 0 0 1 0 0 0 0 1 -1 0 0 0 0 1 0 0 0 0 0 0 0 1 0 0 0 0 0 0 0 1 -1 0 0 0 0 0 0 0 0 0zm-8 0l1 -1 0 0 0 0 0 0 1 0 0 0 0 1 0 0 0 0 0 0 1 0 0 0 0 0 0 0 0 0 0 0 1 0 0 0 0 0 0 0 0 0 0 0 1 0 0 0 0 0 0 0 0 0 0 0 1 0 0 -1 0 0 0 0 0 0 0 0 2 1 0 1 -1 0 0 0 0 0 0 0 -1 0 0 1 0 0 0 0 -1 0 0 0 0 0 0 0 -1 0 0 0 0 0 0 0 -1 0 0 0 0 0 -1 0 0 0 0 0 0 0 -1 0 0 -1 0 0 0 0 -1 0 0 0 0 0 0 -1 0 0zm0 -8l1 2 0 0 0 0 0 0 0 0 0 0 0 1 0 0 -1 0 0 0 0 0 0 0 0 1 0 0 0 0 0 0 0 0 0 0 0 1 0 0 0 0 0 0 0 0 0 0 0 1 0 0 0 0 1 0 0 0 0 0 0 1 0 0 0 0 0 0 -1 1 0 0 -1 0 0 0 0 0 0 -1 0 0 0 0 -1 0 0 -1 0 0 0 0 0 0 0 -1 0 0 0 0 0 -1 0 0 0 0 0 0 0 -1 0 0 0 0 0 0 0 -1 1 0 0 0 0 0 0 -1 0 0 0 0 1 0 0 -1 0 0zm8 0l-2 2 0 0 0 0 0 0 0 -1 0 0 0 0 -1 0 0 0 0 0 0 0 0 0 0 0 -1 0 0 0 0 0 0 0 0 0 0 0 -1 0 0 0 0 0 0 0 0 0 0 0 -1 0 0 0 0 0 0 0 0 0 0 0 -1 1 0 0 0 0 -1 -2 0 0 0 0 0 0 1 0 0 -1 0 0 0 0 1 0 0 0 0 0 0 0 1 0 0 0 0 0 1 0 0 0 0 0 0 0 1 0 0 0 0 0 0 0 1 0 0 0 0 0 0 0 1 0 0 1 0 0 0 0 1 0 0 0 0 0zm2 11l2 1 0 0 -1 1 0 0 -1 0 0 1 -1 0 0 0 -1 0 0 1 -1 0 0 0 -1 0 0 0 -1 0 0 0 -1 0 0 0 -1 0 0 0 -1 0 0 0 -1 0 0 0 -1 0 0 0 -1 -1 0 0 -1 0 0 0 -1 -1 0 0 -1 0 0 -1 1 -1 1 0 0 0 0 1 1 0 0 0 1 0 0 1 0 0 1 0 0 0 1 0 0 0 1 0 0 0 0 0 1 0 0 0 1 0 0 0 1 0 0 0 0 0 1 0 0 0 1 0 0 -1 0 0 1 0 0 0 0 -1 1 0 0 0 0 0zm0 -13l2 -1 0 0 0 0 0 0 1 1 0 0 0 1 1 0 0 1 0 0 0 1 0 0 1 1 0 0 0 1 0 0 0 1 0 0 0 1 0 0 0 1 0 1 0 0 -1 1 0 0 0 1 0 0 0 1 -1 0 0 1 0 0 -1 0 0 1 0 0 -2 -1 0 -1 1 0 0 0 0 -1 1 0 0 0 0 -1 0 0 0 -1 0 0 1 0 0 -1 0 0 0 -1 0 0 0 -1 0 0 0 0 0 -1 0 0 -1 -1 0 0 0 -1 0 0 0 0 0 -1 0 0 -1 -1 0 0 0 0 -1 -1 0 0 0 0zm-13 0l-1 -1 0 0 0 -1 1 0 0 0 1 -1 0 0 1 0 0 -1 1 0 0 0 1 0 0 0 1 0 0 -1 1 0 0 0 1 0 0 0 1 0 0 0 1 1 0 0 1 0 0 0 1 0 0 0 1 1 0 0 1 0 0 1 1 0 0 0 1 1 -2 1 0 0 -1 -1 0 0 0 0 -1 0 0 -1 0 0 -1 0 0 0 -1 0 0 0 0 0 -1 0 0 -1 -1 0 0 0 -1 0 0 0 0 1 -1 0 0 0 -1 0 0 0 -1 0 0 0 0 0 -1 1 0 0 -1 0 0 0 0 1 -1 0 0 0zm0 13l-1 1 0 0 0 0 -1 -1 0 0 0 -1 -1 0 0 0 0 -1 0 0 -1 -1 0 0 0 -1 0 0 0 -1 0 -1 0 0 0 -1 0 0 0 -1 0 0 0 -1 0 0 0 -1 0 0 1 -1 0 0 0 -1 0 0 1 -1 0 0 0 -1 1 0 0 0 1 1 0 0 0 1 0 0 -1 0 0 1 0 0 0 1 -1 0 0 0 0 1 0 0 0 1 0 0 0 1 0 0 0 0 0 1 0 0 0 1 0 0 0 1 0 0 0 0 0 1 1 0 0 1 0 0 0 0 1 1 0 0 0 0 0 1 0 0z"/>
  </g>
  <g>
   <path id="path71546_8" class="fil0" d="M67 111c0,2 -2,4 -4,4 -3,0 -5,-2 -5,-4 0,-3 2,-5 5,-5 2,0 4,2 4,5zm-14 0c0,5 4,10 10,10 5,0 10,-5 10,-10 0,-6 -5,-10 -10,-10 -6,0 -10,4 -10,10z" inkscape:connector-curvature="0"/>
   <path id="1" class="fil0" d="M63 116l0 -2 0 0 0 0 0 0 0 0 1 0 0 0 0 0 0 0 0 0 0 0 1 0 0 0 0 0 0 0 0 -1 0 0 0 0 1 0 0 0 0 0 0 0 0 0 0 -1 0 0 0 0 0 0 0 0 0 0 0 -1 0 0 0 0 0 0 0 0 3 0 0 0 0 0 -1 1 0 0 0 0 0 0 0 1 0 0 0 0 0 0 0 1 0 0 -1 0 0 0 0 1 0 0 0 0 -1 0 0 0 0 0 0 1 0 0 -1 0 0 0 0 0 0 0 -1 0 0 0 0 0 -1 0 0 0 0 0 0 0zm-6 -5l2 0 0 0 0 0 0 0 0 0 0 0 0 1 0 0 0 0 0 0 1 0 0 0 0 1 0 0 0 0 0 0 0 0 0 0 0 0 0 0 1 1 0 0 0 0 0 0 0 0 0 0 1 0 0 0 0 0 0 0 0 0 0 0 1 0 0 0 0 2 0 0 -1 0 0 0 0 0 -1 0 0 0 0 0 0 0 -1 0 0 0 0 0 0 -1 -1 0 0 0 0 0 0 0 0 0 -1 -1 0 0 0 0 0 0 0 -1 0 0 0 0 -1 0 0 -1 0 0 0 0 0 0 0 -1 0 0 0 0 0 0zm6 -6l0 2 0 0 0 0 -1 0 0 0 0 0 0 0 0 0 0 0 -1 0 0 0 0 0 0 1 0 0 0 0 -1 0 0 0 0 0 0 0 0 0 0 0 0 1 0 0 0 0 0 0 -1 0 0 0 0 1 0 0 0 0 0 0 0 0 0 0 0 1 -2 0 0 -1 0 0 0 0 0 0 0 -1 0 0 0 0 1 -1 0 0 0 0 0 0 0 -1 0 0 0 0 1 0 0 0 0 -1 0 0 0 0 1 0 0 0 0 0 0 0 1 -1 0 0 0 0 0 0 1 0 0 0 0 0 1 0 0 0 0 0zm6 6l-3 0 0 0 0 -1 0 0 0 0 0 0 0 0 0 0 0 -1 0 0 0 0 0 0 0 0 0 0 0 -1 0 0 0 0 -1 0 0 0 0 0 0 0 0 0 0 0 0 -1 -1 0 0 0 0 0 0 0 0 0 0 0 -1 0 0 0 0 0 0 0 0 -2 0 0 0 0 1 0 0 0 0 0 1 0 0 0 0 0 0 1 1 0 0 0 0 0 0 0 0 0 1 0 0 1 0 0 0 0 0 0 1 0 0 1 0 0 0 0 0 0 0 1 0 0 0 0 0 1 0 0 1 0 0 0 0 1 0 0zm-6 9l0 2 0 0 -1 0 0 0 -1 0 0 0 -1 -1 0 0 -1 0 0 0 -1 0 0 -1 -1 0 0 0 -1 0 0 -1 -1 0 0 -1 0 0 -1 0 0 -1 0 0 -1 -1 0 0 0 -1 0 0 -1 -1 0 0 0 -1 0 0 0 -1 0 0 0 -1 0 0 2 0 0 0 0 1 0 0 0 0 0 1 0 0 0 1 1 0 0 1 0 0 0 0 0 1 1 0 0 0 0 1 0 0 1 0 0 1 0 0 1 0 0 0 1 1 0 0 0 0 1 0 0 0 1 0 0 0 0 1 1 0 0 0 1 0 0 0zm9 -9l2 0 0 0 0 0 0 1 0 0 0 1 0 0 -1 1 0 0 0 1 0 0 0 1 -1 0 0 1 0 0 -1 1 0 0 0 0 -1 1 0 0 -1 1 0 0 0 0 -1 0 0 1 -1 0 0 0 -1 0 0 0 -1 1 -1 0 0 0 -1 0 0 0 0 -2 0 0 1 0 0 0 1 -1 0 0 0 0 1 0 0 0 1 0 0 0 0 -1 1 0 0 0 1 0 0 -1 0 0 0 0 1 -1 0 0 0 0 0 -1 1 0 0 0 0 -1 0 0 0 -1 0 0 1 -1 0 0 0 0 0 -1 0 0 0 0zm-9 -9l0 -2 0 0 0 0 1 0 0 0 1 0 1 0 0 0 1 0 0 0 1 1 0 0 1 0 0 1 0 0 1 0 0 1 1 0 0 0 0 1 1 0 0 1 0 0 1 0 0 1 0 0 0 1 0 0 1 1 0 0 0 1 0 1 0 0 0 1 -2 0 0 -1 0 0 0 -1 0 0 -1 -1 0 0 0 0 0 -1 0 0 0 -1 -1 0 0 0 0 -1 0 0 -1 0 0 -1 0 0 0 0 -1 -1 0 0 -1 0 0 0 0 0 -1 -1 0 0 -1 0 0 0 0 0 -1 0 0 0 -1 0 0 0 0 0zm-9 9l-2 0 0 0 0 -1 0 0 0 -1 0 -1 0 0 0 -1 0 0 1 -1 0 0 0 -1 0 0 1 0 0 -1 0 0 1 -1 0 0 0 0 1 -1 0 0 1 0 0 -1 1 0 0 0 1 -1 0 0 1 0 0 0 1 0 0 0 1 0 0 0 1 0 0 2 -1 0 0 0 -1 0 0 0 0 0 -1 0 0 0 -1 0 0 1 0 0 -1 0 0 0 -1 0 0 1 0 0 -1 0 0 1 0 0 0 0 -1 1 0 0 0 0 0 1 0 0 -1 1 0 0 0 0 0 1 0 0 0 1 0 0 0 1 0 0z"/>
  </g>
  <g>
   <path id="path69444_9" class="fil0" d="M104 48c2,4 7,7 11,5 5,-1 7,-6 5,-11 -1,-4 -6,-7 -11,-5 -4,1 -7,6 -5,11l0 0zm0 0l0 0 0 0z" inkscape:connector-curvature="0"/>
   <path id="1" class="fil0" d="M115 52l0 2 0 0 0 0 -1 0 0 1 0 0 -1 0 0 0 -1 0 0 0 -1 0 0 0 -1 0 0 -1 -1 0 0 0 -1 0 0 0 0 0 -1 -1 0 0 -1 0 0 -1 0 0 -1 0 0 0 0 -1 -1 0 0 -1 0 0 0 0 -1 -1 0 0 0 -1 2 -1 0 1 0 0 0 1 1 0 0 0 0 1 0 0 1 0 0 0 0 1 0 0 1 0 0 0 0 1 1 0 0 0 0 0 1 0 0 0 0 0 1 0 0 1 0 0 1 0 0 0 0 0 1 0 0 0 1 0 0 -1 0 0 1 0 0 0zm0 2l0 0 1 0 -1 0zm4 -12l2 0 0 0 1 0 0 1 0 0 0 1 0 0 0 1 0 0 0 1 0 0 0 1 0 0 0 0 0 1 -1 0 0 1 0 0 0 1 0 0 -1 0 0 1 0 0 -1 1 0 0 0 0 -1 1 0 0 0 0 -1 0 0 1 -1 0 0 0 -1 0 0 -2 0 0 0 0 1 0 0 0 0 -1 1 0 0 0 0 0 1 -1 0 0 0 0 0 0 1 -1 0 0 0 0 0 -1 0 0 0 0 1 -1 0 0 0 0 0 -1 0 0 0 -1 0 0 0 0 0 -1 0 0 0 0 0 -1 0 0 -1 -1 0 0zm0 0l0 0 0 0 0 0zm-9 -4l-1 -2 0 0 1 0 0 -1 0 0 1 0 0 0 1 0 0 0 1 0 0 0 1 0 0 0 1 1 0 0 1 0 0 0 0 0 1 0 0 1 1 0 0 0 0 0 1 1 0 0 0 0 1 1 0 0 0 1 1 0 0 0 0 1 0 0 0 1 -2 0 0 0 0 0 0 -1 0 0 0 0 -1 -1 0 0 0 0 0 0 -1 -1 0 0 0 0 0 0 -1 -1 0 0 0 0 -1 0 0 0 0 0 -1 0 0 -1 -1 0 0 0 0 0 -1 0 0 0 0 0 -1 0 0 0 -1 1 0 0 0 0 0 0zm0 0l0 0 0 0 0 0zm-5 9l-2 1 0 0 0 -1 0 0 0 -1 0 0 -1 -1 0 0 1 -1 0 0 0 -1 0 0 0 -1 0 0 0 0 0 -1 0 0 1 -1 0 0 0 0 0 -1 1 0 0 -1 0 0 1 0 0 -1 0 0 1 0 0 0 1 -1 0 0 1 0 0 0 1 2 -1 0 0 0 0 0 -1 0 0 1 0 0 -1 0 0 0 0 1 0 0 -1 0 0 0 0 1 0 0 0 0 -1 1 0 0 0 0 0 1 0 0 0 0 0 1 0 0 0 0 0 1 0 0 0 1 0 0 0 0 0 1 0 0 0 0zm-1 1l0 0 0 0 0 0zm0 0l0 0 0 0 0 0z"/>
  </g>
  <g>
   <path id="path69444_10" class="fil0" d="M399 492c-2,4 -1,9 4,11 4,3 9,1 11,-4 2,-4 1,-9 -4,-11 -4,-2 -9,0 -11,4l0 0zm0 0l0 0 0 0z" inkscape:connector-curvature="0"/>
   <path id="1" class="fil1 str0" d="M399 492c-2,4 -1,9 4,11 4,3 9,1 11,-4 2,-4 1,-9 -4,-11 -4,-2 -9,0 -11,4m0 0l0 0 0 0z"/>
  </g>
  <g>
   <path id="path69444_11" class="fil0" d="M535 256c-2,4 0,9 4,11 4,2 9,1 12,-4 2,-4 0,-9 -4,-11 -5,-3 -10,-1 -12,4l0 0zm0 0l0 0 0 0z" inkscape:connector-curvature="0"/>
   <path id="1" class="fil1 str2" d="M535 256c-2,4 0,9 4,11 4,2 9,1 12,-4 2,-4 0,-9 -4,-11 -5,-3 -10,-1 -12,4m0 0l0 0 0 0z"/>
  </g>
  <g>
   <path id="path71592_12" class="fil0" d="M45 412c-3,0 -6,-3 -6,-6 0,-3 3,-6 6,-6 3,0 6,3 6,6 0,3 -3,6 -6,6zm0 -14c-4,0 -7,4 -7,8 0,4 3,7 7,7 4,0 8,-3 8,-7 0,-4 -4,-8 -8,-8z" inkscape:connector-curvature="0"/>
   <path id="1" class="fil0" d="M38 406l2 0 0 0 0 0 0 0 1 1 0 0 0 0 0 0 0 0 0 1 0 0 0 0 0 0 0 0 0 1 1 0 0 0 0 0 0 0 0 0 0 1 1 0 0 0 0 0 0 0 0 0 1 0 0 0 0 0 0 0 0 0 1 0 0 0 0 1 0 2 0 0 -1 0 0 0 0 -1 -1 0 0 0 0 0 0 0 -1 0 0 0 0 0 -1 -1 0 0 0 0 0 0 -1 0 0 -1 0 0 0 0 0 0 -1 -1 0 0 0 0 0 -1 0 0 0 0 0 0 0 -1 -1 0 0 0 0 -1 0 0 0 0zm7 -7l0 2 0 0 0 0 0 0 -1 0 0 0 0 0 0 0 0 0 -1 0 0 1 0 0 0 0 0 0 -1 0 0 0 0 0 0 0 0 1 0 0 -1 0 0 0 0 0 0 1 0 0 0 0 0 0 0 0 0 1 0 0 0 0 -1 0 0 1 0 0 -2 0 0 -1 0 0 0 0 1 -1 0 0 0 0 0 -1 0 0 0 0 0 0 0 -1 1 0 0 0 0 -1 0 0 0 0 1 0 0 0 0 -1 0 0 1 0 0 0 0 0 1 0 0 -1 0 0 0 0 1 0 0 0 0 0 1 0 0 0 0 0zm7 7l-2 0 0 0 0 0 0 -1 0 0 0 0 0 0 0 -1 0 0 -1 0 0 0 0 0 0 -1 0 0 0 0 0 0 0 0 -1 -1 0 0 0 0 0 0 0 0 0 0 -1 0 0 0 0 -1 0 0 0 0 -1 0 0 0 0 0 0 0 -1 0 0 0 0 -2 1 0 0 0 0 0 1 0 0 0 0 0 0 0 1 1 0 0 0 0 1 0 0 0 0 0 0 1 1 0 0 0 0 0 0 0 1 1 0 0 0 0 0 1 0 0 0 0 1 0 0 1 0 0 0 0 0 1 0 0 0 0 0 1 0 0zm-7 7l0 -2 0 0 0 -1 1 0 0 0 0 0 0 0 1 0 0 0 0 0 0 0 0 0 1 0 0 0 0 0 0 -1 0 0 0 0 1 0 0 0 0 0 0 -1 0 0 0 0 0 0 0 0 1 -1 0 0 0 0 0 0 0 0 0 -1 0 0 0 0 2 0 0 0 0 1 0 0 0 0 0 0 0 1 0 0 -1 0 0 1 0 0 0 0 0 1 0 0 -1 0 0 0 0 1 0 0 -1 0 0 0 0 0 0 1 -1 0 0 0 0 0 -1 0 0 0 0 0 0 0 -1 1 0 0 0 0 -1 0 0 0zm-6 -7l-2 0 0 0 0 -1 0 0 0 0 0 -1 0 0 0 -1 0 0 0 -1 0 0 1 0 0 -1 0 0 0 0 1 -1 0 0 0 0 0 -1 1 0 0 0 0 0 1 -1 0 0 0 0 1 0 0 0 1 0 0 -1 0 0 1 0 0 0 1 0 0 0 0 2 0 0 -1 0 0 0 0 0 0 1 -1 0 0 0 0 0 -1 0 0 0 0 0 0 0 -1 1 0 0 0 0 0 0 -1 0 0 1 0 0 0 0 0 0 -1 1 0 0 0 0 0 1 0 0 0 0 0 0 0 1 0 0 0 0 0 1 0 0zm6 6l0 2 0 0 0 0 -1 0 0 0 -1 0 0 0 0 0 -1 0 0 0 -1 0 0 -1 0 0 -1 0 0 0 0 -1 -1 0 0 0 0 0 0 -1 -1 0 0 0 0 -1 0 0 -1 0 0 -1 0 0 0 -1 0 0 0 0 0 -1 0 0 0 -1 0 0 2 0 0 0 0 0 0 1 0 0 0 0 0 1 0 0 0 0 0 1 0 0 1 0 0 0 0 1 0 0 0 0 1 0 0 1 0 0 0 0 1 0 0 0 0 1 0 0 1 0 0 0 0 0 1 0 0 0 0 0 0 0 1 0 0 0 0 0zm7 -6l2 0 0 0 0 0 0 1 0 0 0 1 -1 0 0 0 0 1 0 0 0 1 0 0 0 0 -1 1 0 0 0 0 0 1 -1 0 0 0 0 0 -1 1 0 0 0 0 -1 0 0 1 0 0 -1 0 0 0 -1 0 0 0 -1 0 0 0 0 0 -1 0 0 -2 0 0 1 0 0 0 0 0 1 0 0 0 0 0 1 0 0 0 0 0 1 -1 0 0 0 0 0 0 1 0 0 -1 0 0 0 0 0 0 1 -1 0 0 0 0 0 0 0 -1 0 0 0 0 0 -1 1 0 0 0 0 -1 0 0 0 0 0 0zm-7 -7l0 -2 0 0 1 0 0 0 0 0 1 0 0 0 1 1 0 0 1 0 0 0 0 0 1 0 0 1 0 0 1 0 0 0 0 1 1 0 0 0 0 1 0 0 1 0 0 1 0 0 0 0 0 1 0 0 0 1 1 0 0 1 0 0 0 0 0 1 -2 0 0 -1 0 0 0 0 0 -1 -1 0 0 0 0 0 0 -1 0 0 0 0 0 -1 0 0 -1 0 0 0 0 -1 0 0 0 0 -1 0 0 0 0 -1 0 0 -1 0 0 0 0 0 -1 0 0 0 0 0 -1 -1 0 0 0 0 -1 0 0 0 0 0z"/>
  </g>
  <g>
   <path id="path71572_13" class="fil0" d="M624 321c5,0 10,5 10,11 0,5 -5,10 -10,10 -6,0 -11,-5 -11,-10 0,-6 5,-11 11,-11zm0 24c7,0 13,-6 13,-13 0,-8 -6,-14 -13,-14 -8,0 -14,6 -14,14 0,7 6,13 14,13z" inkscape:connector-curvature="0"/>
   <path id="1" class="fil0" d="M635 332l-2 0 0 0 0 -1 0 0 0 -1 0 0 0 -1 0 0 0 -1 -1 0 0 0 0 -1 0 0 0 -1 -1 0 0 0 0 -1 -1 0 0 0 0 -1 -1 0 0 0 0 0 -1 -1 0 0 -1 0 0 0 -1 0 0 -1 0 0 -1 0 0 0 -1 0 0 0 0 -2 0 0 1 0 0 0 1 0 1 0 0 1 1 0 0 0 1 0 0 0 1 1 0 0 1 0 0 1 0 0 1 0 0 1 1 0 0 1 0 0 1 1 0 0 0 1 0 0 0 1 1 0 0 1 0 0 0 1 0 0 0 1 0 1 0 0zm-11 11l0 -2 0 0 0 0 1 0 0 0 1 0 0 0 0 0 1 -1 0 0 1 0 0 0 1 0 0 -1 0 0 1 0 0 0 0 -1 1 0 0 0 0 -1 1 0 0 0 0 -1 0 0 0 -1 1 0 0 -1 0 0 0 0 0 -1 0 0 0 -1 0 0 2 0 0 0 0 1 0 0 0 1 0 0 0 1 -1 1 0 0 0 1 0 0 0 1 -1 0 0 1 0 0 -1 0 0 1 -1 0 0 0 0 1 -1 0 0 0 -1 1 0 0 -1 0 0 0 -1 1 0 0 -1 0 -1 0 0 0 -1 0 0 0 0 0zm-12 -11l2 0 0 0 0 0 0 1 0 0 0 1 1 0 0 0 0 1 0 0 0 1 0 0 1 1 0 0 0 0 0 1 1 0 0 0 0 1 1 0 0 0 0 0 1 1 0 0 1 0 0 0 0 0 1 1 0 0 1 0 0 0 1 0 0 0 1 0 0 2 -1 0 0 0 -1 0 -1 0 0 0 -1 0 0 -1 -1 0 0 0 -1 0 0 -1 -1 0 0 0 -1 -1 0 0 0 0 -1 -1 0 0 -1 0 0 -1 0 0 0 -1 -1 0 0 -1 0 0 0 -1 0 -1 -1 0 0 -1 0 0 0 -1 0 0 0 0zm12 -12l0 2 0 0 -1 0 0 0 -1 0 0 0 -1 0 0 1 -1 0 0 0 0 0 -1 0 0 1 -1 0 0 0 0 0 -1 1 0 0 0 0 -1 1 0 0 0 0 0 1 -1 0 0 1 0 0 0 0 0 1 0 0 -1 1 0 0 0 1 0 0 0 1 -2 0 0 -1 0 -1 0 0 0 -1 1 0 0 -1 0 0 0 -1 0 0 1 -1 0 0 0 -1 0 0 1 -1 0 0 1 -1 0 0 0 0 1 -1 0 0 1 0 0 -1 1 0 0 0 1 0 0 0 1 -1 0 0 1 0 1 0 0 0 1 0 0 0zm12 12l2 0 0 0 0 0 0 1 0 1 0 1 0 0 0 1 0 1 -1 0 0 1 0 1 -1 0 0 1 0 0 -1 1 0 1 -1 0 0 1 -1 0 0 0 -1 1 -1 0 0 1 -1 0 -1 0 0 1 -1 0 -1 0 0 0 -1 0 -1 0 -1 0 0 0 0 -2 0 0 1 0 1 0 0 0 1 0 0 0 1 0 1 -1 0 0 1 0 0 -1 1 0 0 0 1 -1 0 0 1 0 0 -1 1 0 0 -1 0 0 1 -1 0 0 0 -1 0 0 1 -1 0 -1 0 0 0 -1 0 0 0 -1 0 -1 0 0 0 0zm-12 -13l0 -2 0 0 0 0 1 0 1 0 1 0 0 0 1 0 1 1 0 0 1 0 1 1 0 0 1 0 1 1 0 0 1 1 0 0 1 1 0 0 1 1 0 0 0 1 1 1 0 0 0 1 1 1 0 0 0 1 0 1 0 0 0 1 0 1 0 1 -2 0 0 -1 0 -1 0 0 0 -1 0 -1 0 0 0 -1 -1 0 0 -1 0 0 0 -1 -1 0 0 -1 0 0 -1 -1 0 0 -1 -1 0 0 -1 -1 0 0 -1 0 0 -1 -1 0 0 0 -1 0 -1 -1 0 0 -1 0 0 0 -1 0 -1 0 0 0 0 0zm-13 13l-2 0 0 0 0 -1 0 -1 0 -1 0 0 0 -1 1 -1 0 0 0 -1 0 -1 1 0 0 -1 0 -1 1 0 0 -1 1 0 0 -1 1 0 0 -1 1 0 0 -1 1 0 1 0 0 -1 1 0 1 0 0 -1 1 0 1 0 0 0 1 0 1 0 1 0 0 2 -1 0 -1 0 0 0 -1 0 0 0 -1 0 -1 1 0 0 -1 0 0 0 -1 1 0 0 -1 0 0 1 -1 0 0 1 -1 0 0 1 -1 0 0 1 0 0 -1 1 0 0 0 1 0 0 0 1 -1 0 0 1 0 1 0 0 0 1 0 1 0 0zm13 12l0 2 0 0 -1 0 -1 0 -1 0 0 0 -1 0 -1 0 0 0 -1 -1 -1 0 0 0 -1 -1 -1 0 0 -1 -1 0 0 0 -1 -1 0 0 -1 -1 0 -1 -1 0 0 -1 0 0 -1 -1 0 -1 0 0 0 -1 -1 -1 0 0 0 -1 0 -1 0 -1 0 0 2 0 0 0 0 1 0 1 0 0 0 1 1 0 0 1 0 1 0 0 0 1 1 0 0 1 0 0 1 1 0 0 1 1 0 0 1 0 0 1 1 0 0 0 1 1 0 0 1 0 0 1 1 0 1 0 0 0 1 0 0 0 1 0 1 0 0 0z"/>
  </g>
  <g>
   <path id="path71544_14" class="fil0" d="M1023 561c5,4 5,11 0,16 -4,4 -11,4 -16,0 -4,-5 -4,-12 0,-16 5,-5 12,-5 16,0zm-18 18c6,6 15,6 21,0 5,-6 5,-15 0,-21 -6,-5 -15,-5 -21,0 -6,6 -6,15 0,21z" inkscape:connector-curvature="0"/>
   <path id="1" class="fil0" d="M1024 577l-1 -1 0 0 0 0 0 -1 1 0 0 -1 0 0 1 0 0 -1 0 0 0 -1 0 0 0 -1 1 0 0 -1 0 0 0 -1 0 0 0 -1 0 0 0 -1 0 0 -1 -1 0 0 0 -1 0 0 0 -1 0 0 -1 -1 0 0 0 0 -1 -1 0 0 0 -1 1 -1 0 1 0 0 1 1 0 0 0 1 1 0 0 1 0 0 0 1 1 0 0 1 0 0 0 1 0 1 0 0 0 1 0 0 0 1 0 0 0 1 0 1 0 0 -1 1 0 0 0 1 0 0 -1 1 0 0 0 1 -1 0 0 1 0 0 0 0zm-17 0l1 -1 0 0 0 0 1 1 0 0 1 0 0 1 0 0 1 0 0 0 1 1 0 0 1 0 0 0 1 0 0 0 1 0 0 0 1 0 0 0 1 0 0 0 1 0 0 0 1 0 0 -1 1 0 0 0 1 0 0 -1 0 0 1 0 0 -1 1 0 1 1 -1 0 0 1 -1 0 0 1 -1 0 0 0 -1 0 0 1 -1 0 0 0 -1 0 0 0 -1 0 -1 0 0 1 -1 0 0 0 -1 -1 0 0 -1 0 -1 0 0 0 -1 0 0 0 -1 -1 0 0 -1 0 0 0 -1 -1 0 0 -1 -1 0 0 0 0zm0 -17l1 1 0 0 0 1 -1 0 0 1 0 0 -1 0 0 1 0 0 0 1 -1 0 0 1 0 0 0 1 0 0 0 1 0 0 0 1 0 0 0 1 0 0 0 1 0 0 0 1 0 0 1 1 0 0 0 1 0 0 1 0 0 1 0 0 1 1 0 0 -1 1 0 0 -1 -1 0 0 -1 -1 0 0 0 -1 0 0 -1 -1 0 0 0 -1 0 0 0 -1 0 -1 0 0 -1 -1 0 0 0 -1 1 0 0 -1 0 -1 0 0 0 -1 0 0 0 -1 1 0 0 -1 0 0 0 -1 1 0 0 -1 1 0 0 -1 0 0zm17 0l-1 1 0 0 -1 0 0 0 -1 -1 0 0 0 0 -1 -1 0 0 -1 0 0 0 -1 0 0 0 -1 -1 0 0 -1 0 0 0 -1 0 0 0 -1 0 0 0 -1 0 0 1 -1 0 0 0 -1 0 0 0 -1 0 0 1 0 0 -1 0 0 1 -1 0 0 0 -1 -1 0 0 1 0 0 -1 1 0 0 0 1 -1 0 0 1 0 0 0 1 -1 0 0 1 0 1 0 0 0 1 0 0 0 1 0 0 0 1 0 1 0 0 0 1 0 0 1 1 0 0 0 1 0 0 1 1 0 0 0 1 1 0 0 1 0 0 0zm1 19l1 1 0 0 0 0 -1 1 -1 0 0 1 -1 0 -1 0 0 1 -1 0 -1 0 0 0 -1 1 -1 0 -1 0 0 0 -1 0 -1 0 0 0 -1 0 -1 0 -1 0 0 0 -1 -1 -1 0 0 0 -1 0 -1 -1 -1 0 0 0 -1 -1 0 0 -1 -1 -1 0 1 -1 1 0 0 1 1 0 1 0 0 1 1 0 0 0 1 1 1 0 0 0 1 0 1 0 0 1 1 0 1 0 0 0 1 0 1 0 0 0 1 -1 1 0 0 0 1 0 1 0 0 -1 1 0 0 0 1 -1 1 0 0 0 1 -1 0 0 0 0zm0 -20l1 -1 0 0 1 0 0 1 1 1 0 0 0 1 1 1 0 0 0 1 1 1 0 0 0 1 0 1 0 1 1 0 0 1 0 1 0 0 0 1 -1 1 0 1 0 0 0 1 0 1 -1 0 0 1 0 1 -1 0 0 1 0 1 -1 0 0 1 -1 1 -1 -1 1 -1 0 0 1 -1 0 -1 0 0 1 -1 0 0 0 -1 0 -1 1 0 0 -1 0 -1 0 0 0 -1 0 -1 0 0 0 -1 0 -1 0 0 0 -1 0 -1 0 0 -1 -1 0 -1 0 0 0 -1 -1 0 0 -1 0 -1 -1 0 0 -1 -1 0 0 0zm-20 0l-1 -1 0 0 1 -1 1 0 0 -1 1 0 0 0 1 -1 1 0 1 0 0 -1 1 0 1 0 0 0 1 0 1 -1 1 0 0 0 1 0 1 0 0 1 1 0 1 0 1 0 0 0 1 1 1 0 0 0 1 1 1 0 0 0 1 1 1 0 0 1 -1 1 0 -1 -1 0 0 -1 -1 0 -1 0 0 -1 -1 0 0 0 -1 0 -1 -1 0 0 -1 0 -1 0 0 0 -1 0 -1 0 0 0 -1 0 -1 0 0 0 -1 0 -1 0 0 1 -1 0 -1 0 0 0 -1 1 0 0 -1 0 -1 1 0 0 -1 1 0 0zm0 20l-1 1 0 0 0 -1 -1 -1 0 0 -1 -1 0 -1 0 0 -1 -1 0 -1 0 0 0 -1 -1 -1 0 0 0 -1 0 -1 0 -1 0 0 0 -1 0 -1 0 0 0 -1 0 -1 1 -1 0 0 0 -1 0 -1 1 0 0 -1 0 -1 1 0 0 -1 1 -1 0 0 1 1 0 0 -1 1 0 0 0 1 -1 1 0 0 0 1 -1 0 0 1 0 1 0 0 0 1 -1 1 0 0 0 1 0 1 0 0 0 1 0 1 1 0 0 1 0 1 0 0 0 1 1 1 0 0 0 1 1 0 0 1 0 1 1 0 0 1 0 0z"/>
  </g>
  <g>
   <path id="path71546_15" class="fil0" d="M1017 567c2,1 2,3 0,4 -1,1 -3,1 -4,0 -1,-1 -1,-3 0,-4 1,-2 3,-2 4,0zm-6 6c2,3 6,3 9,0 3,-2 3,-6 0,-9 -3,-3 -7,-3 -9,0 -3,3 -3,7 0,9z" inkscape:connector-curvature="0"/>
   <path id="1" class="fil0" d="M1018 571l-1 -1 0 0 0 0 0 0 0 0 0 0 0 0 0 0 0 0 1 0 0 0 0 -1 0 0 0 0 0 0 0 0 0 0 0 0 0 0 0 -1 0 0 0 0 0 0 0 0 0 0 0 0 -1 0 0 0 0 -1 0 0 0 0 0 0 0 0 0 0 1 -1 0 0 0 0 0 0 0 1 1 0 0 0 0 0 0 0 0 0 0 1 0 0 0 0 0 0 0 0 0 1 0 0 0 0 0 0 0 0 0 0 0 1 0 0 0 0 0 0 0 0 0 0 0 1 -1 0 0 0 0 0 0 0 0 0 0 0zm-5 0l1 -1 0 0 0 0 0 1 0 0 0 0 0 0 0 0 0 0 0 0 0 0 1 0 0 0 0 0 0 0 0 0 0 0 0 0 0 0 1 0 0 0 0 0 0 0 0 0 0 0 0 0 0 0 0 0 1 0 0 0 0 0 0 0 0 -1 0 0 1 1 0 1 0 0 0 0 -1 0 0 0 0 0 0 0 0 0 0 0 -1 0 0 0 0 0 0 0 0 0 -1 0 0 0 0 0 0 0 0 0 0 0 -1 0 0 0 0 0 0 0 0 0 0 0 -1 0 0 0 0 0 0 0 0 0 0 -1 0 0zm0 -5l1 1 0 0 -1 0 0 0 0 0 0 0 0 0 0 1 0 0 0 0 0 0 0 0 0 0 0 0 0 0 0 0 0 1 0 0 0 0 0 0 0 0 0 0 0 0 0 0 0 1 0 0 0 0 0 0 0 0 0 0 0 0 0 0 0 0 1 0 -1 1 -1 0 0 0 0 0 0 0 0 0 0 -1 0 0 0 0 0 0 0 0 0 0 0 -1 0 0 0 0 0 0 0 0 0 0 0 -1 0 0 0 0 0 0 0 0 0 -1 0 0 0 0 0 0 0 0 0 0 0 -1 0 0 0 0 1 0 0 0zm5 0l-1 1 0 0 0 0 0 0 0 0 0 0 0 0 -1 0 0 0 0 -1 0 0 0 0 0 0 0 0 0 0 0 0 -1 0 0 0 0 0 0 0 0 0 0 0 0 0 0 0 -1 0 0 0 0 1 0 0 0 0 0 0 0 0 0 0 0 0 0 0 -1 -1 0 0 0 0 0 0 0 0 0 -1 1 0 0 0 0 0 0 0 0 0 0 0 1 0 0 0 0 0 0 0 0 0 0 0 1 0 0 0 0 0 0 0 0 0 1 0 0 0 0 0 0 0 0 0 0 1 1 0 0 0 0 0 0 0 0 0zm1 7l1 1 0 0 0 0 0 0 0 1 -1 0 0 0 0 0 -1 0 0 0 0 1 -1 0 0 0 0 0 -1 0 0 0 0 0 -1 0 0 0 0 0 -1 0 0 0 0 0 -1 0 0 0 0 -1 -1 0 0 0 0 0 -1 0 0 0 0 -1 -1 0 0 0 1 -1 0 0 1 0 0 0 0 1 0 0 1 0 0 0 0 0 0 0 1 0 0 0 0 1 0 0 1 0 0 0 0 0 1 0 0 0 0 0 0 0 1 -1 0 0 0 0 1 0 0 0 0 0 0 0 1 0 0 -1 0 0 0 0 0 0 0 0zm0 -8l1 -1 0 0 1 0 0 0 0 0 0 1 1 0 0 0 0 1 0 0 0 0 0 1 0 0 0 0 0 1 1 0 0 0 0 1 0 0 0 0 -1 1 0 0 0 0 0 1 0 0 0 0 0 1 0 0 0 0 -1 1 0 0 0 0 0 1 -1 0 -1 -1 1 0 0 -1 0 0 0 0 0 0 1 -1 0 0 0 0 0 0 0 -1 0 0 0 0 0 0 0 -1 0 0 0 0 0 -1 0 0 0 0 0 0 0 -1 0 0 0 0 0 -1 0 0 0 0 -1 0 0 -1 0 0 0 0 0 0 -1 0 0 0zm-8 0l-1 -1 0 0 0 -1 1 0 0 0 0 0 1 -1 0 0 0 0 1 0 0 0 0 0 1 0 0 0 0 0 1 -1 0 0 0 0 1 0 0 0 0 0 1 1 0 0 0 0 1 0 0 0 0 0 1 0 0 0 0 1 1 0 0 0 0 0 0 1 -1 1 0 -1 0 0 0 0 0 0 -1 0 0 -1 0 0 0 0 -1 0 0 0 0 0 -1 0 0 0 0 0 0 0 -1 0 0 0 0 0 -1 0 0 0 0 0 0 0 -1 0 0 0 0 0 0 0 -1 1 0 0 0 0 0 0 -1 0 0 1 0 0zm0 8l-1 1 0 0 0 0 0 -1 -1 0 0 0 0 -1 0 0 0 0 0 -1 -1 0 0 0 0 -1 0 0 0 0 0 -1 0 0 0 0 0 -1 0 0 0 0 0 -1 0 0 0 0 0 -1 1 0 0 0 0 -1 0 0 0 0 0 -1 1 0 0 0 0 0 1 1 0 0 0 0 0 0 -1 0 0 1 0 0 0 0 0 0 0 1 0 0 0 0 -1 1 0 0 0 0 0 0 0 1 0 0 0 0 0 1 0 0 1 0 0 0 0 1 0 0 0 0 0 0 0 1 0 0 1 0 0 0 0 1 0 0 0 0z"/>
  </g>
  <g>
   <path id="path71564_16" class="fil0" d="M204 561c-6,0 -10,-4 -10,-10 0,-6 4,-10 10,-10 6,0 11,4 11,10 0,6 -5,10 -11,10zm0 -24c-7,0 -14,7 -14,14 0,8 7,14 14,14 8,0 14,-6 14,-14 0,-7 -6,-14 -14,-14z" inkscape:connector-curvature="0"/>
   <path id="1" class="fil0" d="M193 551l1 0 0 0 0 1 0 0 0 1 0 0 0 1 0 0 1 1 0 0 0 0 0 1 1 0 0 1 0 0 0 1 1 0 0 0 0 1 1 0 0 0 1 0 0 1 0 0 1 0 0 0 1 1 0 0 1 0 0 0 1 0 0 0 1 0 0 0 0 1 0 0 -1 0 0 0 -1 0 -1 -1 0 0 -1 0 0 0 0 0 -1 -1 0 0 -1 0 0 0 -1 -1 0 0 0 0 -1 -1 0 0 0 -1 -1 0 0 0 0 -1 0 0 -1 -1 0 0 0 -1 0 0 0 -1 0 0 0 -1 0 0 -1 -1 0 0zm11 -11l0 1 0 0 0 0 -1 0 0 0 -1 0 0 0 -1 0 0 1 -1 0 0 0 -1 0 0 0 0 1 -1 0 0 0 -1 1 0 0 0 0 -1 1 0 0 0 0 0 1 -1 0 0 1 0 0 0 1 -1 0 0 1 0 0 0 1 0 0 0 1 0 0 -1 0 1 0 0 -1 0 -1 0 0 0 -1 0 0 0 -1 0 0 1 -1 0 0 0 0 0 -1 1 0 0 -1 0 0 1 0 0 -1 0 0 1 0 0 -1 1 0 0 0 1 -1 0 0 0 0 1 0 0 0 1 0 1 0 0 -1 1 0 0 0 0 0zm11 11l-1 0 0 0 0 0 0 -1 0 0 0 -1 0 0 0 -1 0 0 -1 -1 0 0 0 -1 0 0 0 -1 -1 0 0 0 0 -1 -1 0 0 0 0 -1 -1 0 0 0 -1 -1 0 0 0 0 -1 0 0 0 -1 -1 0 0 -1 0 0 0 -1 0 0 0 -1 0 0 -1 1 0 0 0 1 1 0 0 1 0 0 0 1 0 0 0 1 0 0 1 1 0 0 0 1 1 0 0 0 0 1 1 0 0 0 0 1 1 0 0 0 1 1 0 0 0 0 1 0 0 0 1 0 0 1 1 0 0 0 1 0 1 0 0 0 0zm-11 11l0 -1 0 0 1 0 0 0 1 0 0 0 1 0 0 0 1 0 0 -1 1 0 0 0 0 0 1 -1 0 0 1 0 0 0 0 -1 1 0 0 0 0 -1 1 0 0 -1 0 0 0 -1 0 0 1 0 0 -1 0 0 0 -1 0 0 0 -1 0 0 0 -1 1 0 0 1 0 0 0 1 0 0 -1 1 0 0 0 1 0 0 0 1 0 0 -1 1 0 0 0 0 -1 1 0 0 0 1 -1 0 0 0 0 1 -1 0 0 0 -1 0 0 1 -1 0 0 0 -1 0 0 0 -1 1 0 0 -1 0 0 0 -1 0 0 0zm-13 -11l-1 0 0 0 0 -1 0 0 0 -1 1 -1 0 0 0 -1 0 -1 0 0 1 -1 0 -1 0 0 1 -1 0 0 0 -1 1 0 0 -1 1 0 0 -1 1 0 0 0 1 -1 1 0 0 0 1 -1 0 0 1 0 1 0 0 -1 1 0 1 0 0 0 1 0 0 1 -1 0 0 0 -1 0 -1 0 0 0 -1 0 0 0 -1 1 -1 0 0 0 -1 1 0 0 -1 0 0 1 -1 0 0 1 -1 0 0 1 -1 0 0 1 0 0 -1 1 0 0 0 1 0 0 -1 1 0 1 0 0 0 1 0 1 0 0 0 1 0 0zm13 13l0 1 0 0 -1 0 0 0 -1 0 -1 0 0 0 -1 -1 -1 0 0 0 -1 0 0 -1 -1 0 -1 0 0 -1 -1 0 0 -1 -1 0 0 -1 -1 0 0 -1 0 0 -1 -1 0 0 0 -1 -1 0 0 -1 0 -1 0 0 0 -1 -1 -1 0 0 0 -1 0 -1 1 0 0 1 0 0 0 1 0 1 0 0 0 1 1 1 0 0 0 1 0 0 1 1 0 1 0 0 1 1 0 0 1 1 0 0 1 0 0 1 1 0 0 1 1 0 0 0 1 0 1 1 0 0 1 0 0 0 1 0 1 0 0 0 1 0 0 0zm14 -13l0 0 0 0 0 1 0 1 0 0 0 1 0 1 -1 0 0 1 0 1 0 0 -1 1 0 0 0 1 -1 0 0 1 -1 0 0 1 0 0 -1 1 0 0 -1 1 -1 0 0 0 -1 1 0 0 -1 0 -1 0 0 1 -1 0 -1 0 0 0 -1 0 -1 0 0 -1 1 0 1 0 0 0 1 0 1 0 0 0 1 0 0 -1 1 0 1 0 0 0 1 -1 0 0 1 -1 0 0 1 0 0 -1 0 0 1 -1 0 0 1 -1 0 -1 0 0 1 -1 0 0 0 -1 0 -1 0 0 0 -1 0 -1 1 0 0 -1 0 0zm-14 -13l0 -1 0 0 1 0 1 0 0 0 1 0 1 1 0 0 1 0 1 0 0 1 1 0 0 0 1 1 1 0 0 0 1 1 0 0 0 1 1 0 0 1 1 0 0 1 0 0 1 1 0 1 0 0 0 1 1 1 0 0 0 1 0 1 0 0 0 1 0 0 0 -1 -1 0 0 -1 0 -1 0 0 0 -1 0 -1 0 0 -1 -1 0 0 0 -1 -1 0 0 -1 0 0 -1 -1 0 0 -1 -1 0 0 -1 -1 0 0 -1 0 0 -1 -1 0 -1 0 0 -1 -1 0 0 0 -1 0 -1 0 0 0 -1 0 -1 0 0 0z"/>
  </g>
  <g>
   <path id="path71566_17" class="fil0" d="M204 545c-3,0 -6,3 -6,6 0,3 3,6 6,6 4,0 6,-3 6,-6 0,-3 -2,-6 -6,-6z" inkscape:connector-curvature="0"/>
   <path id="1" class="fil0" d="M198 551l0 0 0 0 0 0 0 -1 0 0 0 0 0 -1 0 0 0 0 0 0 0 -1 1 0 0 0 0 -1 0 0 0 0 0 0 1 0 0 -1 0 0 0 0 1 0 0 0 0 -1 0 0 1 0 0 0 0 0 1 0 0 0 0 0 1 0 0 0 0 0 0 0 0 0 0 0 -1 0 0 0 0 0 -1 0 0 1 0 0 0 0 -1 0 0 0 0 0 0 0 -1 1 0 0 0 0 0 0 0 0 -1 1 0 0 0 0 0 0 0 1 0 0 0 0 0 0 -1 1 0 0 0 0 0 0 0 1 0 0 0 0zm6 6l0 1 0 0 0 0 0 -1 -1 0 0 0 0 0 -1 0 0 0 0 0 -1 0 0 0 0 0 0 -1 -1 0 0 0 0 0 0 0 -1 -1 0 0 0 0 0 0 0 -1 0 0 -1 0 0 0 0 -1 0 0 0 0 0 -1 0 0 0 0 0 -1 0 0 0 0 0 0 0 1 0 0 0 0 0 1 1 0 0 0 0 0 0 1 0 0 0 0 0 0 0 1 1 0 0 0 0 0 0 0 0 1 1 0 0 0 0 0 0 0 1 0 0 1 0 0 0 0 1 0 0 0 0 0 1 0 0 0 0 0 0 0zm6 -6l1 0 0 0 0 0 0 1 0 0 -1 0 0 1 0 0 0 0 0 1 0 0 0 0 0 0 -1 1 0 0 0 0 0 0 0 1 -1 0 0 0 0 0 0 0 -1 1 0 0 0 0 0 0 -1 0 0 0 0 0 -1 0 0 0 0 0 -1 1 0 0 0 -1 0 0 1 0 0 0 0 0 1 0 0 0 0 0 0 0 1 -1 0 0 0 0 0 0 1 0 0 0 0 -1 0 0 1 0 0 0 0 0 0 -1 0 0 0 0 0 0 1 -1 0 0 0 0 0 0 0 -1 0 0 0 0 0 -1 0 0 0 0zm-6 -6l0 0 0 0 0 0 1 0 0 0 0 0 1 0 0 0 0 0 1 0 0 0 0 0 0 1 1 0 0 0 0 0 0 0 1 1 0 0 0 0 0 0 0 0 1 1 0 0 0 0 0 1 0 0 0 0 0 0 0 1 1 0 0 0 0 1 0 0 -1 0 0 0 0 -1 0 0 0 0 0 0 0 -1 0 0 0 0 -1 0 0 -1 0 0 0 0 0 0 0 -1 0 0 -1 0 0 0 0 0 0 -1 -1 0 0 0 0 0 0 0 -1 0 0 0 0 -1 0 0 -1 0 0 0 0 0 -1 0 0 0 0 0z"/>
  </g>
  <g>
   <path id="path69444_18" class="fil0" d="M277 156c1,5 6,7 11,5 4,-1 7,-6 5,-11 -1,-4 -6,-7 -11,-5 -4,2 -7,7 -5,11l0 0zm0 0l0 0 0 0z" inkscape:connector-curvature="0"/>
   <path id="1" class="fil0" d="M287 160l1 2 0 0 0 1 -1 0 0 0 -1 0 0 0 -1 0 0 0 -1 0 0 0 -1 0 0 0 -1 0 0 -1 0 0 -1 0 0 0 -1 0 0 0 -1 -1 0 0 0 0 -1 -1 0 0 0 0 -1 -1 0 0 0 0 0 -1 -1 0 0 -1 0 0 0 -1 2 0 0 0 0 0 0 1 0 0 1 0 0 1 0 0 0 0 0 1 1 0 0 0 0 0 1 1 0 0 0 0 1 0 0 0 0 0 1 1 0 0 0 0 1 0 0 0 0 0 1 0 0 0 1 0 0 0 0 0 1 0 0 0 0 -1 0 0zm1 2l0 0 0 0 0 0zm4 -11l2 -1 0 0 0 0 0 1 1 0 0 1 0 0 0 1 0 0 0 1 0 0 0 1 -1 0 0 1 0 0 0 1 0 0 0 0 -1 1 0 0 0 1 0 0 -1 0 0 1 0 0 -1 0 0 1 0 0 -1 0 0 1 -1 0 0 0 0 0 -1 0 -1 -2 1 0 0 0 1 0 0 0 0 0 0 -1 1 0 0 0 0 0 1 -1 0 0 0 0 0 0 0 -1 1 0 0 0 0 -1 0 0 0 0 0 -1 0 0 0 -1 1 0 0 0 0 -1 0 0 0 0 0 -1 -1 0 0 -1 0 0 0 0 0 0zm0 0l0 0 0 -1 0 1zm-10 -5l0 -2 0 0 0 0 1 0 0 0 1 0 0 -1 1 0 0 0 1 0 0 1 1 0 0 0 0 0 1 0 0 0 1 0 0 0 1 1 0 0 0 0 1 0 0 1 0 0 1 0 0 1 0 0 1 0 0 1 0 0 1 1 0 0 0 1 0 0 -2 1 0 -1 0 0 0 0 0 -1 -1 0 0 0 0 -1 0 0 -1 0 0 0 0 -1 0 0 -1 0 0 0 0 -1 -1 0 0 0 0 0 -1 0 0 0 0 0 -1 0 0 0 -1 0 0 0 0 0 -1 0 0 0 0 0 -1 0 0 0 -1 0 0 0zm0 0l0 0 1 0 -1 0zm-4 10l-2 0 0 0 -1 -1 0 0 0 -1 0 0 0 0 0 -1 0 0 0 -1 0 0 0 -1 0 0 1 -1 0 0 0 -1 0 0 0 0 1 -1 0 0 0 -1 0 0 1 0 0 -1 0 0 1 0 0 -1 1 0 0 0 0 0 1 -1 0 0 1 0 0 2 0 0 0 0 -1 0 0 1 0 0 -1 0 0 0 0 1 0 0 -1 0 0 0 0 1 0 0 -1 0 0 1 0 0 0 0 0 1 0 0 0 0 -1 1 0 0 0 0 0 1 0 0 0 0 0 1 0 0 0 1 0 0 1 0 0 1zm-1 0l0 0 0 0 0 0zm0 0l0 0 0 0 0 0z"/>
  </g>
 </g>
</svg>
