<?xml version="1.0" encoding="UTF-8"?>
<!DOCTYPE svg PUBLIC "-//W3C//DTD SVG 1.1//EN" "http://www.w3.org/Graphics/SVG/1.1/DTD/svg11.dtd">
<!-- Creator: CorelDRAW X7 -->
<svg xmlns="http://www.w3.org/2000/svg" xml:space="preserve" width="600px" height="400px" version="1.1" style="shape-rendering:geometricPrecision; text-rendering:geometricPrecision; image-rendering:optimizeQuality; fill-rule:evenodd; clip-rule:evenodd"
viewBox="0 0 600 400"
 xmlns:xlink="http://www.w3.org/1999/xlink">
 <defs>
  <style type="text/css">
   <![CDATA[
    .str3 {stroke:#FEFEFE;stroke-width:0.752365}
    .str0 {stroke:#393185;stroke-width:2.36221}
    .str1 {stroke:#FEFEFE;stroke-width:0.900004}
    .str4 {stroke:#2B2A29;stroke-width:0.900004}
    .str2 {stroke:#AE4A84;stroke-width:0.900004;stroke-linejoin:round}
    .fil3 {fill:none}
    .fil1 {fill:#FEFEFE}
    .fil5 {fill:#2B2A29}
    .fil2 {fill:#AE4A84}
    .fil0 {fill:#393185}
    .fil4 {fill:#FEFEFE;fill-rule:nonzero}
   ]]>
  </style>
 </defs>
 <g id="Layer_x0020_1">
  <metadata id="CorelCorpID_0Corel-Layer"/>
  <circle class="fil0 str0" cx="148" cy="172" r="79"/>
 </g>
 <g id="Layer_x0020_1_0">
  <metadata id="CorelCorpID_1Corel-Layer"/>
  <g id="_812349328">
   <path class="fil1 str1" d="M204 332c-34,-48 -88,-96 -75,-166 6,4 19,3 20,3 115,-9 25,-142 -16,-41 -40,101 22,149 71,204zm-74 -168c3,-13 8,-27 16,-42 37,-68 101,42 -8,44 -3,0 -6,0 -8,-2z"/>
  </g>
  <g id="_812342864">
   <path class="fil1 str1" d="M137 166c-136,37 23,52 -17,64 -16,5 -32,-2 -46,-8 5,1 29,3 39,2 -2,-1 -4,-1 -6,-2 -82,-31 -8,-58 30,-56zm-20 57c0,0 0,0 0,0 0,0 0,0 0,0z"/>
  </g>
  <g id="_812346832">
   <path class="fil1 str1" d="M165 175c122,-11 31,25 -3,42 15,1 42,3 51,4 0,0 -1,-1 -3,-4 38,15 -60,8 -60,8 -23,-4 52,-39 66,-45 -11,-2 -51,-5 -51,-5z"/>
  </g>
  <path class="fil2 str2" d="M150 143c5,-3 10,-8 15,-3l3 2 1 -3c5,-6 13,-2 17,1 3,3 3,3 2,3 0,0 -15,15 -20,15 -10,0 -18,-15 -18,-15z"/>
  <g id="_812343504">
   <path class="fil1 str1" d="M236 174c3,31 2,20 6,42 26,-66 42,-66 11,7 -16,37 -34,71 -49,109 8,-22 60,-138 62,-159 -20,21 -19,72 -27,52l0 0 0 0c-3,-7 -7,-22 -13,-49 -1,-3 1,-6 4,-7 3,0 6,2 6,5z"/>
  </g>
  <g id="_812347408">
   <path class="fil1 str1" d="M278 195c0,0 24,-38 23,-12 17,-18 33,-2 9,35 1,-13 7,-17 7,-25l0 1c0,-1 -3,-10 -5,-10 0,0 0,0 0,0 -4,7 -16,30 -18,32l-6 0c-3,-7 4,-24 7,-32 -6,2 -12,7 -17,11z"/>
  </g>
  <path class="fil3 str1" d="M278 195c0,-6 23,-19 22,-14 -23,86 9,-40 20,12 1,4 -10,20 -10,25"/>
  <g id="_5852320">
   <path class="fil1 str1" d="M360 188c-9,-17 -29,6 -30,14 11,-6 42,-34 23,0 4,-3 8,-5 10,-6 -9,14 -23,28 -18,8 -5,5 -12,9 -17,8 -37,-4 45,-58 32,-24zm-14 19l0 0c0,0 0,0 0,0z"/>
  </g>
  <path class="fil3 str1" d="M360 188c0,-22 -43,6 -33,18 4,7 29,-19 28,-15 0,0 -8,16 -9,18 1,4 15,-12 17,-13"/>
  <g id="_5849504">
   <path class="fil1 str1" d="M374 179c4,18 2,22 -10,36 -3,-17 1,-21 10,-36z"/>
  </g>
  <path class="fil3 str1" d="M374 179c0,10 -10,31 -10,36"/>
  <g id="_5853344">
   <path class="fil1 str1" d="M372 193c-1,-22 59,-30 27,11 -2,1 -3,3 -5,4 1,0 2,1 4,1 -25,15 -6,-6 -3,-25 -9,3 -17,8 -23,9zm17 15c-1,0 -1,0 -1,0l0 0 1 0z"/>
  </g>
  <path class="fil3 str1" d="M372 193c2,-4 25,-16 28,-16 5,22 -13,31 -12,34 0,0 6,-2 10,-2"/>
  <g id="_5851520">
   <path class="fil1 str1" d="M418 180c3,10 -3,16 -5,22 8,-1 14,-4 21,-5 -4,21 -62,30 -16,-17zm-6 25c0,0 0,1 0,1 1,0 0,-1 0,-1zm-2 -3c-1,0 -1,0 -1,1 0,0 0,-1 1,-1z"/>
  </g>
  <path class="fil3 str1" d="M418 180c0,9 -16,25 -10,28 2,1 10,-3 16,-4 4,-1 8,-5 10,-7"/>
  <g id="_5848768">
   <path class="fil1 str1" d="M419 163c-6,-3 -4,-14 9,-18 0,10 -1,12 -9,18z"/>
  </g>
  <path class="fil3 str1" d="M419 163c-1,-5 6,-14 9,-18"/>
  <g id="_5845760">
   <path class="fil1 str1" d="M443 190c10,5 20,-4 14,-8l0 0c0,0 0,0 0,0 -6,3 -11,6 -14,8zm-4 4c-8,8 13,9 26,12 -63,25 -26,-52 -2,-31 20,17 -17,26 -24,19z"/>
  </g>
  <path class="fil3 str1" d="M438 187c0,10 30,11 24,-6 -6,-15 -56,27 -8,26 4,0 7,0 11,-1"/>
  <g id="_5849312">
   <path class="fil1 str1" d="M483 187c-3,-11 -40,18 23,17 -7,9 -25,9 -35,6 -43,-13 35,-47 12,-23z"/>
  </g>
  <path class="fil3 str1" d="M483 187c7,-21 -51,21 10,21 3,-1 10,-2 13,-4"/>
  <g id="_5850432">
   <path class="fil1 str1" d="M280 178c4,18 3,23 -10,37 -2,-18 1,-22 10,-37z"/>
  </g>
  <path class="fil3 str1" d="M280 178c0,10 -9,31 -10,37"/>
  <g id="_688782288">
   <path class="fil1 str1" d="M133 113c3,0 5,3 9,5 4,2 9,6 13,6 1,-1 14,-3 14,-3 -5,1 -14,5 -20,3 -5,-2 -5,-4 -10,-7 0,0 -6,-4 -6,-4z"/>
   <g>
    <path id="_1" class="fil1" d="M163 123l-1 0c0,0 0,0 -1,0l0 0c-1,0 -1,1 -2,1l0 0 0 0 -1 0 0 0 0 0 0 0 -1 0 0 0 0 0 0 0c0,0 -1,0 -1,0l0 0 0 0 -1 0 0 0 0 0 0 0 -1 0 0 0 0 0 0 0 0 0 0 0 -1 0 0 0 0 0 0 0 0 0 0 0 -1 0 0 0 0 0 0 0 0 0 0 0 0 0 -1 0 0 0 0 0c0,0 0,0 0,0 4,1 10,-1 15,-2 1,-1 2,-1 3,-1 0,0 -3,0 -6,1 -4,1 -8,1 -8,2 0,0 0,0 -1,0 1,0 1,0 1,0 1,-1 14,-3 14,-3 -2,0 -4,1 -6,2zm-13 1l0 0 0 0c0,0 0,0 1,0 -1,0 -1,0 -1,0zm-1 0l0 0c0,0 0,0 0,0 -5,-2 -5,-4 -10,-7 0,0 -6,-4 -6,-4 3,0 5,3 9,5 3,2 7,4 10,5 -3,-1 -6,-3 -9,-5l-1 0c-1,-1 -2,-1 -3,-2 -2,-1 -4,-3 -6,-3l0 0 1 1c2,1 5,3 5,3 2,1 3,2 4,3 2,2 3,3 6,4 0,0 0,0 1,0l0 0 -1 0zm3 -1c0,0 0,0 1,0 -1,0 -1,0 -1,0zm1 0c0,0 0,0 0,0 0,0 0,0 0,0zm1 0c0,1 0,1 0,1 0,0 0,0 0,-1z"/>
    <path id="1" class="fil3 str1" d="M163 123l-1 0c0,0 0,0 -1,0l0 0c-1,0 -1,1 -2,1l0 0 0 0 -1 0 0 0 0 0 0 0 -1 0 0 0 0 0 0 0c0,0 -1,0 -1,0l0 0 0 0 -1 0 0 0 0 0 0 0 -1 0 0 0 0 0 0 0 0 0 0 0 -1 0 0 0 0 0 0 0 0 0 0 0 -1 0 0 0 0 0 0 0 0 0 0 0 0 0 -1 0 0 0 0 0c0,0 0,0 0,0 4,1 10,-1 15,-2 1,-1 2,-1 3,-1 0,0 -3,0 -6,1 -4,1 -8,1 -8,2 0,0 0,0 -1,0 1,0 1,0 1,0 1,-1 14,-3 14,-3 -2,0 -4,1 -6,2zm-13 1l0 0 0 0c0,0 0,0 1,0 -1,0 -1,0 -1,0zm-1 0l0 0c0,0 0,0 0,0 -5,-2 -5,-4 -10,-7 0,0 -6,-4 -6,-4 3,0 5,3 9,5 3,2 7,4 10,5 -3,-1 -6,-3 -9,-5l-1 0c-1,-1 -2,-1 -3,-2 -2,-1 -4,-3 -6,-3l0 0 1 1c2,1 5,3 5,3 2,1 3,2 4,3 2,2 3,3 6,4 0,0 0,0 1,0l0 0m2 -1c0,0 0,0 1,0 -1,0 -1,0 -1,0zm1 0c0,0 0,0 0,0 0,0 0,0 0,0zm1 0c0,1 0,1 0,1 0,0 0,0 0,-1z"/>
   </g>
  </g>
  <g>
   <path class="fil4 str1" d="M158 117l0 0 0 0 0 -1 0 0 0 0 0 0 0 -1 0 0 -1 0 0 0 0 -1 0 0 0 0 0 0 0 -1 -1 0 0 0 0 0 0 0 -1 -1 0 0 0 0 0 0 -1 0 0 0 0 0 -1 -1 0 0 0 0 -1 0 0 0 0 0 -1 0 0 0 0 0 0 0 1 0 0 0 1 0 0 0 0 0 1 0 0 0 0 0 1 0 0 0 0 1 0 0 1 0 0 0 0 0 1 0 0 1 0 0 0 0 0 0 1 1 0 0 0 0 0 1 0 0 0 0 0 0 0 1 0 0 0 0 0 1 0 0zm-7 6l0 -1 0 0 0 0 1 0 0 0 0 0 1 0 0 0 0 0 1 0 0 0 0 -1 1 0 0 0 0 0 0 0 1 0 0 0 0 -1 0 0 1 0 0 0 0 -1 0 0 0 0 0 0 0 0 1 -1 0 0 0 0 0 -1 0 0 0 0 0 0 0 0 0 0 0 0 0 1 0 0 0 0 0 0 0 1 0 0 0 0 0 1 -1 0 0 0 0 0 0 1 0 0 -1 0 0 0 0 0 -1 1 0 0 0 0 0 0 -1 0 0 0 0 0 -1 0 0 1 0 0 -1 0 0 0 -1 0 0 0 0 0zm-7 -6l0 0 0 0 0 0 0 0 1 0 0 1 0 0 0 0 0 1 0 0 0 0 0 0 0 0 1 1 0 0 0 0 0 0 0 1 1 0 0 0 0 0 0 0 1 0 0 0 0 1 1 0 0 0 0 0 0 0 1 0 0 0 0 0 1 0 0 0 0 1 0 0 -1 0 0 0 0 0 -1 0 0 -1 0 0 -1 0 0 0 0 0 -1 0 0 0 0 0 0 -1 -1 0 0 0 0 0 0 0 -1 -1 0 0 0 0 0 0 0 -1 -1 0 0 0 0 -1 0 0 0 0 0 0 0 -1 0 0 0 0 0 0zm7 -6l0 0 0 0 0 0 -1 0 0 0 0 0 -1 0 0 0 0 0 0 1 -1 0 0 0 0 0 -1 0 0 0 0 0 0 1 -1 0 0 0 0 0 0 0 0 1 -1 0 0 0 0 0 0 1 0 0 0 0 0 0 0 1 0 0 -1 0 0 0 0 1 0 0 0 -1 0 0 0 0 0 -1 0 0 0 0 0 0 0 -1 1 0 0 0 0 -1 0 0 0 0 1 0 0 -1 0 0 0 0 1 0 0 0 0 0 0 -1 1 0 0 0 0 0 1 0 0 0 0 0 1 0 0 0 0 0 1 0 0 0 0 0z"/>
  </g>
  <circle class="fil1 str3" cx="151" cy="117" r="3"/>
  <g>
   <path class="fil1 str1" d="M207 124c-2,0 -3,1 -6,2 -4,2 -6,4 -9,3 -1,0 -11,-3 -11,-4 4,1 9,6 14,5 4,0 16,-6 12,-6z"/>
   <path id="_1_1" class="fil1 str1" d="M207 124c0,0 0,0 0,0 0,0 0,0 0,0l1 0c0,0 0,0 0,0 0,0 0,0 -1,0zm0 0c-2,0 -2,1 -4,2 -1,0 -1,0 -2,0l0 0 0 0 1 0 0 0 0 0c1,0 1,-1 2,-1l0 0 0 0 0 0 1 0 0 0c0,0 1,-1 2,-1zm-7 3l-1 0c-1,1 -1,1 -2,1 1,0 2,-1 3,-1zm-4 2c0,0 0,0 0,0 0,0 0,0 0,0zm-3 0c0,0 0,0 0,0 0,0 0,0 0,0zm0 0c-1,0 -1,0 -1,0 -1,0 -3,-1 -5,-1l-4 -2c1,0 1,1 2,1 -1,0 -1,-1 -2,-1l0 0 0 0 1 0 2 1 0 0 0 0 0 0 0 0 1 1 0 0 0 0 1 0c2,0 3,1 4,1 0,0 0,0 1,0zm-8 -2c0,0 1,1 1,1 3,1 6,3 9,2 -1,1 -2,1 -2,0l-1 0c0,0 0,0 0,0l0 0 0 0 -1 0c0,0 0,0 0,0l0 0c-1,0 -1,0 -2,-1l0 0 0 0 0 0c-2,0 -3,-1 -4,-2zm10 3l0 0c1,0 2,0 3,0 -1,0 -2,0 -3,0l0 0zm3 0c3,-1 6,-3 8,-4l0 0c-2,1 -5,3 -8,4zm8 -4c1,-1 1,-1 2,-1 0,0 0,-1 0,-1 0,1 -1,1 -2,2zm-23 0c-1,0 -2,0 -2,-1 0,1 1,1 1,1 0,0 -1,0 -1,0 0,0 1,0 2,0l0 0 0 0z"/>
  </g>
  <g>
   <path class="fil4 str1" d="M185 123l0 0 0 -1 0 0 0 0 0 -1 1 0 0 0 0 0 0 -1 0 0 0 0 1 0 0 -1 0 0 0 0 0 0 1 0 0 -1 0 0 1 0 0 0 0 0 0 0 1 0 0 -1 1 0 0 0 0 0 1 0 0 0 0 0 1 0 0 0 0 1 0 0 -1 0 0 0 0 0 -1 0 0 0 0 0 -1 0 0 0 0 0 -1 0 0 0 0 1 0 0 -1 0 0 0 0 0 0 0 -1 1 0 0 0 0 0 0 0 0 -1 1 0 0 0 0 0 0 0 1 0 0 0 0 0 0 0 1 0 0 -1 0zm7 6l0 0 0 0 -1 0 0 0 0 0 -1 0 0 0 -1 0 0 0 0 0 0 -1 -1 0 0 0 0 0 -1 0 0 -1 0 0 0 0 0 0 -1 -1 0 0 0 0 0 0 0 -1 0 0 -1 0 0 0 0 -1 0 0 0 0 0 -1 0 0 0 0 1 0 0 0 0 0 0 1 0 0 0 0 0 0 0 1 0 0 0 0 0 0 0 1 1 0 0 0 0 0 0 1 0 0 1 0 0 0 0 0 0 1 1 0 0 0 0 0 0 0 1 0 0 0 0 0 1 1 0 0 0 0 1 0 0 0 0 0 0 0zm8 -5l0 0 0 0 0 1 0 0 -1 0 0 0 0 1 0 0 0 0 0 1 -1 0 0 0 0 0 0 0 0 1 -1 0 0 0 0 0 0 0 -1 1 0 0 0 0 -1 0 0 0 0 0 -1 0 0 0 0 0 -1 0 0 0 0 0 -1 0 0 0 0 0 0 0 1 0 0 0 0 0 1 0 0 0 0 0 1 0 0 0 0 -1 0 0 1 0 0 0 0 0 1 0 0 0 0 -1 0 0 0 0 1 0 0 0 0 -1 0 0 0 0 0 0 1 0 0 -1 0 0 0 0 0 -1 0 0 0 0 0 0 1 0zm-7 -7l0 0 0 0 1 0 0 0 0 0 1 1 0 0 0 0 1 0 0 0 0 0 1 0 0 1 0 0 0 0 1 0 0 0 0 1 0 0 0 0 1 0 0 1 0 0 0 0 0 0 0 1 1 0 0 0 0 1 0 0 0 0 0 1 0 0 -1 0 0 0 0 -1 0 0 0 0 0 -1 0 0 0 0 0 0 0 -1 -1 0 0 0 0 0 0 -1 0 0 0 0 -1 0 0 0 0 -1 0 0 0 0 -1 0 0 0 0 0 -1 -1 0 0 0 0 0 0 -1 0 0 0 0 0 -1 0 0 0 0 0 0 -1z"/>
  </g>
  <circle class="fil1 str3" transform="matrix(-0.971765 -0.0850181 -0.0850181 0.971765 190.725 122.387)" r="3"/>
  <g>
   <path class="fil5 str4" d="M127 111c-9,-6 -1,-1 8,1 1,0 5,-1 9,-1 4,-1 11,-4 15,-1 6,4 3,3 11,11 1,1 -7,-8 -13,-8 -4,-1 -14,3 -18,3 -6,0 -7,-2 -12,-5z"/>
   <path id="_1_2" class="fil5 str4" d="M124 108l0 0c0,0 1,1 2,1 -1,0 -1,0 -2,-1 0,0 -1,0 -1,0 0,0 1,0 1,0zm6 3l1 0 0 0 0 0c1,0 1,0 2,1l0 0 0 0 0 0 1 0 0 0c0,0 0,0 1,0 0,0 1,0 1,0 0,0 -1,0 -1,0 -3,-1 -6,-2 -8,-2 1,0 2,0 3,1zm12 0l0 0c1,0 1,0 2,0 0,-1 1,-1 1,-1 0,0 -1,0 -1,1 -1,0 -2,0 -3,0 -1,0 -2,0 -3,1 1,-1 3,-1 4,-1zm10 -2l0 0c0,0 1,0 1,0l0 0c2,0 4,0 6,1 6,4 3,3 11,11 0,0 0,0 0,0 -1,-1 -3,-3 -6,-5 2,1 3,2 4,3 1,1 1,1 1,1l0 0c-2,-2 -3,-4 -4,-5 -2,-2 -2,-2 -6,-5 -4,-2 -9,-1 -13,0l0 0c2,0 4,-1 6,-1zm5 4l0 0 0 0 0 0c0,0 0,0 0,0 0,0 -1,0 -1,0l0 0c0,0 -1,0 -1,0 1,0 1,0 2,0 0,0 1,0 2,0 -1,0 -1,0 -2,0zm-13 2l0 0c-1,0 -1,1 -2,1l0 0 -1 0 0 0 0 0 0 0c-1,0 -1,0 -2,0 -2,0 -4,0 -5,-1l0 0c-2,-1 -4,-2 -7,-4l-1 -1 1 1c1,1 2,1 3,2 3,2 4,3 9,3 2,0 5,-1 9,-2 -1,0 -1,1 -2,1 -1,0 -1,0 -2,0zm20 1c-1,-1 -1,-1 -1,-1 0,0 0,0 1,1zm-1 -1c-1,0 -1,0 -1,-1 0,1 0,1 1,1zm-2 -1c0,0 0,0 0,0 0,0 0,0 0,0zm-1 0c0,0 -1,-1 -1,-1 0,0 1,1 1,1zm-5 -1c-1,0 -2,0 -3,0 1,0 2,0 3,0zm-7 1l0 0 0 0 0 0zm-22 -4c-2,-1 -3,-2 -3,-2 0,0 1,1 2,1l1 1zm10 2c1,0 1,0 1,0 0,0 0,0 -1,0zm1 0c1,0 1,0 1,0 0,0 0,0 -1,0zm33 9c0,0 0,0 0,0 0,0 0,0 0,0zm0 0c0,0 0,0 0,0z"/>
  </g>
  <g>
   <path class="fil5 str4" d="M210 124c8,-4 3,-1 -5,-2 -1,0 -1,-1 -4,-2 -4,-2 -6,-5 -10,-3 -6,3 -3,2 -11,8 -1,1 7,-6 12,-5 3,0 6,1 9,2 5,3 4,4 9,2z"/>
   <g>
    <path id="_1_3" class="fil5" d="M210 124c1,0 2,-1 2,-1 2,-1 2,-1 2,-1l0 0 0 0 0 0 0 0 0 0 0 0 0 0 0 0 0 0 0 0 0 0c-1,0 -1,1 -2,1l0 0 0 0 0 0 0 0 0 0 -1 0 0 0 -1 1c0,0 -1,0 -1,1 0,-1 1,-1 1,-1zm4 -2c0,0 0,0 -1,0 -1,0 -4,0 -8,0 0,0 -1,-1 -2,-1l0 0c1,0 2,1 2,1 1,0 1,0 2,0l0 0c1,0 2,0 3,0 2,0 2,0 3,0l0 0 1 0 0 0 0 0 0 0 0 0 0 0c0,0 0,0 0,0zm-13 -2l0 0c-1,-1 -2,-1 -3,-2 -2,-1 -4,-2 -6,-1 0,-1 1,-1 1,-1l0 0 0 0 0 0 0 0 0 0c1,0 1,0 2,0l0 0 0 0 0 0 0 0 0 0 0 0 0 0c2,1 3,2 5,3l0 0 0 0 0 0 0 0 0 0c1,1 1,1 1,1l0 0zm-9 -3l0 0c0,0 -1,0 -1,0l0 0 0 0c-6,3 -3,2 -11,8l0 0 0 0 0 0c3,-2 4,-4 5,-4 2,-2 2,-2 6,-4l0 0 1 0zm10 6l0 0 -1 -1c0,0 -1,0 -2,0l0 -1 0 0 0 0 0 0 0 0 -1 0 -1 0 0 0c0,0 0,0 -1,-1l1 1c1,0 3,1 4,1 2,1 3,2 3,2 2,1 3,1 5,1 -3,1 -3,-1 -7,-2zm-10 -3l0 0 0 0zm-1 0l0 0 0 0 0 0c0,0 0,0 0,0 0,0 1,0 1,0 0,0 0,0 -1,0zm-10 5l0 0 0 0 0 0 0 0 0 0 0 0 -1 0 0 0 1 0zm-1 0l0 0c1,0 1,-1 2,-1 1,-1 3,-2 5,-3 -3,1 -5,3 -6,4l-1 0zm7 -4c0,0 0,0 0,0 0,0 0,0 0,0zm0 0c1,-1 2,-1 3,-1 -1,0 -2,0 -3,1zm5 -1l0 0c0,0 0,0 0,0 1,0 2,0 3,0 1,0 1,0 1,0 0,0 0,0 -1,0 0,0 -1,0 -2,0 0,0 0,0 -1,0l0 0 0 0zm-12 5l0 0 0 0 0 0z"/>
    <path id="1" class="fil3 str4" d="M210 124c1,0 2,-1 2,-1 2,-1 2,-1 2,-1l0 0 0 0 0 0 0 0 0 0 0 0 0 0 0 0 0 0 0 0 0 0c-1,0 -1,1 -2,1l0 0 0 0 0 0 0 0 0 0 -1 0 0 0 -1 1c0,0 -1,0 -1,1 0,-1 1,-1 1,-1zm4 -2c0,0 0,0 -1,0 -1,0 -4,0 -8,0 0,0 -1,-1 -2,-1l0 0c1,0 2,1 2,1 1,0 1,0 2,0l0 0c1,0 2,0 3,0 2,0 2,0 3,0l0 0 1 0 0 0 0 0 0 0 0 0 0 0c0,0 0,0 0,0zm-13 -2l0 0c-1,-1 -2,-1 -3,-2 -2,-1 -4,-2 -6,-1 0,-1 1,-1 1,-1l0 0 0 0 0 0 0 0 0 0c1,0 1,0 2,0l0 0 0 0 0 0 0 0 0 0 0 0 0 0c2,1 3,2 5,3l0 0 0 0 0 0 0 0 0 0c1,1 1,1 1,1l0 0zm-9 -3l0 0c0,0 -1,0 -1,0l0 0 0 0c-6,3 -3,2 -11,8l0 0 0 0 0 0c3,-2 4,-4 5,-4 2,-2 2,-2 6,-4l0 0m11 6l0 0 -1 -1c0,0 -1,0 -2,0l0 -1 0 0 0 0 0 0 0 0 -1 0 -1 0 0 0c0,0 0,0 -1,-1l1 1c1,0 3,1 4,1 2,1 3,2 3,2 2,1 3,1 5,1 -3,1 -3,-1 -7,-2zm-10 -3l0 0m-1 0l0 0 0 0 0 0c0,0 0,0 0,0 0,0 1,0 1,0 0,0 0,0 -1,0zm-10 5l0 0 0 0 0 0 0 0 0 0 0 0 -1 0 0 0m0 0l0 0c1,0 1,-1 2,-1 1,-1 3,-2 5,-3 -3,1 -5,3 -6,4m6 -4c0,0 0,0 0,0 0,0 0,0 0,0zm0 0c1,-1 2,-1 3,-1 -1,0 -2,0 -3,1zm5 -1l0 0c0,0 0,0 0,0 1,0 2,0 3,0 1,0 1,0 1,0 0,0 0,0 -1,0 0,0 -1,0 -2,0 0,0 0,0 -1,0l0 0m-12 5l0 0 0 0 0 0z"/>
   </g>
  </g>
 </g>
</svg>
