<?xml version="1.0" encoding="UTF-8"?>
<!DOCTYPE svg PUBLIC "-//W3C//DTD SVG 1.0//EN" "http://www.w3.org/TR/2001/REC-SVG-20010904/DTD/svg10.dtd">
<!-- Creator: CorelDRAW X7 -->
<svg xmlns="http://www.w3.org/2000/svg" xml:space="preserve" width="47px" height="47px" version="1.0" style="shape-rendering:geometricPrecision; text-rendering:geometricPrecision; image-rendering:optimizeQuality; fill-rule:evenodd; clip-rule:evenodd"
viewBox="0 0 47 47"
 xmlns:xlink="http://www.w3.org/1999/xlink">
 <defs>
  <style type="text/css">
   <![CDATA[
    .fil1 {fill:#FEFEFE}
    .fil0 {fill:#FEFEFE}
   ]]>
  </style>
 </defs>
 <g id="Layer_x0020_1">
  <metadata id="CorelCorpID_0Corel-Layer"/>
  <g id="_1096101744">
   <path class="fil0" d="M104 30c0,0 0,1 0,1l-9 -9 9 -8c0,1 0,1 0,2l0 14zm-14 -7l12 -10c0,0 -1,0 -1,0l-21 0c-1,0 -1,0 -2,0l12 10zm4 0l-3 2c0,0 0,0 -1,0 0,0 0,0 0,0l-3 -2 -9 10c1,0 1,0 2,0l21 0c0,0 1,0 1,0l-8 -10zm-17 -9c0,1 0,1 0,2l0 14c0,0 0,1 0,1l9 -9 -9 -8z"/>
  </g>
  <g id="_1096088656">
   <path class="fil1" d="M35 29c0,1 -1,1 -1,2l-7 -8 7 -7c0,1 1,1 1,2l0 11zm-12 -5l10 -9c0,0 -1,0 -1,0l-18 0c0,0 -1,0 -1,0l10 9zm3 0l-2 2c-1,0 -1,0 -1,0 0,0 0,0 0,0l-3 -2 -7 8c0,0 1,0 1,0l18 0c0,0 1,0 1,0l-7 -8zm-14 -8c0,1 0,1 0,2l0 11c0,1 0,1 0,2l7 -8 -7 -7z"/>
  </g>
  <g id="_1096076624">
  </g>
  <g id="_1096080784">
  </g>
  <g id="_1096107856">
  </g>
  <g id="_1096115696">
  </g>
  <g id="_1096082160">
  </g>
  <g id="_1096077392">
  </g>
  <g id="_1096116976">
  </g>
  <g id="_1096113808">
  </g>
  <g id="_1096115568">
  </g>
  <g id="_1096115024">
  </g>
  <g id="_1096088592">
  </g>
  <g id="_1096105104">
  </g>
  <g id="_1096104944">
  </g>
  <g id="_1096109552">
  </g>
  <g id="_1096117872">
  </g>
 </g>
</svg>
