<?xml version="1.0" encoding="UTF-8"?>
<!DOCTYPE svg PUBLIC "-//W3C//DTD SVG 1.1//EN" "http://www.w3.org/Graphics/SVG/1.1/DTD/svg11.dtd">
<!-- Creator: CorelDRAW X7 -->
<svg xmlns="http://www.w3.org/2000/svg" xml:space="preserve" width="47px" height="47px" version="1.1" style="shape-rendering:geometricPrecision; text-rendering:geometricPrecision; image-rendering:optimizeQuality; fill-rule:evenodd; clip-rule:evenodd"
viewBox="0 0 47 47"
 xmlns:xlink="http://www.w3.org/1999/xlink">
 <defs>
  <style type="text/css">
   <![CDATA[
    .fil0 {fill:#FEFEFE}
   ]]>
  </style>
 </defs>
 <g id="Layer_x0020_1">
  <metadata id="CorelCorpID_0Corel-Layer"/>
  <g id="_1096094928">
   <path class="fil0" d="M29 13l-3 0c-3,0 -5,2 -5,5l0 2 -2 0c-1,0 -1,1 -1,1l0 3c0,0 0,1 1,1l2 0 0 8c0,0 0,1 1,1l3 0c0,0 1,-1 1,-1l0 -8 3 0c0,0 0,-1 0,-1l0 -3c0,0 0,0 0,-1 0,0 0,0 0,0l-3 0 0 -2c0,-1 0,-1 1,-1l2 0c0,0 0,0 0,-1l0 -3c0,0 0,0 0,0z"/>
  </g>
  <g id="_1096094672">
  </g>
  <g id="_1096080176">
  </g>
  <g id="_1096094352">
  </g>
  <g id="_1096075248">
  </g>
  <g id="_1096096976">
  </g>
  <g id="_1096095760">
  </g>
  <g id="_1096067824">
  </g>
  <g id="_1096074832">
  </g>
  <g id="_1096094288">
  </g>
  <g id="_1096072080">
  </g>
  <g id="_1096075408">
  </g>
  <g id="_1096097168">
  </g>
  <g id="_1096098096">
  </g>
  <g id="_1096075760">
  </g>
  <g id="_1096076816">
  </g>
 </g>
</svg>
