<?xml version="1.0" encoding="UTF-8"?>
<!DOCTYPE svg PUBLIC "-//W3C//DTD SVG 1.0//EN" "http://www.w3.org/TR/2001/REC-SVG-20010904/DTD/svg10.dtd">
<!-- Creator: CorelDRAW X7 -->
<svg xmlns="http://www.w3.org/2000/svg" xml:space="preserve" width="47px" height="47px" version="1.0" style="shape-rendering:geometricPrecision; text-rendering:geometricPrecision; image-rendering:optimizeQuality; fill-rule:evenodd; clip-rule:evenodd"
viewBox="0 0 47 47"
 xmlns:xlink="http://www.w3.org/1999/xlink">
 <defs>
  <style type="text/css">
   <![CDATA[
    .fil0 {fill:#FEFEFE}
   ]]>
  </style>
 </defs>
 <g id="Layer_x0020_1">
  <metadata id="CorelCorpID_0Corel-Layer"/>
  <path class="fil0" d="M24 30c-1,-1 -2,-1 -2,-2 -1,-3 1,-4 2,-5 1,-1 0,-1 0,-2 2,0 1,3 2,4 1,0 1,0 1,-2 1,0 2,2 1,3 0,2 -1,2 -1,3 2,0 3,-3 3,-5 0,-3 -1,-6 -3,-6 0,1 1,1 0,2 -1,1 -1,-3 -2,-4 0,-1 -2,-3 -4,-2 0,1 2,1 1,4 -1,3 -6,7 -1,11 1,0 2,1 3,1zm-10 5c1,-2 -4,-3 -4,-11 0,-3 0,-5 1,-7 2,-3 4,-3 3,-4 -2,-1 -4,2 -4,4 -3,4 -3,9 0,14 0,1 2,4 4,4zm25 -11c0,4 -1,6 -3,9 -1,0 -2,1 -2,2 3,1 7,-6 7,-11 0,-2 -1,-5 -2,-7 -2,-5 -5,-5 -5,-4 1,1 5,4 5,11zm-21 9c3,0 13,1 15,0 1,-2 -1,-1 -3,-1l-11 0c-1,0 -2,-1 -3,0 0,1 1,1 2,1z"/>
 </g>
</svg>
