<?xml version="1.0" encoding="UTF-8"?>
<!DOCTYPE svg PUBLIC "-//W3C//DTD SVG 1.1//EN" "http://www.w3.org/Graphics/SVG/1.1/DTD/svg11.dtd">
<!-- Creator: CorelDRAW X7 -->
<svg xmlns="http://www.w3.org/2000/svg" xml:space="preserve" width="47px" height="47px" version="1.1" style="shape-rendering:geometricPrecision; text-rendering:geometricPrecision; image-rendering:optimizeQuality; fill-rule:evenodd; clip-rule:evenodd"
viewBox="0 0 47 47"
 xmlns:xlink="http://www.w3.org/1999/xlink">
 <defs>
  <style type="text/css">
   <![CDATA[
    .fil0 {fill:#FEFEFE}
   ]]>
  </style>
 </defs>
 <g id="Layer_x0020_1">
  <metadata id="CorelCorpID_0Corel-Layer"/>
  <g id="_1178230624">
  </g>
  <g id="_1178247232">
  </g>
  <g id="_1178231776">
  </g>
  <g id="_1178235776">
  </g>
  <g id="_1178234848">
  </g>
  <g id="_1178222304">
  </g>
  <g id="_1178241952">
  </g>
  <g id="_1178246432">
  </g>
  <g id="_1178246496">
  </g>
  <g id="_1178237824">
  </g>
  <g id="_1178233568">
  </g>
  <g id="_1178225472">
  </g>
  <g id="_1178239328">
  </g>
  <g id="_1178229440">
  </g>
  <g id="_1178235680">
  </g>
  <g id="XMLID_122_">
   <g>
    <path class="fil0" d="M32 22c0,-1 0,-1 0,-2 0,-3 -1,-3 -2,-4 1,-2 0,-3 0,-3 0,0 -2,1 -3,1 -2,0 -5,0 -6,0 -3,-1 -4,-1 -4,-1 0,0 -1,1 0,3 -1,1 -1,2 -1,4 0,0 0,1 0,1 0,4 3,5 6,5 -1,1 -1,1 -1,2 -1,0 -2,0 -3,0 -1,0 -1,-3 -3,-2 0,0 0,0 0,0 1,1 1,1 2,2 0,1 0,2 2,2 1,0 2,0 2,0 0,0 0,1 0,2 0,1 -1,1 -1,1 0,1 0,1 0,1 1,0 2,-1 2,-2 0,0 0,-2 0,-3 0,-1 0,-1 0,-1 0,0 0,4 0,5 0,1 0,1 0,1 0,0 1,0 2,-1 0,-1 0,-5 0,-5l0 0c0,0 0,2 0,3 0,1 0,2 1,2 0,1 1,1 1,1 0,0 -1,-1 -1,-2l0 -4c1,0 1,2 1,2l0 2c0,0 0,1 1,1 0,1 1,1 1,0 0,0 -1,0 -1,-1 0,0 0,-1 0,-3 0,-1 0,-2 -1,-3 3,0 5,-1 6,-4z"/>
   </g>
  </g>
 </g>
</svg>
