<?xml version="1.0" encoding="UTF-8"?>
<!DOCTYPE svg PUBLIC "-//W3C//DTD SVG 1.1//EN" "http://www.w3.org/Graphics/SVG/1.1/DTD/svg11.dtd">
<!-- Creator: CorelDRAW X7 -->
<svg xmlns="http://www.w3.org/2000/svg" xml:space="preserve" width="47px" height="47px" version="1.1" style="shape-rendering:geometricPrecision; text-rendering:geometricPrecision; image-rendering:optimizeQuality; fill-rule:evenodd; clip-rule:evenodd"
viewBox="0 0 47 47"
 xmlns:xlink="http://www.w3.org/1999/xlink">
 <defs>
  <style type="text/css">
   <![CDATA[
    .fil0 {fill:#FEFEFE}
   ]]>
  </style>
 </defs>
 <g id="Layer_x0020_1">
  <metadata id="CorelCorpID_0Corel-Layer"/>
  <g id="_1209835824">
   <g>
    <rect class="fil0" x="14" y="20" width="4.55857" height="13.6894"/>
    <path class="fil0" d="M34 21c-1,-1 -3,-2 -4,-2 -1,0 -1,0 -2,1 0,0 -1,0 -1,0 0,0 -1,1 -1,1 0,0 0,0 0,1l0 -2 -5 0 0 0c0,1 0,2 0,4 0,3 0,6 0,9l5 0 0 -7c0,-1 0,-1 0,-1 0,-1 0,-1 1,-2 0,0 1,0 1,0 1,0 2,0 2,1 0,0 1,1 1,2l0 7 4 0 0 -7c0,-2 0,-4 -1,-5z"/>
    <path class="fil0" d="M16 13c0,0 -1,0 -1,1 -1,0 -1,1 -1,1 0,1 0,2 1,2 0,1 1,1 1,1l0 0c1,0 2,0 2,-1 1,0 1,-1 1,-2 0,0 0,-1 -1,-1 0,-1 -1,-1 -2,-1z"/>
   </g>
  </g>
 </g>
</svg>
